<svg width="301" height="627" viewBox="0 0 301 627" fill="none" xmlns="http://www.w3.org/2000/svg">
<g style="mix-blend-mode:soft-light" opacity="0.4" clip-path="url(#clip0_1066_2781)">
<path d="M282.003 187.507C286.037 177.138 289.86 166.596 292.705 155.829C294.651 148.444 296.2 140.927 297.234 133.317C301.602 129.97 306.049 126.794 311.387 126.096C321.277 124.786 330.234 126.428 339.839 128.89C342.487 129.572 345.136 130.253 347.785 130.935C334.801 137.568 330.052 151.809 323.837 164.028C320.141 171.313 316.193 178.901 309.539 183.648C300.677 189.966 288.74 190.087 278.981 194.766C280.052 192.362 281.051 189.938 282.003 187.507Z" fill="white"/>
<path d="M243.495 203.651C244.372 193.517 245.03 183.324 244.394 173.144C243.817 163.737 241.978 154.441 239.848 145.264C239.663 144.445 239.459 143.632 239.274 142.813C255.676 145.786 273.062 147.617 287.665 139.96C288.134 139.716 288.597 139.452 289.06 139.188C287.715 146.791 285.908 154.328 283.633 161.713C280.418 172.228 276.628 182.803 272.052 192.803C267.588 202.545 261.969 211.923 254.138 219.352C250.49 222.812 245.983 226.007 242.975 230.068C242.447 230.332 241.898 230.537 241.356 230.761C241.776 221.705 242.718 212.694 243.495 203.651Z" fill="white"/>
<path d="M232.688 232.897C223.785 228.309 216.085 221.316 207.962 215.499C200.447 210.118 193.13 204.408 186.784 197.647C180.445 190.906 175.21 183.049 170.662 175.007C167.46 169.357 164.675 163.503 162.161 157.537C167.818 151.448 173.938 146.021 181.457 142.549C196.945 135.435 214.853 138.171 231.73 141.382C235.094 153.737 237.262 166.534 237.501 179.092C237.863 197.114 234.876 214.996 234.148 232.984C233.818 233.05 233.481 233.096 233.131 233.168C232.985 233.063 232.84 232.957 232.682 232.877L232.688 232.897Z" fill="white"/>
<path d="M180.958 227.703C172.893 224.31 165.371 219.769 158.133 214.89C151.152 210.19 144.158 205.516 137.415 200.473C133.81 197.776 130.27 194.947 126.856 191.966C127.061 191.854 127.272 191.762 127.477 191.65C139.503 185.247 147.964 173.954 156.926 163.441C163.73 178.922 172.589 193.829 184.654 205.666C191.521 212.407 199.281 218.125 207.166 223.625C211.868 226.904 216.273 230.612 220.929 233.95C218.181 233.83 215.426 233.557 212.724 233.18C202.849 231.755 193.079 229.128 183.151 228.602C182.418 228.318 181.665 228.04 180.945 227.729L180.958 227.703Z" fill="white"/>
<path d="M97.4742 216.739C96.8353 212.372 99.2884 207.373 102.091 204.414C104.437 201.938 107.358 200.129 110.443 198.75C111.269 198.387 119.258 194.737 119.674 195.127C131.005 205.623 144.194 214.223 157.046 222.671C160.625 225.024 164.297 227.259 168.049 229.335C159.751 230.269 151.466 231.376 143.566 229.007C136.122 226.751 129.928 221.635 123 218.151C118.158 215.711 112.372 214.07 106.942 215.085C103.77 215.678 101.061 217.989 98.1668 219.085C97.8104 218.345 97.5928 217.558 97.4808 216.759L97.4742 216.739Z" fill="white"/>
<path d="M330.018 93.1017C321.051 97.9137 311.174 100.783 301.541 103.923C293.85 106.417 286.199 110.021 278.237 111.768C282.171 105.857 284.862 99.3249 286.213 92.0719C288.199 81.3708 288.838 70.4578 291.083 59.8031C296.558 61.8335 301.69 65.1454 307.106 67.4599C320.415 73.2461 335.378 72.8232 349.785 74.3027C350.815 74.422 351.872 74.5546 352.909 74.6938C346.274 82.0105 338.766 88.4284 330.018 93.1017Z" fill="white"/>
<path d="M271.667 119.943C271.8 119.811 271.925 119.659 272.051 119.507C272.506 119.686 273.068 119.785 273.682 119.713C284.18 118.641 293.86 113.921 303.79 110.682C314.058 107.331 324.424 104.144 333.972 99.0288C344.512 93.3851 353.334 85.2964 361.021 76.1767C371.669 78.6653 381.748 83.3468 387.802 92.1422C369.286 90.0928 350.255 102.967 345.246 120.86C344.981 121.851 344.783 122.842 344.558 123.82L341.737 123.085C331.301 120.438 322.271 118.974 312.269 120.278C305.834 121.121 300.805 125.062 295.882 128.859C293.146 130.958 290.529 132.952 287.734 134.411C276.91 140.193 264.213 140.346 251.332 138.689C257.842 132.185 265.171 126.553 271.595 119.923L271.667 119.943Z" fill="white"/>
<path d="M254.739 66.1744C264.557 63.523 273.769 57.2644 283.889 58.1012C283.982 58.1145 284.054 58.1343 284.14 58.1277C281.89 68.6966 281.251 79.5436 279.33 90.1786C278.363 95.4763 276.631 100.192 274.237 104.512C269.434 90.9406 262.959 77.9699 254.759 66.1678L254.739 66.1744Z" fill="white"/>
<path d="M228.74 90.3949C223.961 82.7165 218.494 75.487 213.219 68.1717C211.674 66.0439 210.149 63.9094 208.584 61.7882C210.038 61.4585 211.518 61.2081 213.03 61.1229C224.519 60.3814 235.429 67.3622 246.864 67.321C256.721 80.7952 264.147 96.0255 269.2 111.935C267.574 113.93 265.79 115.845 263.833 117.707C257.647 123.597 250.96 128.905 245.031 135.04C244.312 119.052 237.058 103.809 228.727 90.4213L228.74 90.3949Z" fill="white"/>
<path d="M171.859 142.354C177.306 134.442 182.369 126.239 186.284 117.428C190.212 108.591 192.726 99.2776 194.501 89.792C195.945 82.0899 196.727 74.3214 196.982 66.5527C198.482 65.7011 200.002 64.9091 201.534 64.2227C203.231 66.5422 204.928 68.8617 206.612 71.2076C211.728 78.3114 217.036 85.3294 221.763 92.7172C230.121 105.788 237.46 120.694 237.936 136.477C237.44 136.377 236.952 136.298 236.456 136.199C218.899 132.861 199.029 128.995 181.704 137.007C177.693 138.848 174.105 141.232 170.735 143.939C171.112 143.417 171.462 142.882 171.839 142.36L171.859 142.354Z" fill="white"/>
<path d="M125.068 111.316C130.355 105.439 133.82 98.1871 134.55 90.26C134.856 86.8118 134.659 83.3765 134.092 80.0203C134.535 80.0271 134.997 80.0273 135.46 80.0275C147.826 80.535 160.542 83.5463 172.408 79.9709C178.585 78.0909 184.182 74.5326 189.72 70.9941C188.682 87.7204 184.935 104.578 177.378 119.511C173.14 127.879 167.924 135.626 162.524 143.28C158.445 149.085 152.538 153.429 148.618 159.313C144.141 153.604 137.715 149.38 131.242 146.272C123.409 142.516 115.093 139.824 106.612 137.759C105.817 126.905 118.551 118.593 125.088 111.31L125.068 111.316Z" fill="white"/>
<path d="M60.948 112.624C77.1943 93.3674 101.721 81.4606 126.878 80.1107C127.663 84.0549 127.866 88.1045 127.117 92.1405C125.694 99.6379 121.358 105.132 116.097 110.362C108.754 117.672 99.7864 125.787 99.3789 136.139C89.7282 134.199 79.8988 132.913 70.294 131.772C63.3051 130.95 56.2236 130.181 49.1421 129.61C52.6394 123.646 56.4734 117.9 60.948 112.624Z" fill="white"/>
<path d="M108.56 154.99C99.3162 158.771 90.7061 163.993 81.3899 167.622C72.5626 171.067 64.1592 172.081 54.8586 170.134C47.0773 168.519 39.6069 165.721 32.0837 163.161C34.1602 158.155 36.5405 153.267 38.9406 148.572C40.9902 144.543 43.0795 140.501 45.2349 136.525C53.7896 137.09 62.3441 137.985 70.8061 139C79.1294 139.994 87.8426 140.837 95.9011 142.955C100.267 144.099 104.64 145.264 109.006 146.409C113.28 147.54 118.313 148.177 122.296 150.022C121.906 151.164 117.044 151.77 115.656 152.232C113.238 153.037 110.932 154.178 108.514 154.983L108.56 154.99Z" fill="white"/>
<path d="M53.8799 217.731C52.0624 219.745 50.1061 221.607 48.0839 223.403C46.2672 223.237 44.4837 223.104 42.6803 222.912C41.3664 221.214 40.0525 219.515 38.7386 217.817C34.8366 212.841 30.9147 207.739 28.5655 201.806C24.5601 191.492 25.9984 180.533 29.5968 169.846C36.8162 172.353 44.0289 174.972 51.4601 176.726C60.1066 178.758 68.5228 178.907 77.0127 176.631C70.1625 190.845 64.6531 205.911 53.8667 217.758L53.8799 217.731Z" fill="white"/>
<path d="M58.5679 223.149C64.9788 216.281 69.8247 208.151 74.043 199.79C76.1654 195.583 78.1095 191.303 80.0734 187.016C81.4223 184.057 83.4318 181.363 84.3646 178.212C84.8873 176.409 84.6564 175.715 85.9517 174.447C87.4652 172.975 89.9297 171.912 91.7601 170.863C101.189 165.39 111.378 160.744 122.16 158.873C125.866 158.233 129.963 156.98 133.669 156.671C136.668 156.421 139.699 159.904 141.7 162.079C142.459 162.905 147.444 169.017 146.486 170.107C140.802 176.513 134.913 182.237 127.598 186.125C124.598 187.762 121.46 188.983 118.09 190.303C113.796 191.953 109.336 193.701 105.265 196.289C99.2651 200.158 93.7129 207.158 93.5841 214.642C92.7918 213.651 91.4972 213.135 89.9313 213.789C83.945 216.31 78.1106 219.22 71.9791 221.371C67.2286 223.041 62.5973 223.877 57.755 223.948C58.0326 223.657 58.3234 223.407 58.601 223.116L58.5679 223.149Z" fill="white"/>
<path d="M326.435 341.636C320.925 341.158 315.383 341.572 309.887 341.001C304.668 340.47 300.276 338.85 296.208 335.558C292.78 332.802 289.802 329.544 286.772 326.392C289.052 324.444 291.47 322.648 293.809 320.945C295.832 319.479 297.873 318.007 299.935 316.594C304.004 319.027 307.993 321.618 311.902 324.236C315.733 326.814 319.814 329.418 323.261 332.498C325.117 334.171 326.972 335.843 328.841 337.488C330.657 339.108 332.975 340.714 334.467 342.617C333.985 343.086 331.429 342.153 330.643 342.041C329.249 341.822 327.835 341.808 326.441 341.59L326.435 341.636Z" fill="white"/>
<path d="M283.732 358.732C282.325 359.267 280.897 359.676 279.464 360.065C278.625 359.53 277.766 359.001 276.928 358.465C276.717 357.302 276.479 356.127 276.269 354.964C275.59 351.535 274.957 348.047 275.302 344.519C275.919 338.435 279.396 333.403 283.87 329.051C286.802 332.104 289.688 335.217 292.904 337.934C296.648 341.113 300.749 343.315 305.505 344.308C298.56 349.57 292.044 355.592 283.771 358.719L283.732 358.732Z" fill="white"/>
<path d="M284.662 362.586C289.538 360.83 293.985 358.051 298.161 354.988C300.269 353.45 302.311 351.845 304.347 350.221C305.761 349.112 307.426 348.293 308.662 346.979C309.382 346.233 309.442 345.817 310.4 345.52C311.517 345.17 313.003 345.27 314.152 345.218C320.164 344.89 326.361 345.183 332.127 346.963C334.115 347.578 336.454 347.989 338.343 348.769C339.875 349.404 340.501 351.882 340.937 353.454C341.088 354.042 342.025 358.31 341.265 358.607C336.864 360.336 332.504 361.655 327.945 361.719C326.049 361.778 324.2 361.579 322.218 361.38C319.681 361.101 317.066 360.849 314.397 361.099C310.479 361.5 305.986 363.546 304.029 367.192C303.89 366.511 303.389 365.93 302.437 365.85C298.87 365.584 295.25 365.556 291.696 365.066C288.928 364.688 286.451 363.927 284.034 362.75C284.252 362.678 284.45 362.612 284.648 362.546L284.662 362.586Z" fill="white"/>
<path d="M301.172 570.744C304.697 578.092 310.575 579.746 315.095 578.242C315.551 578.09 315.98 577.925 316.37 577.707C319.845 575.978 322.443 572.141 322.419 567.173C322.888 566.334 323.199 565.35 323.213 564.201C323.288 559.002 323.211 553.677 323.134 548.551C323.057 542.367 322.974 535.966 323.136 529.769C323.404 520.323 324.333 510.81 325.87 501.47C329.672 478.561 338.507 456.62 347.031 435.398L354.213 417.551C354.346 417.221 354.518 416.812 354.742 416.362C355.886 413.978 357.586 410.352 356.048 408.046C355.216 406.804 353.657 406.222 351.391 406.293C347.791 406.391 345.794 409.918 344.452 412.236C344.273 412.559 344.095 412.883 343.916 413.141C341.814 416.548 339.983 420.174 338.469 423.298C327.142 446.157 318.657 469.216 313.283 491.833C310.278 504.37 308.205 516.993 307.043 529.511C301.961 518.411 296.734 506.94 291.956 495.629C284.314 477.63 277.386 458.998 271.29 440.221C256.393 394.209 248.097 346.463 240.097 300.269L233.369 261.6C233.264 260.887 233.132 259.962 233.001 258.905C232.237 253.369 231.071 244.972 227.102 242.704C225.418 241.746 223.495 241.989 221.367 243.468C217.482 246.148 218.053 253.62 218.474 259.051C218.553 259.817 218.592 260.53 218.638 261.198C219.084 269.152 220.025 277.205 220.841 284.089C226.995 335.124 236.592 384.529 249.329 430.929C262.87 480.144 280.289 527.188 301.179 570.764L301.172 570.744Z" fill="white"/>
</g>
<defs>
<clipPath id="clip0_1066_2781">
<rect width="375.568" height="535.359" fill="white" transform="matrix(-0.948821 0.315815 0.315815 0.948821 357.177 0)"/>
</clipPath>
</defs>
</svg>
