<svg width="92" height="99" viewBox="0 0 92 99" fill="none" xmlns="http://www.w3.org/2000/svg">
<g style="mix-blend-mode:soft-light" opacity="0.4" clip-path="url(#clip0_1066_2860)">
<path d="M51.991 36.1575C52.2936 38.2053 53.0231 40.2 54.2439 42.0312C57.4436 46.8553 63.0267 49.1335 68.4181 48.3367C70.4461 48.0369 72.438 47.2877 74.2721 46.0866L81.7646 41.1077C84.2668 39.4338 84.9689 36.0448 83.295 33.5426L78.3161 26.05C76.3757 23.1122 73.5121 21.1093 70.3737 20.1883C70.5617 18.1084 71.7358 16.1356 73.5809 15.1452C74.1873 14.8028 74.8593 14.562 75.4801 14.2479C76.0865 13.9055 76.667 13.4558 76.9651 12.8052C77.2676 12.1843 77.1843 11.3475 76.6617 10.889C75.9303 10.2491 74.7808 10.611 73.9475 11.1284C70.9723 12.953 69.0528 16.3805 68.9919 19.8668C67.2635 19.5259 65.48 19.4963 63.7308 19.8357C62.6489 18.6714 61.6206 17.4587 60.8051 16.1135C59.4167 13.8319 58.5819 11.1249 59.084 8.50331C59.2701 7.50538 59.643 6.54049 59.6112 5.50401C59.6035 4.49429 59.0239 3.37702 58.0428 3.16821C57.294 3.02617 56.5083 3.45565 56.0615 4.05744C55.5949 4.66216 55.3935 5.41975 55.2826 6.17407C54.7709 9.14077 55.1904 12.2529 56.4424 14.9791C57.4756 17.1817 59.0334 19.1046 60.9696 20.5774C60.0535 20.9453 59.1704 21.3993 58.3063 21.9819C53.4823 25.1815 51.207 30.7844 52.0009 36.1561L51.991 36.1575Z" fill="white"/>
<path d="M38.6244 52.69C38.9241 54.7179 39.6748 56.7197 40.8858 58.5523C44.077 63.3877 49.67 65.6645 55.0417 64.8706C57.0696 64.5709 59.0714 63.8201 60.904 62.6092C65.067 59.861 67.3305 55.3415 67.3633 50.7069C66.8477 50.8437 66.3179 50.9524 65.7837 51.0313C60.4121 51.8252 54.829 49.547 51.6279 44.7131C50.4169 42.8804 49.6662 40.8787 49.3665 38.8507C49.2553 38.0989 49.205 37.3482 49.2255 36.5971C47.7466 36.9875 46.2875 37.648 44.9426 38.5341C40.1102 41.7451 37.8305 47.3183 38.6244 52.69Z" fill="white"/>
<path d="M29.0076 70.2444C29.859 75.7996 31.9256 81.1651 35.0975 85.8012C36.8237 88.3159 38.9226 90.6844 41.6684 92.0274C44.4143 93.3704 47.8827 93.5148 50.3973 91.7886C52.9768 90.0225 54.0247 86.7845 54.9167 83.792C55.7127 81.1067 56.5171 78.4102 57.313 75.7249C57.8933 73.7691 59.4206 70.8342 59.322 68.8675C58.627 69.0208 57.9334 69.1839 57.231 69.2877C49.9798 70.3594 42.4482 67.2775 38.1189 60.7604C36.4806 58.2934 35.4733 55.5815 35.0698 52.8512C34.9294 51.9015 35.0218 50.8164 34.7601 49.9351C33.115 50.1581 31.6794 51.5934 30.8502 52.9593C29.9298 54.46 29.4785 56.1946 29.1687 57.9285C28.4246 61.991 28.3855 66.1716 29.0091 70.2543L29.0076 70.2444Z" fill="white"/>
<path d="M28.4945 27.5801C24.5609 25.9982 20.1772 25.2006 16.0423 26.1553C10.598 27.4149 6.03181 31.8805 4.63662 37.2825C4.15492 39.153 4.04612 41.2211 4.90869 42.9537C6.40829 45.987 10.3999 47.0043 13.7301 46.3504C17.0504 45.698 19.9743 43.8001 23.0348 42.347C27.7672 40.101 32.9885 38.9047 38.2265 38.8483C38.7922 38.8456 41.4585 39.24 41.7122 38.7678C42.022 38.1964 40.434 36.4801 40.0996 36.0645C38.7165 34.2978 37.0797 32.7302 35.2842 31.3883C33.2034 29.8258 30.9118 28.5471 28.4945 27.5801Z" fill="white"/>
<path d="M37.0792 28.8296C33.0578 24.8751 27.227 22.8357 21.6125 23.4228C21.2863 20.6002 21.3005 17.6868 22.1203 14.9576C22.9514 12.2369 24.6589 9.69998 27.1298 8.2936C29.6007 6.88723 32.8783 6.76673 35.235 8.34918C36.9178 9.47525 37.9858 11.2987 38.8799 13.1074C40.9052 17.2357 42.2702 21.6839 42.9527 26.233C43.2904 28.5182 43.4501 30.8297 43.4372 33.1363C43.4315 33.7134 43.4144 34.282 43.3875 34.852C43.3735 35.1675 43.4819 36.2432 43.2624 36.4677C42.6404 37.1156 41.8123 35.2061 41.5985 34.8536C40.2997 32.7004 38.8782 30.6057 37.0807 28.8395L37.0792 28.8296Z" fill="white"/>
</g>
<defs>
<clipPath id="clip0_1066_2860">
<rect width="79.72" height="87.35" fill="white" transform="matrix(-0.989254 0.146205 0.146205 0.989254 78.8634 0)"/>
</clipPath>
</defs>
</svg>
