<svg width="449" height="156" viewBox="0 0 449 156" fill="none" xmlns="http://www.w3.org/2000/svg">
<g style="mix-blend-mode:soft-light" opacity="0.4" clip-path="url(#clip0_1066_2608)">
<path d="M2.20652 112.752C2.27862 89.7943 17.1184 70.745 36.9047 60.4344C40.8274 58.3867 44.9375 56.6851 48.6871 54.3345C51.7012 52.431 56.619 48.9557 57.3977 45.1776C58.2053 41.2552 55.3499 36.9003 52.1194 35.0256C47.418 32.2857 42.1974 33.0933 37.5104 35.5159C34.3954 37.131 31.6553 39.3661 29.0594 41.7167C12.7054 56.4976 -0.648948 77.3639 0.028864 100.091C0.187501 105.253 1.00953 110.387 2.49495 115.333" fill="white"/>
<path d="M6.74928 132.322L6.72044 131.86C5.04754 105.658 25.454 83.2636 48.1247 73.0539C72.324 62.1521 100.475 65.1948 125.006 73.5442C146.768 80.9419 167.146 92.0023 188.533 100.424C201.757 105.63 215.688 109.869 229.879 109.898C244.113 109.956 258.794 105.327 268.644 95.0594C278.48 84.7921 282.258 68.3384 275.624 55.7494C270.288 45.6695 258.564 39.3246 247.171 40.4205C243.277 40.8099 238.734 42.3096 234.682 44.7178C235.662 44.8332 236.628 45.1792 237.508 45.6551C240.739 47.3567 242.873 50.6157 244.056 54.0911C245.757 58.994 245.7 64.5459 243.565 69.2902C241.402 74.0056 237.076 77.7838 231.985 78.8509C227.197 79.918 223.202 78.9663 220.015 76.8465C218.977 76.1399 218.01 75.3179 217.145 74.4094C212.242 69.1315 210.107 60.5514 211.088 53.2403C212.761 40.1754 221.63 27.8603 233.946 22.8276C251.685 15.6318 273.836 23.4909 284.277 39.5841C296.045 57.7106 292.324 80.74 279.432 96.9918C267.188 112.407 246.882 119.502 227.658 119.632C206.329 119.819 185.663 112.624 165.718 105.038C145.787 97.4244 125.684 89.2624 104.441 87.3301C67.0601 83.9125 28.4825 101.678 6.74928 132.307V132.322Z" fill="white"/>
<path d="M246.709 3.14302C246.897 1.49909 248.483 0.273356 250.098 0.0714702C251.713 -0.173677 253.358 0.374299 254.857 1.0088C259.761 3.11418 264.145 6.37319 267.75 10.2667C269.582 12.2135 271.197 14.3188 272.625 16.5396C273.36 17.6644 274.024 18.818 274.673 19.9861C275.134 20.7792 276.374 22.5096 276.259 23.3316C275.466 22.5385 274.889 21.3848 274.153 20.4908C273.36 19.5534 272.509 18.6594 271.63 17.8374C269.899 16.2223 267.938 14.7947 265.904 13.569C261.693 11.0742 257.064 9.35821 252.348 8.01712C251.036 7.65661 249.694 7.28168 248.598 6.51739C247.474 5.72427 246.623 4.44085 246.738 3.09976L246.709 3.14302Z" fill="white"/>
<path d="M207.886 140.238C183.846 137.989 160.598 130.764 137.322 124.491C108.796 116.848 77.8186 111.974 48.3842 116.113C44.8509 116.632 41.3465 117.267 37.8998 118.117C37.1643 118.305 34.3376 119.545 34.453 118.089C34.5107 117.324 38.8372 115.623 39.5727 115.262C46.5238 111.787 53.8067 108.989 61.2915 106.884C75.3381 102.99 90.0624 101.577 104.585 102.774C105.566 102.861 106.561 102.962 107.57 103.077C136.024 106.12 160.858 119.862 188.071 127.476C200.993 131.067 214.275 133.691 227.687 133.605C255.29 133.417 281.436 119.531 294.358 94.6121C301.857 80.2061 304.439 62.8295 300.79 46.9238C315.601 75.2888 303.227 109.177 277.485 126.02C257.28 139.243 231.898 142.473 207.886 140.253V140.238Z" fill="white"/>
<path d="M208.059 74.7971C209.675 74.7106 211.074 75.9796 211.175 77.5947C211.232 79.2386 209.992 80.6086 208.348 80.7095C206.733 80.796 205.334 79.527 205.276 77.912C205.19 76.268 206.43 74.8981 208.074 74.7971H208.059Z" fill="white"/>
<path d="M399.866 57.2493C399.375 55.5189 400.385 53.7452 402.087 53.2549C403.789 52.7646 405.591 53.774 406.082 55.4756C406.572 57.1772 405.562 58.9509 403.861 59.4412C402.159 59.9315 400.356 58.9509 399.866 57.2493Z" fill="white"/>
<path d="M382.733 54.4069C382.026 51.8834 383.497 49.23 386.021 48.5234C388.545 47.788 391.199 49.2589 391.934 51.8113C392.641 54.3348 391.17 56.9593 388.646 57.6948C386.122 58.4302 383.469 56.9305 382.733 54.4069Z" fill="white"/>
<path d="M195.109 63.522C194.258 60.2919 193.926 56.9463 194.071 53.5864C194.345 47.0107 196.508 40.4782 200.099 34.9696C210.886 18.4294 232.331 11.5941 251.295 13.6418C251.901 13.6995 252.449 13.7284 252.997 13.9158C240.508 13.8293 229.389 15.0406 219.078 23.0872C218.558 23.4766 218.039 23.9092 217.549 24.3418C206.156 34.09 198.166 51.1782 204.44 65.6851C205.146 67.329 206.055 69.2181 205.262 70.8332C204.31 72.7799 201.368 72.9097 199.623 71.5975C197.431 69.9535 195.787 66.1177 195.08 63.522H195.109Z" fill="white"/>
<path d="M278.148 14.9237C276.23 12.3713 275.523 8.52104 277.485 5.96863C279.071 3.92093 281.97 3.25759 284.494 3.74788C287.017 4.23818 289.282 5.6658 291.344 7.19436C315.413 24.8305 321.297 56.9736 316.61 84.9781C314.115 99.9753 306.285 114.843 292.93 122.154C303.66 112.651 311.058 99.485 313.596 85.4107C318.081 60.3913 306.587 35.0834 285.618 20.9659C282.936 19.1633 280.066 17.5194 278.148 14.9381V14.9237Z" fill="white"/>
<path d="M336.642 82.9597L336.613 82.9885C338.445 77.4799 342.612 73.024 346.578 69.0007C350.789 64.7611 355.361 60.8964 360.235 57.4788C363.985 54.8543 370.114 50.4128 374.498 54.09C375.897 55.3157 375.897 57.5076 375.104 59.1227C374.369 60.6801 372.97 61.8338 371.441 62.6269C369.912 63.4488 368.239 63.9391 366.595 64.4583C362.903 65.6407 359.37 67.1693 355.866 68.7556C353.948 69.6352 352.03 70.6158 350.198 71.6829C348.468 72.7212 346.78 73.8171 345.165 74.9996C343.492 76.2253 341.877 77.5232 340.348 78.8931C338.92 80.1765 337.752 81.4167 336.627 82.9452L336.642 82.9597Z" fill="white"/>
<path d="M448.019 125.528C446.707 128.398 443.477 130.619 440.405 129.826C438.213 129.249 436.598 127.273 435.804 125.11C434.405 121.217 434.708 116.299 434.103 112.19C433.396 107.474 432.43 102.773 430.93 98.2306C428.276 90.1552 423.834 82.4835 417.215 77.1191C411.735 72.7065 404.971 70.0531 397.991 68.9572C394.126 68.3515 390.189 68.2217 386.266 68.4092C383.151 68.5966 380.051 68.9572 377.008 69.5051C364.302 71.7547 348.915 76.6721 339.267 85.5695C344.228 80.9694 350.501 77.2056 356.544 74.1341C366.841 68.8995 378.306 65.9721 389.843 65.6981C401.265 65.4242 412.11 68.5678 421.772 74.7109C436.093 83.8534 446.173 99.3554 448.683 116.184C449.144 119.328 449.346 122.644 448.048 125.543L448.019 125.528Z" fill="white"/>
<path d="M333.599 119.516C333.685 119.488 333.743 119.444 333.844 119.387C324.052 134.153 319.293 138.739 308.534 144.752C297.199 151.068 282.662 155.654 269.654 155.971C263.02 156.144 271.586 155.467 273.937 154.818C279.489 153.246 284.926 151.314 290.204 149.064C300.79 144.521 310.755 138.595 319.797 131.457C322.191 129.596 324.484 127.606 326.749 125.559C329.099 123.424 330.873 121.146 333.613 119.516H333.599Z" fill="white"/>
<path d="M425.132 118.06C424.253 133.908 410.538 148.444 394.818 150.477C382.964 152.006 370.475 146.67 363.408 137.037C359.385 131.529 357.077 124.333 359.053 117.815C360.942 111.6 366.884 106.841 373.345 106.322C379.806 105.803 386.411 109.552 389.309 115.378C392.179 121.204 391.112 128.717 386.757 133.533C396.174 132.351 402.721 121.954 401.265 112.595C399.808 103.236 391.732 95.7806 382.589 93.3147C373.446 90.8776 363.538 92.8244 355.015 96.9054C346.477 101.015 339.05 107.086 331.854 113.229C315.644 127.116 298.007 140.412 277.701 147.809C258.924 154.63 239.398 154.904 220.75 147.723C227.947 150.492 239.859 148.603 247.286 147.665C256.487 146.512 265.573 144.103 274.125 140.498C282.287 137.081 289.325 133.576 295.815 127.635C296.55 126.972 297.271 126.265 298.007 125.588C304.554 119.459 310.899 113.071 317.505 106.942C327.528 97.612 338.286 88.7867 350.631 82.8455C362.976 76.9043 377.138 73.9481 390.578 76.7889C409.197 80.6824 426.2 98.232 425.132 118.046V118.06Z" fill="white"/>
<path d="M216.813 85.0071C215.746 85.0648 214.866 84.2428 214.809 83.2046C214.751 82.1375 215.573 81.229 216.64 81.2001C217.679 81.1424 218.587 81.9644 218.645 83.0027C218.674 84.0698 217.881 84.9494 216.813 85.0071Z" fill="white"/>
<path d="M176.289 45.4819C176.375 51.726 173.52 57.8547 169.121 62.2961C162.935 68.5113 155.017 71.2224 146.335 69.9101C140.12 68.9728 134.264 66.4925 128.294 64.5169C97.879 54.4659 63.4259 57.2057 35.0876 72.1885C30.8765 74.4381 26.925 76.9761 23.262 80.0188C26.2184 76.4858 29.7228 74.2362 33.0398 72.2462C36.7605 69.9966 40.5966 67.9201 44.5626 66.0599C58.3063 59.5707 73.3912 55.6772 88.2887 52.8363C103.676 49.9378 119.641 50.2839 134.885 53.8746C138.879 54.8119 142.831 55.98 146.955 56.0377C151.037 56.0954 155.363 54.884 158.046 51.7981C160.67 48.7842 160.872 44.2418 158.594 41.0981C158.478 41.9489 158.262 42.7709 157.887 43.564C156.459 46.5779 153.099 48.467 149.753 48.5246C146.854 48.6112 143.653 47.4864 141.591 45.381C141.403 45.1935 141.259 45.0493 141.1 44.8619C141.043 44.7753 140.942 44.6744 140.855 44.5879C140.249 43.7659 139.788 42.8574 139.514 41.8192C138.533 37.9545 140.365 33.686 143.379 31.249C145.787 29.3022 148.83 28.2351 151.873 27.6295C157.18 26.5912 162.963 26.9229 167.593 29.706C172.957 32.9362 176.188 39.2091 176.274 45.4531L176.289 45.4819Z" fill="white"/>
</g>
<defs>
<clipPath id="clip0_1066_2608">
<rect width="449" height="156" fill="white"/>
</clipPath>
</defs>
</svg>
