<svg width="97" height="92" viewBox="0 0 97 92" fill="none" xmlns="http://www.w3.org/2000/svg">
<g style="mix-blend-mode:soft-light" opacity="0.4" clip-path="url(#clip0_1066_2854)">
<path d="M83.2022 29.3272C87.0709 39.2099 82.1998 50.3734 72.3008 54.2268C62.4181 58.0955 51.2615 53.2432 47.3824 43.3323C51.2581 53.2338 46.38 64.3785 36.488 68.2507C26.6181 72.1254 15.4512 67.2448 11.573 57.3656L11.0884 56.0947L46.8979 42.0614L82.6954 28.0538L83.2081 29.3144L83.2022 29.3272Z" fill="white"/>
<path d="M61.1867 78.1921C52.3836 81.6354 43.3856 79.6682 41.0836 73.7912L39.3842 69.4507C48.1873 66.0074 52.7036 56.5273 50.4049 50.6597C52.707 56.5367 62.4164 60.3094 71.216 56.8568L72.9599 61.3194C75.262 67.1964 69.9898 74.7488 61.1901 78.2015L61.1867 78.1921Z" fill="white"/>
<path d="M54.8946 29.3101L54.9665 29.5074C56.3502 33.3031 54.4466 37.5414 50.663 39.0164L42.082 42.3681C38.2394 43.886 33.8935 41.9791 32.3756 38.1366L32.2729 37.8547C31.0913 34.6134 31.385 31.1854 32.8368 28.3359C30.5328 26.3658 28.9423 23.5503 28.5195 20.5219C28.3958 19.7155 28.3746 18.8398 28.679 18.0689C28.9902 17.3169 29.7382 16.6823 30.5618 16.7227C31.746 16.7593 32.4724 18.0804 32.5365 19.2491C32.5759 20.4375 32.1719 21.6066 32.1822 22.7737C32.2244 24.1739 32.9021 25.566 33.9682 26.4759C35.2612 24.7379 37.0371 23.3029 39.2279 22.451L39.5097 22.3483C41.3418 21.6804 43.2468 21.4756 45.0694 21.7159C45.1196 20.4523 44.6641 19.2027 43.8278 18.2516C43.0376 17.3688 41.9709 16.7785 41.209 15.8854C40.447 14.9924 40.0836 13.5283 40.9271 12.6886C41.4965 12.1192 42.4883 12.0663 43.2225 12.416C43.9814 12.746 44.5407 13.4043 45.0026 14.0874C46.6149 16.4373 47.3819 19.3295 47.1535 22.1482C50.5641 23.1827 53.4846 25.705 54.8912 29.3007L54.8946 29.3101Z" fill="white"/>
</g>
<defs>
<clipPath id="clip0_1066_2854">
<rect width="76.93" height="68.63" fill="white" transform="translate(0.57373 27.25) rotate(-20.029)"/>
</clipPath>
</defs>
</svg>
