<svg width="449" height="156" viewBox="0 0 449 156" fill="none" xmlns="http://www.w3.org/2000/svg">
<g style="mix-blend-mode:soft-light" opacity="0.4" clip-path="url(#clip0_1066_2654)">
<path d="M446.793 112.752C446.721 89.7943 431.882 70.745 412.095 60.4344C408.173 58.3867 404.062 56.6851 400.313 54.3345C397.299 52.431 392.381 48.9557 391.602 45.1776C390.795 41.2552 393.65 36.9003 396.881 35.0256C401.582 32.2857 406.803 33.0933 411.49 35.5159C414.605 37.131 417.345 39.3661 419.941 41.7167C436.295 56.4976 449.649 77.3639 448.971 100.091C448.812 105.253 447.99 110.387 446.505 115.333" fill="white"/>
<path d="M442.251 132.322L442.28 131.86C443.952 105.658 423.546 83.2636 400.875 73.0539C376.676 62.1521 348.525 65.1948 323.994 73.5442C302.232 80.9419 281.854 92.0023 260.467 100.424C247.243 105.63 233.312 109.869 219.121 109.898C204.887 109.956 190.206 105.327 180.356 95.0594C170.52 84.7921 166.742 68.3384 173.376 55.7494C178.712 45.6695 190.436 39.3246 201.829 40.4205C205.723 40.8099 210.266 42.3096 214.318 44.7178C213.338 44.8332 212.372 45.1792 211.492 45.6551C208.261 47.3567 206.127 50.6157 204.944 54.0911C203.243 58.994 203.3 64.5459 205.435 69.2902C207.598 74.0056 211.924 77.7838 217.015 78.8509C221.803 79.918 225.798 78.9663 228.985 76.8465C230.023 76.1399 230.99 75.3179 231.855 74.4094C236.758 69.1315 238.893 60.5514 237.912 53.2403C236.239 40.1754 227.37 27.8603 215.054 22.8276C197.315 15.6318 175.164 23.4909 164.723 39.5841C152.955 57.7106 156.676 80.74 169.568 96.9918C181.812 112.407 202.118 119.502 221.342 119.632C242.671 119.819 263.337 112.624 283.282 105.038C303.213 97.4244 323.316 89.2624 344.559 87.3301C381.94 83.9125 420.517 101.678 442.251 132.307V132.322Z" fill="white"/>
<path d="M202.291 3.14302C202.103 1.49909 200.517 0.273356 198.902 0.0714702C197.287 -0.173677 195.642 0.374299 194.143 1.0088C189.239 3.11418 184.855 6.37319 181.25 10.2667C179.418 12.2135 177.803 14.3188 176.375 16.5396C175.64 17.6644 174.976 18.818 174.327 19.9861C173.866 20.7792 172.626 22.5096 172.741 23.3316C173.534 22.5385 174.111 21.3848 174.847 20.4908C175.64 19.5534 176.491 18.6594 177.37 17.8374C179.101 16.2223 181.062 14.7947 183.096 13.569C187.307 11.0742 191.936 9.35821 196.652 8.01712C197.964 7.65661 199.306 7.28168 200.402 6.51739C201.526 5.72427 202.377 4.44085 202.262 3.09976L202.291 3.14302Z" fill="white"/>
<path d="M241.114 140.238C265.154 137.989 288.402 130.764 311.678 124.491C340.204 116.848 371.181 111.974 400.616 116.113C404.149 116.632 407.653 117.267 411.1 118.117C411.836 118.305 414.662 119.545 414.547 118.089C414.489 117.324 410.163 115.623 409.427 115.262C402.476 111.787 395.193 108.989 387.708 106.884C373.662 102.99 358.937 101.577 344.415 102.774C343.434 102.861 342.439 102.962 341.43 103.077C312.976 106.12 288.142 119.862 260.929 127.476C248.007 131.067 234.725 133.691 221.313 133.605C193.71 133.417 167.564 119.531 154.642 94.6121C147.143 80.2061 144.561 62.8295 148.21 46.9238C133.399 75.2888 145.773 109.177 171.515 126.02C191.72 139.243 217.102 142.473 241.114 140.253V140.238Z" fill="white"/>
<path d="M240.941 74.7971C239.325 74.7106 237.927 75.9796 237.826 77.5947C237.768 79.2386 239.008 80.6086 240.652 80.7095C242.267 80.796 243.666 79.527 243.724 77.912C243.811 76.268 242.57 74.8981 240.926 74.7971H240.941Z" fill="white"/>
<path d="M49.1343 57.2493C49.6246 55.5189 48.6151 53.7452 46.9134 53.2549C45.2116 52.7646 43.4089 53.774 42.9186 55.4756C42.4283 57.1772 43.4377 58.9509 45.1395 59.4412C46.8412 59.9315 48.644 58.9509 49.1343 57.2493Z" fill="white"/>
<path d="M66.267 54.4069C66.9736 51.8834 65.5026 49.23 62.9789 48.5234C60.4551 47.788 57.8016 49.2589 57.0661 51.8113C56.3594 54.3348 57.8304 56.9593 60.3542 57.6948C62.8779 58.4302 65.5315 56.9305 66.267 54.4069Z" fill="white"/>
<path d="M253.891 63.522C254.742 60.2919 255.074 56.9463 254.93 53.5864C254.656 47.0107 252.492 40.4782 248.901 34.9696C238.114 18.4294 216.669 11.5941 197.705 13.6418C197.099 13.6995 196.551 13.7284 196.003 13.9158C208.492 13.8293 219.611 15.0406 229.923 23.0872C230.442 23.4766 230.961 23.9092 231.451 24.3418C242.844 34.09 250.834 51.1782 244.56 65.6851C243.854 67.329 242.945 69.2181 243.738 70.8332C244.69 72.7799 247.632 72.9097 249.377 71.5975C251.569 69.9535 253.213 66.1177 253.92 63.522H253.891Z" fill="white"/>
<path d="M170.852 14.9237C172.77 12.3713 173.476 8.52104 171.515 5.96863C169.929 3.92093 167.03 3.25759 164.506 3.74788C161.983 4.23818 159.718 5.6658 157.656 7.19436C133.587 24.8305 127.703 56.9736 132.39 84.9781C134.884 99.9753 142.715 114.843 156.07 122.154C145.34 112.651 137.942 99.485 135.404 85.4107C130.919 60.3913 142.412 35.0834 163.381 20.9659C166.064 19.1633 168.934 17.5194 170.852 14.9381V14.9237Z" fill="white"/>
<path d="M112.358 82.9597L112.387 82.9885C110.555 77.4799 106.388 73.024 102.422 69.0007C98.2106 64.7611 93.639 60.8964 88.7645 57.4788C85.0149 54.8543 78.8858 50.4128 74.5016 54.09C73.1027 55.3157 73.1027 57.5076 73.8959 59.1227C74.6314 60.6801 76.0303 61.8338 77.559 62.6269C79.0877 63.4488 80.7606 63.9391 82.4046 64.4583C86.0965 65.6407 89.6298 67.1693 93.1342 68.7556C95.0523 69.6352 96.9704 70.6158 98.8019 71.6829C100.532 72.7212 102.22 73.8171 103.835 74.9996C105.508 76.2253 107.123 77.5232 108.652 78.8931C110.08 80.1765 111.248 81.4167 112.373 82.9452L112.358 82.9597Z" fill="white"/>
<path d="M0.980583 125.528C2.29294 128.398 5.52337 130.619 8.59515 129.826C10.7872 129.249 12.4024 127.273 13.1956 125.11C14.5945 121.217 14.2917 116.299 14.8974 112.19C15.604 107.474 16.5703 102.773 18.0701 98.2306C20.7237 90.1552 25.1655 82.4835 31.785 77.1191C37.2652 72.7065 44.0289 70.0531 51.0089 68.9572C54.8739 68.3515 58.811 68.2217 62.7336 68.4092C65.8487 68.5966 68.9493 68.9572 71.9922 69.5051C84.6976 71.7547 100.085 76.6721 109.733 85.5695C104.772 80.9694 98.499 77.2056 92.4564 74.1341C82.1594 68.8995 70.6943 65.9721 59.1571 65.6981C47.7352 65.4242 36.8902 68.5678 27.2278 74.7109C12.9072 83.8534 2.82655 99.3554 0.317205 116.184C-0.144284 119.328 -0.346182 122.644 0.951756 125.543L0.980583 125.528Z" fill="white"/>
<path d="M115.401 119.516C115.315 119.488 115.257 119.444 115.156 119.387C124.948 134.153 129.707 138.739 140.466 144.752C151.801 151.068 166.338 155.654 179.346 155.971C185.98 156.144 177.414 155.467 175.063 154.818C169.511 153.246 164.074 151.314 158.796 149.064C148.21 144.521 138.245 138.595 129.203 131.457C126.809 129.596 124.516 127.606 122.251 125.559C119.901 123.424 118.127 121.146 115.387 119.516H115.401Z" fill="white"/>
<path d="M23.8675 118.06C24.7473 133.908 38.4622 148.444 54.1816 150.477C66.0361 152.006 78.5252 146.67 85.5917 137.037C89.6153 131.529 91.9228 124.333 89.947 117.815C88.0578 111.6 82.1161 106.841 75.6553 106.322C69.1944 105.803 62.5894 109.552 59.6906 115.378C56.8207 121.204 57.888 128.717 62.2433 133.533C52.826 132.351 46.2786 121.954 47.7352 112.595C49.1918 103.236 57.2678 95.7806 66.4111 93.3147C75.5543 90.8776 85.4619 92.8244 93.985 96.9054C102.523 101.015 109.95 107.086 117.146 113.229C133.356 127.116 150.993 140.412 171.299 147.809C190.076 154.63 209.602 154.904 228.25 147.723C221.053 150.492 209.141 148.603 201.714 147.665C192.513 146.512 183.427 144.103 174.875 140.498C166.713 137.081 159.675 133.576 153.185 127.635C152.45 126.972 151.729 126.265 150.993 125.588C144.446 119.459 138.101 113.071 131.495 106.942C121.472 97.612 110.714 88.7867 98.3692 82.8455C86.0244 76.9043 71.8624 73.9481 58.4216 76.7889C39.8034 80.6824 22.8003 98.232 23.8675 118.046V118.06Z" fill="white"/>
<path d="M232.187 85.0071C233.254 85.0648 234.134 84.2428 234.191 83.2046C234.249 82.1375 233.427 81.229 232.36 81.2001C231.321 81.1424 230.413 81.9644 230.355 83.0027C230.326 84.0698 231.119 84.9494 232.187 85.0071Z" fill="white"/>
<path d="M272.711 45.4819C272.625 51.726 275.48 57.8547 279.879 62.2961C286.065 68.5113 293.983 71.2224 302.665 69.9101C308.88 68.9728 314.736 66.4925 320.706 64.5169C351.121 54.4659 385.574 57.2057 413.912 72.1885C418.123 74.4381 422.075 76.9761 425.738 80.0188C422.782 76.4858 419.277 74.2362 415.96 72.2462C412.239 69.9966 408.403 67.9201 404.437 66.0599C390.694 59.5707 375.609 55.6772 360.711 52.8363C345.324 49.9378 329.359 50.2839 314.115 53.8746C310.121 54.8119 306.169 55.98 302.045 56.0377C297.963 56.0954 293.637 54.884 290.954 51.7981C288.33 48.7842 288.128 44.2418 290.406 41.0981C290.522 41.9489 290.738 42.7709 291.113 43.564C292.541 46.5779 295.901 48.467 299.247 48.5246C302.146 48.6112 305.347 47.4864 307.409 45.381C307.597 45.1935 307.741 45.0493 307.9 44.8619C307.957 44.7753 308.058 44.6744 308.145 44.5879C308.751 43.7659 309.212 42.8574 309.486 41.8192C310.467 37.9545 308.635 33.686 305.621 31.249C303.213 29.3022 300.17 28.2351 297.127 27.6295C291.82 26.5912 286.037 26.9229 281.407 29.706C276.043 32.9362 272.812 39.2091 272.726 45.4531L272.711 45.4819Z" fill="white"/>
</g>
<defs>
<clipPath id="clip0_1066_2654">
<rect width="449" height="156" fill="white" transform="matrix(-1 0 0 1 449 0)"/>
</clipPath>
</defs>
</svg>
