<svg width="384" height="795" viewBox="0 0 384 795" fill="none" xmlns="http://www.w3.org/2000/svg">
<g style="mix-blend-mode:soft-light" opacity="0.4" clip-path="url(#clip0_2105_5226)">
<path d="M-177.03 985.125C-177.367 985.012 -177.725 984.893 -178.048 984.738C-180.654 983.706 -182.901 981.88 -184.551 979.457C-186.931 976.135 -187.872 971.935 -187.183 967.693C-186.516 963.585 -184.318 959.87 -180.982 957.237C-17.5821 832.472 37.4323 590.455 39.7015 580.209C41.486 571.487 49.731 565.785 58.1019 567.429C58.9867 567.584 59.9488 567.858 60.9881 568.321C67.7507 571.138 71.5423 578.582 70.0319 586.061C67.7978 596.693 13.4357 847.988 -162.858 982.71C-167.002 985.87 -172.234 986.747 -177.016 985.153L-177.03 985.125ZM58.4246 572.078C58.0243 571.945 57.6591 571.846 57.301 571.797C51.3458 570.631 45.3201 574.872 44.0555 581.052C41.7512 591.473 -13.6145 835.036 -178.264 960.742C-180.687 962.673 -182.324 965.404 -182.808 968.403C-183.3 971.493 -182.626 974.527 -180.906 976.95C-179.747 978.67 -178.202 979.935 -176.377 980.637C-172.767 982.098 -168.729 981.572 -165.562 979.163C9.44 845.438 63.4438 595.71 65.6779 585.148C66.7668 579.776 64.0846 574.41 59.2743 572.408C58.9653 572.282 58.6984 572.17 58.4246 572.078Z" fill="white"/>
<path d="M14.0298 543.886L8.24347 539.686C-2.99913 531.559 -12.1835 516.769 -18.9104 505.982C-26.5289 493.726 -32.6937 480.692 -37.2152 467.222C-46.7988 438.744 -49.3947 408.336 -44.7222 379.227C-44.392 377.324 -44.0618 375.772 -42.91 374.705C-41.5475 373.357 -39.6092 373.371 -37.2286 373.533C-29.8689 373.997 -22.3408 376.483 -15.473 380.74C-8.33128 385.158 -1.75859 391.493 4.09764 399.555C17.2004 417.618 23.849 440.787 22.3373 463.084C21.5779 474.207 18.8803 485.106 16.2529 495.654C15.6769 498.014 15.0727 500.387 14.5178 502.754C14.2368 503.948 13.9347 505.135 13.6256 506.342C12.3119 511.546 10.9631 516.925 10.7169 522.017L10.6536 523.26C10.3934 528.042 10.1472 532.993 11.6216 537.137L14.0298 543.886ZM-27.4957 379.938C-30.8243 378.828 -34.1811 378.154 -37.5098 377.957C-38.8863 377.873 -39.7079 377.88 -39.9537 377.985C-39.9888 378.09 -40.1504 378.785 -40.3542 379.958C-44.851 407.908 -42.2621 438.408 -33.0436 465.804C-28.6275 478.958 -22.6171 491.683 -15.1601 503.65C-9.62695 512.541 -2.35243 524.214 6.14432 532.22C5.89176 529.116 6.0746 525.97 6.22232 523.07L6.2786 521.848C6.53889 516.293 7.95794 510.703 9.31376 505.303C9.61584 504.116 9.9179 502.929 10.1919 501.756C10.7539 499.369 11.358 496.995 11.9411 494.614C14.5052 484.256 17.1607 473.554 17.906 462.823C19.3404 441.531 13.0077 419.451 0.501821 402.195C-5.01736 394.596 -11.1828 388.655 -17.8188 384.546C-20.9438 382.614 -24.2021 381.083 -27.5097 379.98L-27.4957 379.938Z" fill="white"/>
<path d="M87.5078 373.922L85.9909 373.416C85.8645 373.374 85.7171 373.325 85.5907 373.283L83.4207 372.559L84.0178 370.347L87.3052 361.26C94.5542 341.064 88.7822 334.364 84.1687 328.963C80.9948 325.353 77.0976 320.893 80.7359 314.124C84.3742 307.354 91.4884 303.991 98.4266 305.719C104.501 307.229 111.046 313.087 110.96 324.857C110.84 343.123 95.1352 363.824 94.2222 365.018L87.4657 373.908L87.5078 373.922ZM98.1102 310.249C97.8574 310.164 97.6257 310.087 97.3659 310.024C92.422 308.773 87.3304 311.266 84.6754 316.21C82.5894 320.079 84.2114 322.235 87.5188 326.007C92.1533 331.414 98.9997 339.386 92.481 359.919C96.5687 354.049 106.479 338.368 106.564 324.842C106.628 316.155 102.366 311.668 98.1313 310.256L98.1102 310.249Z" fill="white"/>
<path d="M99.5495 570.621C90.5748 567.628 89.4096 561.434 89.3534 561.111L89.2551 560.564L89.4307 560.037C89.5993 559.531 106.423 507.881 129.939 450.831C153.793 392.84 195.916 380.245 197.7 379.739L199.175 379.318L200.095 380.561C203.283 384.901 205.22 391.798 205.83 401.061C207.64 428.351 195.088 454.973 172.249 472.289C154.72 485.546 140.75 505.187 133.908 526.198C120.674 566.873 105.526 571.443 104.887 571.604L104.423 571.731L103.939 571.64C102.295 571.373 100.849 571.007 99.5636 570.579L99.5495 570.621ZM93.876 560.817C94.3464 562.074 96.3897 565.775 104.079 567.215C106.32 566.183 118.526 559.204 129.695 524.864C136.817 503.01 151.356 482.575 169.581 468.777C191.226 452.374 203.118 427.171 201.413 401.39C200.922 393.946 199.574 388.3 197.426 384.564C189.715 387.4 154.558 402.763 134.076 452.538C112.055 506.013 95.892 554.7 93.883 560.796L93.876 560.817Z" fill="white"/>
<path d="M77.8498 567.88L75.2868 565.247C71.9232 561.784 67.8573 559.164 63.2155 557.5C58.6509 556.095 53.6929 555.729 48.9947 556.48L45.3639 557.049L46.5299 553.551C46.9374 552.47 84.026 443.833 87.4141 404.885C88.4334 393.122 92.7954 381.444 100.044 371.149C113.915 351.522 125.679 340.673 135.026 338.897L136.248 338.673L137.091 339.586C143.516 346.644 146.394 362.375 145.697 386.371C145.337 398.963 141.846 410.908 135.567 420.964C114.883 454.144 79.3531 563.302 78.9878 564.397L77.8217 567.894L77.8498 567.88ZM134.597 343.553C126.662 345.87 115.986 356.263 103.66 373.713C96.8614 383.361 92.7733 394.288 91.8243 405.279C88.6822 441.382 58.2314 532.85 51.8673 551.726C56.1371 551.488 60.4771 552.022 64.6203 553.286C68.8198 554.803 72.5767 556.946 75.849 559.699C82.0727 540.752 112.622 449.341 131.789 418.604C137.633 409.222 140.892 398.042 141.244 386.244C141.864 365.219 139.513 350.155 134.618 343.56L134.597 343.553Z" fill="white"/>
<path d="M26.3403 546.211C25.0552 545.783 23.6788 545.207 22.2041 544.434L21.7617 544.216L21.4668 543.837C21.0595 543.303 11.6783 530.577 25.4812 490.093C32.6249 469.229 33.2379 445.135 27.1861 423.968C19.309 396.41 25.2455 367.583 43.0707 346.839C49.0967 339.789 54.7855 335.435 59.9191 333.87L61.401 333.427L62.3489 334.656C63.4724 336.131 89.6289 371.493 73.9072 432.195C58.4384 491.929 40.9196 543.347 40.751 543.853L40.5754 544.379L40.168 544.759C39.9574 544.969 35.301 549.246 26.3263 546.253L26.3403 546.211ZM24.7817 540.775C31.755 544.224 35.5824 542.504 36.7412 541.767C38.8064 535.643 55.11 487.026 69.6024 431.064C83.0902 378.957 64.188 345.57 59.701 338.666C55.7401 340.365 51.2734 344.073 46.4414 349.719C29.5994 369.339 23.9931 396.614 31.463 422.725C37.7465 444.742 37.1124 469.812 29.6876 491.519C18.0693 525.592 23.567 538.521 24.7817 540.775Z" fill="white"/>
<path d="M110.771 576.142L116.741 572.209C120.407 569.78 123.181 565.672 125.843 561.69L126.539 560.658C129.439 556.381 131.61 551.206 133.717 546.22C134.173 545.131 134.63 544.043 135.101 542.983C136.014 540.876 136.913 538.741 137.805 536.627C142.075 526.487 146.501 516.024 152.653 506.557C164.804 487.808 184.026 473.266 205.369 466.687C214.899 463.731 223.951 462.63 232.294 463.375C240.342 464.092 247.856 466.62 254.021 470.666C256.002 471.958 257.539 473.103 257.883 475.02C258.101 476.544 257.581 477.893 256.591 479.74C242.908 505.821 222.576 528.607 197.799 545.628C186.147 553.682 173.387 560.43 159.917 565.654C148.013 570.253 131.72 576.572 117.949 576.311L110.806 576.177L110.771 576.142ZM242.378 469.921C239.07 468.818 235.545 468.087 231.886 467.757C224.133 467.068 215.657 468.128 206.66 470.887C186.28 477.177 167.943 491.032 156.354 508.938C150.426 518.081 146.078 528.383 141.871 538.334C140.972 540.469 140.073 542.604 139.153 544.732C138.71 545.778 138.26 546.845 137.804 547.934C135.626 553.13 133.365 558.51 130.204 563.144L129.516 564.155C127.893 566.564 126.13 569.183 124.087 571.522C135.639 570.224 148.505 565.267 158.295 561.461C171.442 556.364 183.893 549.77 195.271 541.906C219.107 525.531 239.475 502.709 252.644 477.604C253.403 476.172 253.473 475.75 253.487 475.638C253.382 475.603 252.736 475.083 251.584 474.325C248.796 472.506 245.692 471.002 242.385 469.9L242.378 469.921Z" fill="white"/>
<path d="M158.231 397.573L156.026 396.745C155.794 396.667 155.619 396.632 155.45 396.576L154.011 396.049L153.941 384.953C153.927 384.715 153.621 357.691 164.682 342.769C171.657 333.296 180.344 332.517 186.193 334.983C192.773 337.715 196.439 344.696 195.286 352.294C194.148 359.851 188.368 361.107 183.705 362.104L183.207 359.948L183.677 362.118L183.635 362.104C176.704 363.655 168.087 365.558 161.736 386.078L158.231 397.573ZM183.7 338.81C179.445 337.391 173.363 338.43 168.222 345.424C160.257 356.182 158.718 374.701 158.422 381.906C165.524 361.59 175.784 359.322 182.659 357.799L182.758 357.785C187.645 356.746 190.216 355.988 190.862 351.662C191.712 346.093 189.114 341.037 184.444 339.105C184.192 339.021 183.946 338.915 183.693 338.831L183.7 338.81Z" fill="white"/>
</g>
<defs>
<clipPath id="clip0_2105_5226">
<rect width="318.124" height="731.696" fill="white" transform="translate(81.4399) rotate(18.4397)"/>
</clipPath>
</defs>
</svg>
