<svg width="40" height="40" viewBox="0 0 40 40" fill="none" xmlns="http://www.w3.org/2000/svg">
<path d="M6.6665 9.16668C6.6665 7.32573 8.15889 5.83334 9.99984 5.83334H29.9998C31.8408 5.83334 33.3332 7.32573 33.3332 9.16668V14.1667C33.3332 16.0076 31.8408 17.5 29.9998 17.5H9.99984C8.15889 17.5 6.6665 16.0076 6.6665 14.1667V9.16668Z" fill="black"/>
<path d="M6.6665 25.8333C6.6665 23.9924 8.15889 22.5 9.99984 22.5H29.9998C31.8408 22.5 33.3332 23.9924 33.3332 25.8333V30.8333C33.3332 32.6743 31.8408 34.1667 29.9998 34.1667H9.99984C8.15889 34.1667 6.6665 32.6743 6.6665 30.8333V25.8333Z" fill="black"/>
</svg>
