<svg width="51" height="50" viewBox="0 0 51 50" fill="none" xmlns="http://www.w3.org/2000/svg">
<g id="Button Next">
<path id="Vector" d="M25.5002 3.3362C28.3302 3.33147 31.1333 3.88573 33.7486 4.96716C36.3638 6.04858 38.7397 7.63587 40.7399 9.63792C49.1433 18.0414 49.1433 31.7138 40.7399 40.1172C36.6692 44.1879 31.2571 46.431 25.5002 46.431C19.7433 46.431 14.3313 44.1897 10.2606 40.1172C1.85713 31.7138 1.85713 18.0414 10.2606 9.63792C12.2608 7.63587 14.6367 6.04858 17.2519 4.96716C19.8672 3.88573 22.6702 3.33147 25.5002 3.3362ZM25.5002 42.9828C30.3364 42.9828 34.8813 41.1 38.302 37.6793C41.7227 34.2586 43.6037 29.7138 43.6037 24.8776C43.6037 20.0414 41.7209 15.4965 38.302 12.0759C31.2416 5.01896 19.7554 5.01896 12.6985 12.0759C9.27955 15.4965 7.39679 20.0431 7.39679 24.8776C7.39679 29.7121 9.27955 34.2586 12.6985 37.6793C16.1175 41.1 20.664 42.9828 25.5002 42.9828Z" fill="#4504AA"/>
<path id="Vector_2" d="M29.4623 15.2293C29.8036 15.2285 30.1374 15.3292 30.4214 15.5185C30.7054 15.7078 30.9268 15.9773 31.0574 16.2926C31.188 16.6079 31.222 16.955 31.155 17.2897C31.088 17.6243 30.9231 17.9316 30.6812 18.1724L23.9761 24.8776L30.6812 31.5827C30.8413 31.7428 30.9683 31.9328 31.0549 32.142C31.1415 32.3511 31.1861 32.5753 31.1861 32.8017C31.1861 33.0281 31.1415 33.2522 31.0549 33.4614C30.9683 33.6705 30.8413 33.8606 30.6812 34.0207C30.5211 34.1807 30.3311 34.3077 30.122 34.3944C29.9128 34.481 29.6886 34.5256 29.4623 34.5256C29.2359 34.5256 29.0117 34.481 28.8026 34.3944C28.5934 34.3077 28.4034 34.1807 28.2433 34.0207L20.3192 26.0965C20.1589 25.9365 20.0318 25.7465 19.945 25.5374C19.8583 25.3282 19.8136 25.104 19.8136 24.8776C19.8136 24.6511 19.8583 24.4269 19.945 24.2177C20.0318 24.0086 20.1589 23.8186 20.3192 23.6586L28.2433 15.7345C28.4032 15.5741 28.5932 15.4469 28.8024 15.3602C29.0116 15.2736 29.2358 15.229 29.4623 15.2293Z" fill="#4504AA"/>
</g>
</svg>
