<svg width="51" height="50" viewBox="0 0 51 50" fill="none" xmlns="http://www.w3.org/2000/svg">
<g id="Button Next">
<path id="Vector" d="M25.4998 46.6638C22.6698 46.6685 19.8667 46.1143 17.2514 45.0328C14.6362 43.9514 12.2603 42.3641 10.2601 40.3621C1.85666 31.9586 1.85666 18.2862 10.2601 9.88276C14.3308 5.81207 19.7429 3.56897 25.4998 3.56897C31.2567 3.56896 36.6687 5.81034 40.7394 9.88276C49.1429 18.2862 49.1429 31.9586 40.7394 40.3621C38.7392 42.3641 36.3633 43.9514 33.7481 45.0328C31.1329 46.1143 28.3298 46.6685 25.4998 46.6638ZM25.4998 7.01724C20.6636 7.01724 16.1187 8.9 12.698 12.3207C9.27735 15.7414 7.39632 20.2862 7.39632 25.1224C7.39632 29.9586 9.27908 34.5035 12.698 37.9241C19.7584 44.981 31.2446 44.981 38.3015 37.9241C41.7205 34.5034 43.6032 29.9569 43.6032 25.1224C43.6032 20.2879 41.7205 15.7414 38.3015 12.3207C34.8825 8.9 30.336 7.01724 25.4998 7.01724Z" fill="#4504AA"/>
<path id="Vector_2" d="M21.5377 34.7707C21.1964 34.7714 20.8626 34.6707 20.5786 34.4814C20.2946 34.2921 20.0732 34.0227 19.9426 33.7073C19.812 33.392 19.778 33.045 19.845 32.7103C19.912 32.3756 20.0769 32.0684 20.3188 31.8276L27.024 25.1224L20.3188 18.4172C20.1587 18.2571 20.0317 18.0671 19.9451 17.8579C19.8585 17.6488 19.8139 17.4246 19.8139 17.1982C19.8139 16.9719 19.8585 16.7477 19.9451 16.5385C20.0317 16.3294 20.1587 16.1394 20.3188 15.9793C20.4789 15.8192 20.6689 15.6922 20.878 15.6056C21.0872 15.519 21.3114 15.4744 21.5377 15.4744C21.7641 15.4744 21.9883 15.519 22.1974 15.6056C22.4066 15.6922 22.5966 15.8192 22.7567 15.9793L30.6808 23.9034C30.8411 24.0634 30.9682 24.2534 31.055 24.4626C31.1417 24.6717 31.1864 24.8959 31.1864 25.1224C31.1864 25.3488 31.1417 25.573 31.055 25.7822C30.9682 25.9914 30.8411 26.1814 30.6808 26.3413L22.7567 34.2655C22.5968 34.4258 22.4068 34.553 22.1976 34.6397C21.9884 34.7264 21.7642 34.7709 21.5377 34.7707Z" fill="#4504AA"/>
</g>
</svg>
