<svg width="328" height="537" viewBox="0 0 328 537" fill="none" xmlns="http://www.w3.org/2000/svg">
<path d="M262.124 293.474C262.124 293.474 262.499 293.73 262.636 293.826L263.42 292.896L262.124 293.506V293.474Z" fill="#4504AA" fill-opacity="0.3"/>
<path d="M320.609 235.223V235.287H320.677C320.677 235.287 320.677 235.223 320.609 235.223Z" fill="#4504AA" fill-opacity="0.3"/>
<path d="M255.88 236.088C255.88 236.088 255.743 236.216 255.675 236.28L256.323 236.633L255.88 236.088Z" fill="#4504AA" fill-opacity="0.3"/>
<path d="M320.609 235.223V235.287H320.677C320.677 235.287 320.677 235.223 320.609 235.223ZM262.601 293.828L263.386 292.898L262.09 293.507C262.09 293.507 262.465 293.764 262.601 293.86V293.828ZM255.641 236.313L256.289 236.665L255.845 236.12C255.845 236.12 255.709 236.249 255.641 236.313Z" fill="#4504AA" fill-opacity="0.3"/>
<path d="M192.14 306.555C187.841 308.094 183.746 309.6 179.72 311.203C141.094 327.714 137.886 346.277 135.293 361.249C133.348 372.373 131.403 383.69 115.195 386.8C112.397 387.345 109.599 387.602 106.801 387.602C93.016 387.602 80.8345 380.933 75.068 369.584L74.5561 368.494C71.3828 361.762 70.8369 354.067 72.85 346.629C75.3068 337.877 81.1758 329.766 90.2863 322.681C108.439 308.574 134.986 301.425 154.231 297.867L155.015 297.61L155.8 297.738C165.423 295.847 173.953 294.981 179.481 294.436H180.129L182.483 294.244H183.064C187.295 293.827 189.171 293.763 189.513 293.763L235.884 291.551L192.106 306.523L192.14 306.555Z" fill="#4504AA" fill-opacity="0.3"/>
<path d="M212.818 491.475C212.033 491.731 210.293 493.238 209.235 494.168C208.007 495.194 206.881 496.124 205.925 496.733C198.76 501.189 191.219 504.363 183.405 506.158C178.389 507.377 173.202 507.922 167.982 507.922C152.763 507.922 137.34 503.081 126.626 494.424C122.327 490.93 118.676 486.858 115.844 482.434C105.232 465.763 106.221 445.405 118.061 425.592C106.733 431.523 95.2339 434.569 84.315 434.569C74.8291 434.569 65.7186 432.357 57.5293 427.676C52.7864 425.047 48.4871 421.617 44.7678 417.545C32.4157 404.048 27.3998 382.6 32.2792 364.198C34.2241 356.856 37.6022 349.771 42.311 343.039C42.9593 342.173 43.9488 341.083 45.0407 339.929C45.962 338.903 47.634 337.3 47.907 336.562L54.7313 338.582C46.4739 362.851 47.8387 381.254 58.826 393.148C78.2754 414.243 122.566 409.819 130.755 408.793C131.54 408.665 131.983 408.601 132.051 408.601L136.999 407.799L136.146 412.448C136.146 412.448 136.078 412.929 135.941 413.666C134.849 421.296 130.141 462.974 152.593 481.248C165.218 491.571 184.735 492.854 210.6 485.095L212.818 491.507V491.475Z" fill="#4504AA" fill-opacity="0.3"/>
<path d="M56.0621 306.041C27.195 305.785 2.7297 291.614 0.30705 273.597C-2.55918 252.341 15.3889 235.895 45.962 231.791C63.7054 229.354 79.0602 233.073 90.3887 236.504C124.476 247.019 161.157 255.034 199.408 260.452C202.991 260.997 206.164 262.055 209.235 263.081C210.6 263.562 211.896 263.947 213.261 264.364L216.196 265.229L215.104 272.186L212.954 272.86C211.794 273.212 210.668 273.597 209.508 273.95C206.778 274.879 204.048 275.777 200.977 276.386C196.098 277.252 191.082 278.085 185.964 278.823C182.586 279.304 179.208 279.849 175.83 280.361C143.516 285.747 113.046 293.923 84.8268 301.938C75.5115 304.567 65.5138 306.041 56.6081 306.041H56.028H56.0621Z" fill="#4504AA" fill-opacity="0.3"/>
<path d="M183.166 339.609C183.439 334.094 186.817 329.157 192.003 326.721L259.326 294.821L262.124 293.475C262.124 293.475 262.499 293.731 262.636 293.827L260.759 296.264L254.719 304.086C229.31 337.086 216.583 353.608 216.537 353.651C213.534 357.562 208.655 359.87 203.468 359.87C202.684 359.87 201.899 359.806 201.114 359.742C191.628 358.46 182.654 348.489 183.166 339.641V339.609Z" fill="#4504AA" fill-opacity="0.3"/>
<path d="M395.608 466.468L394.448 466.949C390.081 468.713 385.338 469.642 380.458 469.642C377.387 469.642 374.282 469.226 371.279 468.552C361.862 466.244 353.331 460.73 345.79 452.17C330.777 435.114 323.099 410.172 319.38 392.09L319.005 391.353L319.141 390.551C317.128 381.446 316.207 373.559 315.695 368.302L315.627 367.821V367.757L315.422 365.545V365C314.978 360.96 314.91 359.261 314.91 358.876L312.556 315.371L328.491 356.504C330.129 360.543 331.8 364.39 333.507 368.109C351.011 404.401 370.836 407.414 386.703 409.851C398.543 411.678 410.588 413.57 413.898 428.798C417.344 444.86 410.008 459.96 395.608 466.501V466.468Z" fill="#4504AA" fill-opacity="0.3"/>
<path d="M322.485 452.107C326.205 462.751 330.163 477.177 327.569 493.849C323.475 520.554 308.052 537.001 287.681 537.001C286.18 537.001 284.61 536.873 283.006 536.744C263.898 534.436 248.782 511.449 248.543 484.359C248.475 475.863 250.045 466.277 252.911 457.333C261.441 430.819 270.142 402.094 275.807 371.765C276.455 368.655 276.967 365.481 277.513 362.34C278.298 357.563 279.082 352.818 280.106 348.169C280.686 345.348 281.676 342.719 282.631 340.154C283.075 339.064 283.484 338.006 283.859 336.916L284.576 334.897L291.98 333.967L292.833 336.66C293.277 337.942 293.755 339.225 294.267 340.443C295.358 343.328 296.484 346.374 296.996 349.74C302.797 385.679 311.362 420.143 322.485 452.171V452.107Z" fill="#4504AA" fill-opacity="0.3"/>
<path d="M319.312 145.007C323.099 126.925 330.709 101.918 345.79 84.8626C353.331 76.3026 361.862 70.7563 371.279 68.4801C379.093 66.5885 387.351 67.1977 394.448 70.0831L395.54 70.4998C410.042 77.04 417.344 92.2042 413.898 108.266C410.588 123.495 398.611 125.322 386.907 127.149C370.836 129.586 351.011 132.599 333.438 168.955C331.801 172.674 330.129 176.521 328.491 180.625L312.556 221.693L314.91 178.06C314.91 177.804 314.978 176.04 315.422 171.584L315.627 169.212V169.148L315.695 168.731C316.207 163.473 317.128 155.522 319.141 146.481L319.073 146L319.278 144.975L319.312 145.007Z" fill="#4504AA" fill-opacity="0.3"/>
<path d="M255.879 236.088C255.879 236.088 255.743 236.216 255.675 236.28L252.228 234.677L184.906 202.778C179.754 200.277 176.376 195.372 176.068 189.825C175.557 180.977 184.531 171.07 194.017 169.788C200.056 168.987 205.993 171.327 209.508 175.911C209.508 175.911 210.02 176.585 215.104 183.125C220.12 189.665 229.674 202.008 247.622 225.348L253.662 233.17L255.879 236.055V236.088Z" fill="#4504AA" fill-opacity="0.3"/>
<path d="M254.003 84.9261C250.284 74.2823 246.325 59.8554 248.919 43.1844C253.354 14.4589 270.722 -2.40451 293.482 0.288507C312.59 2.59681 327.706 25.5836 327.945 52.6741C328.013 61.1699 326.443 70.7557 323.577 79.7004C315.047 106.214 306.346 134.939 300.681 165.204C300.033 168.378 299.521 171.551 298.975 174.725C298.191 179.438 297.406 184.151 296.382 188.832C295.802 191.717 294.812 194.346 293.789 196.847C293.413 197.937 293.004 198.995 292.629 200.085L291.912 202.104L284.508 203.13L283.655 200.373C283.211 199.155 282.733 197.872 282.222 196.59C281.13 193.705 280.004 190.723 279.492 187.357C273.691 151.482 265.127 116.954 254.003 84.9261Z" fill="#4504AA" fill-opacity="0.3"/>
<path d="M396.564 342.172C397.007 351.021 388.102 360.927 378.547 362.21C377.763 362.338 376.978 362.402 376.193 362.402C371.041 362.402 366.161 360.03 363.056 356.054C363.056 356.054 362.476 355.381 357.46 348.841C352.444 342.301 342.958 329.958 324.942 306.618L316.241 295.365L387.726 329.22C392.879 331.721 396.257 336.626 396.564 342.172Z" fill="#4504AA" fill-opacity="0.3"/>
<path d="M205.209 68.4469C214.626 70.7552 223.157 76.2695 230.698 84.8294C245.779 101.885 253.389 126.828 257.108 144.909L257.381 145.647L257.313 146.384C259.258 155.361 260.247 163.376 260.759 168.698L260.827 169.179V169.243L261.032 171.455V172.064C261.475 175.911 261.544 177.674 261.544 178.059L263.83 221.628L247.963 180.496C246.325 176.456 244.653 172.609 242.947 168.89C225.443 132.534 205.618 129.521 189.751 127.084C177.843 125.257 165.866 123.429 162.556 108.201C159.11 92.139 166.446 76.9748 180.846 70.4987L182.006 70.0178C189.171 67.0363 197.361 66.5233 205.174 68.4149L205.209 68.4469Z" fill="#4504AA" fill-opacity="0.3"/>
<path d="M320.677 235.285C320.677 235.285 320.677 235.221 320.609 235.221L329.31 224.033C354.81 190.947 367.628 174.34 367.765 174.212C371.006 170.044 376.944 167.672 382.915 168.473C392.469 169.755 401.375 179.662 400.931 188.51C400.658 194.025 397.28 199.026 392.094 201.462L320.677 235.318V235.285Z" fill="#4504AA" fill-opacity="0.3"/>
<path d="M263.42 292.866L262.124 293.475C260.759 292.449 259.462 291.391 258.234 290.237C257.722 289.756 257.313 289.307 256.801 288.826C249.976 281.741 245.745 272.252 245.745 261.928C245.745 252.214 249.396 243.237 255.641 236.313L256.289 236.665L255.845 236.12C256.118 235.703 256.425 235.383 256.767 235.03C257.21 234.485 257.688 234.004 258.2 233.555C265.945 226.214 276.728 221.693 288.568 221.693C301.261 221.693 312.761 226.951 320.574 235.255V235.319H320.643C327.331 242.404 331.425 251.765 331.425 261.96C331.425 284.146 312.18 302.163 288.568 302.163C278.809 302.163 269.767 299.118 262.601 293.86L263.386 292.93L263.42 292.866Z" fill="#4504AA" fill-opacity="0.3"/>
<path d="M257.108 392.027C253.389 410.108 245.779 435.051 230.698 452.171C223.157 460.731 214.626 466.277 205.209 468.489C202.206 469.226 199.101 469.643 196.03 469.643C191.15 469.643 186.407 468.713 182.04 466.95L180.948 466.469C166.446 459.929 159.144 444.829 162.59 428.767C165.9 413.539 177.945 411.647 189.581 409.884C205.652 407.383 225.477 404.37 243.05 368.014C244.688 364.359 246.36 360.544 247.997 356.408L263.864 315.34L261.578 358.973C261.578 359.326 261.51 360.993 260.998 365.449L260.861 367.757V367.822L260.793 368.302C260.281 373.56 259.292 381.575 257.347 390.616V390.969L257.142 392.059L257.108 392.027Z" fill="#4504AA" fill-opacity="0.3"/>
<path d="M192.208 230.893L235.918 245.801L189.478 243.589C189.205 243.589 187.329 243.525 182.586 243.108L180.129 242.916L179.993 242.98L179.481 242.916C173.953 242.371 165.422 241.505 155.8 239.613L155.425 239.678L154.265 239.485C135.02 235.991 108.405 228.777 90.2521 214.671C81.1416 207.586 75.2385 199.571 72.8159 190.722C70.8027 183.381 71.3828 175.622 74.522 168.954L74.9656 167.928C81.9264 154.303 98.066 147.346 115.161 150.68C131.369 153.79 133.314 165.043 135.259 175.975C137.852 191.139 141.06 209.766 179.754 226.212C183.712 227.815 187.806 229.386 192.174 230.925L192.208 230.893Z" fill="#4504AA" fill-opacity="0.3"/>
<path d="M32.3134 174.116C27.4339 155.713 32.4499 134.265 44.802 120.768C48.5212 116.729 52.8547 113.298 57.5635 110.637C75.3069 100.667 96.9742 101.597 118.061 112.721C106.221 92.9084 105.198 72.4543 115.844 55.8794C118.642 51.4231 122.293 47.3836 126.626 43.8891C140.991 32.2835 163.819 27.5707 183.405 32.1552C191.219 33.9826 198.76 37.1566 205.925 41.5808C206.846 42.1899 208.007 43.1197 209.235 44.1456C210.327 45.0753 212.033 46.5821 212.818 46.8386L210.6 53.2505C184.77 45.4921 165.252 46.7745 152.593 57.0977C130.141 75.3717 134.849 117.049 135.941 124.68C136.078 125.417 136.146 125.834 136.146 125.898L136.999 130.546L132.051 129.745C132.051 129.745 131.54 129.681 130.755 129.553C122.566 128.527 78.2755 124.102 58.826 145.198C47.8388 157.124 46.4739 175.462 54.7314 199.763L47.907 201.783C47.6341 201.11 46.0303 199.411 45.0408 198.417C43.9489 197.327 42.9594 196.269 42.3111 195.307C37.5681 188.639 34.1901 181.489 32.2792 174.148L32.3134 174.116Z" fill="#4504AA" fill-opacity="0.3"/>
</svg>
