<svg width="180" height="257" viewBox="0 0 180 257" fill="none" xmlns="http://www.w3.org/2000/svg">
<g clip-path="url(#clip0_375_571)">
<path d="M62.4901 73.8C59.0901 69.7 55.7601 65.49 52.8401 61.03C50.8401 57.97 49.0001 54.79 47.3801 51.49C44.8901 50.63 42.3901 49.86 39.8601 50.35C35.1701 51.25 31.3501 53.35 27.3601 55.92C26.2601 56.63 25.1601 57.34 24.0601 58.05C30.9601 59.1 35.2701 64.85 39.9401 69.46C42.7201 72.21 45.6601 75.06 49.4001 76.21C54.3801 77.74 59.8201 75.99 64.9601 76.64C64.1101 75.71 63.2901 74.76 62.4901 73.8Z" fill="#4504AA"/>
<path d="M82.42 75.31C80.49 70.84 78.65 66.31 77.4 61.59C76.24 57.23 75.67 52.73 75.25 48.24C75.21 47.84 75.18 47.44 75.14 47.04C68.14 50.87 60.52 54.33 52.73 53.06C52.48 53.02 52.23 52.97 51.98 52.92C53.74 56.17 55.7 59.32 57.85 62.33C60.9 66.62 64.22 70.85 67.81 74.7C71.31 78.45 75.28 81.86 79.96 84.05C82.14 85.07 84.67 85.84 86.65 87.23C86.93 87.27 87.21 87.28 87.49 87.3C85.93 83.25 84.14 79.3 82.42 75.31Z" fill="#4504AA"/>
<path d="M91.75 86.96C95.1 83.53 97.54 79.19 100.35 75.32C102.95 71.74 105.41 68.04 107.27 64.01C109.13 59.99 110.32 55.63 111.17 51.29C111.77 48.24 112.15 45.16 112.39 42.07C108.9 40.16 105.3 38.62 101.36 38.18C93.25 37.29 85.53 41.24 78.35 45.25C78.69 51.37 79.64 57.51 81.43 63.25C83.99 71.49 88.05 79.16 91.1 87.22C91.26 87.2 91.42 87.17 91.59 87.15C91.64 87.08 91.69 87.01 91.75 86.95V86.96Z" fill="#4504AA"/>
<path d="M114.46 76.78C117.61 74.02 120.34 70.82 122.89 67.51C125.35 64.32 127.82 61.14 130.12 57.83C131.35 56.06 132.53 54.24 133.63 52.37C133.52 52.35 133.41 52.34 133.3 52.32C126.87 51.23 121.32 47.38 115.66 43.96C114.91 52.02 113.14 60.13 109.45 67.33C107.35 71.43 104.69 75.2 101.94 78.89C100.3 81.09 98.86 83.44 97.25 85.66C98.48 85.19 99.69 84.65 100.86 84.07C105.13 81.93 109.17 79.26 113.6 77.52C113.89 77.28 114.19 77.04 114.47 76.79L114.46 76.78Z" fill="#4504AA"/>
<path d="M150.72 59.18C150.35 57.1 148.48 55.2 146.76 54.28C145.32 53.51 143.72 53.13 142.11 52.97C141.68 52.93 137.5 52.48 137.37 52.72C133.81 59.2 129.12 65.1 124.56 70.88C123.29 72.49 121.96 74.06 120.57 75.57C124.48 74.74 128.41 73.99 131.64 71.72C134.68 69.57 136.72 66.31 139.34 63.68C141.17 61.84 143.55 60.22 146.17 59.86C147.7 59.65 149.28 60.29 150.76 60.35C150.81 59.96 150.79 59.57 150.72 59.19V59.18Z" fill="#4504AA"/>
<path d="M26.41 38.1799C31.21 39.0099 36.13 38.8199 40.98 38.7899C44.85 38.7599 48.87 39.2399 52.75 38.8299C50.07 36.7399 47.86 34.1799 46.15 31.0899C43.63 26.5299 41.69 21.6699 39.06 17.1699C36.88 18.9199 35.05 21.1999 32.94 23.0699C27.77 27.7099 20.91 29.7799 14.59 32.6299C14.14 32.8399 13.68 33.0599 13.23 33.2799C17.35 35.5999 21.73 37.3799 26.41 38.1799Z" fill="#4504AA"/>
<path d="M56.97 41.5499C56.89 41.5099 56.81 41.4599 56.73 41.4099C56.55 41.5599 56.31 41.6899 56.02 41.7499C51.09 42.8499 45.98 42.1699 40.98 42.1999C35.81 42.2299 30.62 42.3499 25.51 41.4699C19.87 40.4999 14.64 38.1599 9.77002 35.1799C5.31002 37.9199 1.44002 41.5699 0.0200195 46.4799C8.12002 42.7499 18.71 45.7199 23.69 53.0899C23.96 53.4999 24.2 53.9199 24.45 54.3299L25.62 53.5699C29.96 50.7899 33.84 48.7599 38.58 47.8399C41.63 47.2499 44.51 48.2799 47.32 49.2599C48.88 49.7999 50.37 50.3099 51.86 50.5499C57.65 51.5399 63.44 49.6899 69.04 46.9899C65.1 45.0199 60.92 43.5699 57 41.5299L56.97 41.5499Z" fill="#4504AA"/>
<path d="M56.53 14.5699C51.67 14.8499 46.54 13.3999 42.07 15.3099C42.03 15.3299 42 15.3499 41.96 15.3599C44.58 19.8199 46.51 24.6499 48.99 29.1899C50.23 31.4499 51.73 33.3299 53.47 34.9299C53.6 28.0399 54.58 21.1699 56.52 14.5699H56.53Z" fill="#4504AA"/>
<path d="M72 21.64C73.01 17.43 74.4 13.32 75.69 9.19998C76.07 7.99998 76.44 6.79998 76.83 5.59998C76.12 5.66998 75.41 5.77998 74.71 5.96998C69.38 7.36998 65.48 12.19 60.28 13.9C57.84 21.51 56.77 29.55 56.88 37.54C57.92 38.2 59.02 38.8 60.19 39.35C63.89 41.09 67.73 42.49 71.35 44.38C69.26 37.01 70.25 28.99 72.01 21.65L72 21.64Z" fill="#4504AA"/>
<path d="M105.69 36.64C102.02 33.87 98.48 30.91 95.37 27.5C92.25 24.08 89.7 20.23 87.46 16.19C85.64 12.91 84.11 9.50002 82.82 6.01002C82.01 5.85002 81.2 5.72001 80.4 5.64001C79.98 6.95001 79.56 8.26001 79.15 9.58001C77.9 13.58 76.55 17.57 75.52 21.64C73.7 28.84 72.62 36.72 74.79 43.96C75 43.84 75.21 43.73 75.42 43.61C82.89 39.44 91.33 34.68 100.41 35.7C102.51 35.93 104.5 36.47 106.44 37.19C106.19 37.01 105.95 36.82 105.7 36.64H105.69Z" fill="#4504AA"/>
<path d="M122.25 15.47C118.96 13.6 116.29 10.83 114.76 7.34C114.1 5.82 113.67 4.23 113.42 2.62C113.22 2.69 113.01 2.76 112.8 2.83C107.26 4.93 101.94 8.22 96.01 8.39C92.92 8.47 89.84 7.7 86.79 6.93C89.79 14.37 94.04 21.46 99.73 27.1C102.92 30.26 106.46 32.99 110.07 35.65C112.8 37.67 116.14 38.75 118.81 40.83C119.98 37.56 122.26 34.67 124.73 32.28C127.72 29.39 131.09 26.91 134.63 24.69C133.35 19.64 126.31 17.79 122.24 15.47H122.25Z" fill="#4504AA"/>
<path d="M151.57 6.36998C141.28 0.0799789 128.34 -1.62002 116.71 1.56998C116.95 3.47998 117.47 5.34998 118.42 7.06998C120.2 10.26 123 12.1 126.18 13.68C130.62 15.89 135.92 18.22 137.67 22.86C141.76 20.52 146.03 18.45 150.22 16.48C153.27 15.05 156.37 13.63 159.5 12.3C157.01 10.12 154.4 8.08998 151.57 6.36998Z" fill="#4504AA"/>
<path d="M136.35 32.81C141.12 33.13 145.82 34.2 150.6 34.44C155.13 34.67 159.1 33.86 163.03 31.57C166.32 29.66 169.29 27.26 172.32 24.96C170.62 23 168.8 21.14 167 19.37C165.46 17.85 163.9 16.33 162.32 14.85C158.52 16.4 154.77 18.1 151.08 19.84C147.45 21.55 143.62 23.25 140.28 25.43C138.47 26.61 136.66 27.8 134.85 28.98C133.08 30.14 130.89 31.19 129.36 32.63C129.71 33.09 132.01 32.63 132.71 32.63C133.93 32.63 135.15 32.8 136.37 32.8L136.35 32.81Z" fill="#4504AA"/>
<path d="M170.67 53.04C171.8 53.68 172.97 54.23 174.16 54.74C174.96 54.39 175.75 54.06 176.54 53.7C176.88 52.73 177.22 51.76 177.56 50.79C178.58 47.94 179.59 45.03 179.76 41.98C180.02 36.69 177.71 31.93 174.46 27.62C171.56 29.85 168.68 32.13 165.57 34.05C161.95 36.28 158.15 37.62 153.95 37.87C159.21 43.29 163.99 49.3 170.68 53.05L170.67 53.04Z" fill="#4504AA"/>
<path d="M169.36 56.21C165.41 54.06 161.98 51.1 158.8 47.94C157.2 46.35 155.67 44.7 154.13 43.05C153.07 41.91 151.75 40.99 150.85 39.7C150.34 38.96 150.34 38.61 149.56 38.23C148.65 37.79 147.37 37.68 146.38 37.48C141.27 36.42 135.94 35.85 130.76 36.63C128.98 36.9 126.93 36.95 125.2 37.37C123.8 37.71 122.95 39.75 122.37 41.04C122.15 41.53 120.81 45.06 121.41 45.41C124.96 47.46 128.5 49.17 132.41 49.83C134.02 50.12 135.63 50.2 137.36 50.29C139.56 50.39 141.85 50.51 144.09 51.07C147.4 51.92 150.98 54.26 152.17 57.64C152.38 57.07 152.89 56.64 153.7 56.7C156.8 56.94 159.89 57.38 163 57.43C165.41 57.47 167.64 57.15 169.85 56.45C169.68 56.36 169.51 56.29 169.34 56.2L169.36 56.21Z" fill="#4504AA"/>
<path d="M68.8501 164.4C68.5501 166.6 68.1401 168.8 67.7201 170.97C67.3001 173.25 66.7701 175.5 65.9201 177.66C65.8401 177.86 65.7601 178.04 65.6601 178.23C63.9401 180.21 62.6101 182.53 61.0501 184.67C60.6301 185.24 60.1801 185.82 59.6801 186.35C59.9201 184.86 60.0401 183.34 60.2701 181.84C60.7101 179.35 61.0601 176.81 61.0601 174.28C61.0601 169.8 59.8901 165.37 58.2301 161.21C61.8701 161.47 65.5801 161.96 69.0201 160.87C69.0801 160.85 69.1401 160.83 69.2001 160.81C69.1201 162.02 69.0001 163.21 68.8401 164.39L68.8501 164.4Z" fill="#4504AA"/>
<path d="M59.1701 173.2C59.2701 175.64 58.9901 178.09 58.6201 180.51C58.2001 183.12 58.1101 185.86 57.3101 188.39C57.2901 188.45 57.2901 188.49 57.2901 188.53C57.2101 188.59 57.1301 188.65 57.0501 188.69C53.5301 185.5 49.6001 182.75 46.2601 179.34C43.9401 176.96 41.9201 174.17 40.2201 171.26C42.7301 167.48 45.5301 163.58 49.7401 161.97C51.8001 161.2 53.9601 161.06 56.1601 161.12C56.8101 162.68 57.4101 164.31 57.8801 165.95C58.5501 168.31 59.0701 170.74 59.1701 173.2Z" fill="#4504AA"/>
<path d="M79.6401 160.42C78.8901 160.78 77.9601 160.86 77.2401 161.35C76.0501 162.18 75.2801 163.59 74.8401 164.95C74.2101 166.89 74.0301 169.01 73.0801 170.83C72.0701 172.77 70.3301 174.14 68.6001 175.52C68.9201 174.43 69.1701 173.32 69.3901 172.21C70.1601 168.21 70.9901 164.13 71.1101 160.05C71.1101 159.89 73.2901 159.06 73.5101 158.96C74.3401 158.64 75.2301 158.43 76.1201 158.45C77.2101 158.47 78.6001 158.93 79.3101 159.86C79.4301 160.04 79.5501 160.22 79.6301 160.41L79.6401 160.42Z" fill="#4504AA"/>
<path d="M39.5901 189.29C40.2401 189.55 40.8801 189.8 41.5301 190.06C38.8401 191.03 36.6001 193.27 33.7701 193.76C31.6301 194.14 29.4701 193.46 27.4101 192.81C23.9401 191.72 20.3801 189.98 16.7201 191.21C17.1001 190.58 17.4501 189.96 17.8101 189.33C19.1401 187.05 20.4801 185.07 22.5601 183.45C23.6901 182.56 25.1101 182.32 26.5401 182.1C28.1601 183.33 29.8901 184.44 31.6301 185.43C34.2001 186.9 36.9001 188.12 39.5901 189.29Z" fill="#4504AA"/>
<path d="M49.78 185.02C51.62 186.54 53.5 188.03 55.28 189.63C55.14 189.69 55 189.75 54.86 189.81C53.53 189.61 52.09 189.89 50.76 189.93C47.91 190.03 45.1 189.36 42.42 188.39C39.69 187.4 36.99 186.15 34.4 184.83C32.6 183.88 30.84 182.83 29.15 181.66C29.29 181.64 29.43 181.6 29.55 181.54C33.71 180.21 36.58 176.59 39.07 172.95C39.19 173.13 39.31 173.33 39.43 173.5C40.76 175.6 42.16 177.68 43.85 179.54C45.65 181.54 47.69 183.3 49.77 185.02H49.78Z" fill="#4504AA"/>
<path d="M12.87 180.85C15.44 180.05 17.81 178.72 20.19 177.48C22.09 176.49 24.18 175.72 25.99 174.53C24.15 174.18 22.41 173.47 20.79 172.38C18.4 170.77 16.22 168.87 13.8 167.31C13.17 168.72 12.84 170.3 12.28 171.75C10.9 175.33 8.05002 178.08 5.66002 181.08C5.49002 181.3 5.32002 181.52 5.15002 181.74C7.76002 181.84 10.37 181.62 12.87 180.83V180.85Z" fill="#4504AA"/>
<path d="M28.7601 174.81C28.7101 174.81 28.6601 174.81 28.6101 174.81C28.5601 174.93 28.4801 175.05 28.3501 175.16C26.2001 176.94 23.5201 177.9 21.0601 179.17C18.5201 180.49 16.0001 181.85 13.2601 182.71C10.2401 183.65 7.08005 183.82 3.93005 183.58C2.42005 186.05 1.44005 188.82 1.98005 191.6C5.03005 187.72 10.9901 186.52 15.2901 188.89C15.5301 189.03 15.7501 189.17 15.9801 189.31L16.3701 188.64C17.8101 186.18 19.2101 184.2 21.3001 182.56C22.6501 181.5 24.3301 181.28 25.9501 181.06C26.8501 180.93 27.7101 180.81 28.5101 180.55C31.6101 179.58 33.9901 177.21 36.0701 174.47C33.6401 174.49 31.2101 174.83 28.7701 174.82L28.7601 174.81Z" fill="#4504AA"/>
<path d="M21.75 161.65C19.43 163.01 16.54 163.59 14.82 165.66C14.81 165.68 14.8 165.7 14.78 165.71C17.19 167.24 19.36 169.14 21.72 170.74C22.9 171.54 24.11 172.09 25.37 172.44C23.7 169.02 22.45 165.39 21.74 161.65H21.75Z" fill="#4504AA"/>
<path d="M31.14 161.23C30.58 158.9 30.23 156.53 29.82 154.18C29.7 153.49 29.59 152.81 29.47 152.12C29.14 152.33 28.82 152.57 28.52 152.84C26.25 154.87 25.55 158.22 23.42 160.38C24.14 164.74 25.64 168.96 27.7 172.87C28.38 172.93 29.07 172.95 29.78 172.93C32.04 172.86 34.28 172.58 36.54 172.59C33.66 169.49 32.12 165.29 31.14 161.24V161.23Z" fill="#4504AA"/>
<path d="M51.5001 160.13C49.0001 159.69 46.5101 159.13 44.1201 158.23C41.7201 157.33 39.5001 156.08 37.3801 154.66C35.6601 153.5 34.0501 152.21 32.5301 150.82C32.0901 150.95 31.6601 151.09 31.2401 151.25C31.3601 152 31.4901 152.75 31.6201 153.5C32.0101 155.78 32.3501 158.09 32.8701 160.35C33.7901 164.35 35.2401 168.5 38.1301 171.51C38.2001 171.4 38.2801 171.29 38.3501 171.18C40.9701 167.25 43.9301 162.78 48.6501 161C49.7401 160.58 50.8601 160.35 51.9901 160.22C51.8201 160.19 51.6501 160.16 51.4901 160.13H51.5001Z" fill="#4504AA"/>
<path d="M54.3101 145.54C52.2201 145.45 50.2101 144.76 48.5801 143.43C47.8701 142.85 47.2601 142.18 46.7301 141.45C46.6501 141.54 46.5601 141.62 46.4801 141.71C44.2801 144.14 42.5001 147.1 39.6201 148.67C38.1201 149.49 36.4101 149.88 34.7101 150.28C38.0601 153.19 41.9301 155.6 46.1501 156.94C48.5201 157.69 50.9501 158.14 53.3901 158.54C55.2401 158.84 57.1601 158.54 59.0001 158.89C58.7501 156.99 59.1501 154.99 59.7601 153.19C60.5001 151.01 61.5401 148.95 62.7201 146.96C60.8201 144.8 56.8901 145.66 54.3001 145.54H54.3101Z" fill="#4504AA"/>
<path d="M66.4501 133.68C59.8001 133.18 53.0101 135.6 48.0901 140.1C48.6901 140.98 49.4101 141.77 50.3201 142.37C52.0001 143.49 53.8401 143.69 55.8001 143.67C58.5401 143.64 61.7301 143.45 63.7601 145.29C65.1801 143.11 66.7601 141.01 68.3301 138.99C69.4701 137.52 70.6401 136.04 71.8401 134.6C70.0601 134.16 68.2701 133.82 66.4401 133.68H66.4501Z" fill="#4504AA"/>
<path d="M65.6101 150.52C68.0401 149.47 70.6201 148.82 73.0301 147.73C75.3201 146.7 77.0701 145.3 78.4201 143.19C79.5601 141.42 80.4201 139.49 81.3201 137.6C79.9901 137.06 78.6201 136.61 77.3001 136.19C76.1601 135.83 75.0101 135.47 73.8601 135.14C72.3801 136.86 70.9601 138.64 69.5801 140.42C68.2301 142.17 66.7701 143.97 65.6701 145.89C65.0801 146.93 64.4901 147.97 63.8901 149C63.3101 150.01 62.5001 151.09 62.1101 152.18C62.4001 152.32 63.4201 151.51 63.7601 151.34C64.3601 151.03 65.0001 150.81 65.6001 150.5L65.6101 150.52Z" fill="#4504AA"/>
<path d="M87.59 151.83C88.31 151.86 89.02 151.83 89.73 151.79C90.03 151.42 90.34 151.05 90.64 150.68C90.56 150.12 90.49 149.55 90.41 148.99C90.2 147.33 89.96 145.65 89.27 144.1C88.07 141.43 85.73 139.67 83.04 138.37C82.17 140.2 81.33 142.05 80.28 143.77C79.06 145.78 77.53 147.4 75.52 148.57C79.47 149.91 83.34 151.66 87.57 151.83H87.59Z" fill="#4504AA"/>
<path d="M87.7501 153.72C85.2701 153.66 82.8301 153.07 80.4701 152.31C79.2801 151.93 78.1101 151.51 76.9401 151.08C76.1301 150.79 75.2501 150.67 74.4901 150.26C74.0501 150.03 73.9601 149.85 73.4801 149.86C72.9201 149.87 72.2601 150.14 71.7301 150.29C68.9501 151.05 66.1801 152.12 63.8301 153.8C63.0201 154.38 62.0201 154.92 61.2801 155.56C60.6801 156.08 60.7701 157.3 60.8101 158.08C60.8301 158.37 61.0501 160.45 61.4401 160.47C63.7001 160.59 65.8801 160.53 67.9601 159.87C68.8301 159.61 69.6401 159.24 70.5101 158.85C71.6201 158.34 72.7701 157.83 74.0201 157.54C75.8601 157.13 78.2101 157.38 79.6501 158.74C79.6101 158.41 79.7501 158.07 80.1701 157.89C81.7501 157.23 83.3901 156.67 84.9301 155.91C86.1301 155.32 87.1401 154.6 88.0601 153.7C87.9501 153.7 87.8501 153.7 87.7501 153.7V153.72Z" fill="#4504AA"/>
<path d="M111.72 250.76C111.23 254.63 108.81 256.27 106.53 256.27C106.3 256.27 106.08 256.26 105.87 256.22C104.03 255.96 102.27 254.61 101.53 252.35C101.19 252.04 100.9 251.64 100.72 251.12C99.9001 248.77 99.1301 246.34 98.3901 244C97.4901 241.18 96.5601 238.26 95.5501 235.47C94.0001 231.22 92.1401 227.04 90.0301 223.03C84.8401 213.2 77.5101 204.57 70.4301 196.22L64.4701 189.2C64.3601 189.07 64.2201 188.91 64.0501 188.74C63.1701 187.83 61.8501 186.44 62.2001 185.16C62.3901 184.47 63.0101 183.97 64.0501 183.66C65.7001 183.16 67.1401 184.46 68.1001 185.31C68.2301 185.43 68.3601 185.55 68.4801 185.64C69.9501 186.87 71.3301 188.24 72.4901 189.43C81.0901 198.1 88.4301 207.29 94.2901 216.75C97.5501 221.99 100.4 227.41 102.82 232.92C103.45 227.11 104.09 221.11 104.55 215.25C105.3 205.92 105.63 196.41 105.56 186.96C105.37 163.81 101.92 140.87 98.5701 118.68L95.7801 100.1C95.7201 99.7599 95.6401 99.3199 95.5401 98.8199C95.0501 96.1899 94.3101 92.1999 95.7701 90.5699C96.39 89.8799 97.3001 89.6999 98.4901 90.0499C100.66 90.6799 101.53 94.1599 102.16 96.6899C102.24 97.0499 102.33 97.3799 102.41 97.6899C103.41 101.37 104.2 105.17 104.87 108.42C109.79 132.53 112.9 156.42 114.13 179.42C115.42 203.82 114.62 227.82 111.72 250.77V250.76Z" fill="#4504AA"/>
</g>
<defs>
<clipPath id="clip0_375_571">
<rect width="179.78" height="256.27" fill="white"/>
</clipPath>
</defs>
</svg>
