<svg width="306" height="486" viewBox="0 0 306 486" fill="none" xmlns="http://www.w3.org/2000/svg">
<path d="M85.6885 143.729C81.372 135.801 77.2081 127.713 73.8085 119.344C71.4817 113.604 69.4605 107.716 67.8449 101.702C63.9819 99.4559 60.0729 97.3563 55.7012 97.3403C47.6 97.297 40.5539 99.5329 33.0709 102.494C31.0074 103.313 28.9439 104.132 26.8804 104.95C38.0215 108.959 43.3123 119.927 49.5756 129.119C53.3022 134.6 57.2624 140.3 63.111 143.438C70.899 147.614 80.527 146.491 88.8696 149.258C87.7594 147.434 86.7056 145.586 85.6885 143.729Z" fill="#4504AA" fill-opacity="0.3"/>
<path d="M118.367 152.776C116.619 144.715 115.04 136.585 114.505 128.332C114.002 120.707 114.527 113.043 115.299 105.445C115.363 104.767 115.444 104.093 115.509 103.415C102.603 107.482 88.7862 110.731 76.2357 106.065C75.8327 105.917 75.4329 105.751 75.0332 105.586C76.8983 111.564 79.129 117.441 81.7218 123.147C85.3935 131.276 89.5342 139.394 94.2488 146.969C98.8464 154.348 104.338 161.316 111.41 166.491C114.705 168.901 118.664 171.01 121.504 173.969C121.957 174.128 122.42 174.236 122.879 174.361C121.609 167.12 119.923 159.97 118.367 152.776Z" fill="#4504AA" fill-opacity="0.3"/>
<path d="M130.081 175.195C136.781 170.595 142.263 164.184 148.208 158.676C153.708 153.581 159.015 148.24 163.431 142.154C167.843 136.085 171.252 129.231 174.088 122.299C176.086 117.428 177.727 112.435 179.138 107.379C173.955 103.061 168.467 99.3209 162.053 97.2971C148.846 93.1575 134.702 97.1878 121.438 101.495C119.999 111.775 119.57 122.289 120.669 132.413C122.231 146.945 126.477 161.021 128.914 175.414C129.187 175.433 129.463 175.435 129.753 175.458C129.859 175.358 129.965 175.258 130.084 175.178L130.081 175.195Z" fill="#4504AA" fill-opacity="0.3"/>
<path d="M171.216 165.731C177.363 162.179 182.955 157.758 188.284 153.095C193.423 148.601 198.576 144.128 203.488 139.383C206.115 136.846 208.675 134.209 211.119 131.462C210.942 131.393 210.763 131.34 210.586 131.271C200.24 127.35 192.263 119.132 183.962 111.593C180.074 124.739 174.472 137.633 165.972 148.386C161.134 154.509 155.471 159.901 149.685 165.13C146.235 168.247 143.069 171.679 139.662 174.84C141.863 174.462 144.054 173.962 146.191 173.382C154 171.227 161.599 168.116 169.542 166.679C170.103 166.375 170.681 166.075 171.229 165.751L171.216 165.731Z" fill="#4504AA" fill-opacity="0.3"/>
<path d="M237.335 148.385C237.4 144.807 234.91 141.037 232.348 138.944C230.203 137.192 227.665 136.036 225.037 135.242C224.335 135.034 217.525 132.915 217.23 133.271C209.182 142.87 199.443 151.134 189.96 159.242C187.319 161.5 184.591 163.673 181.782 165.726C188.562 165.629 195.349 165.673 201.469 162.961C207.233 160.386 211.697 155.638 216.919 152.128C220.568 149.671 225.06 147.76 229.539 148.022C232.154 148.175 234.574 149.757 237.018 150.342C237.229 149.71 237.324 149.056 237.331 148.401L237.335 148.385Z" fill="#4504AA" fill-opacity="0.3"/>
<path d="M37.2996 72.7062C45.0173 75.6601 53.2688 76.9587 61.3514 78.5001C67.8028 79.7199 74.3369 81.8364 80.9294 82.4282C77.1531 78.0762 74.313 73.0976 72.4787 67.4023C69.7777 58.9988 68.1403 50.2872 65.2365 41.9473C61.0347 44.1398 57.242 47.3277 53.1174 49.7425C42.9924 55.7559 30.896 56.9446 19.443 59.6065C18.6252 59.8078 17.7875 60.0224 16.9664 60.2403C23.0643 65.4469 29.7718 69.8415 37.2996 72.7062Z" fill="#4504AA" fill-opacity="0.3"/>
<path d="M87.0627 88.3315C86.9426 88.2388 86.8258 88.1295 86.709 88.0201C86.3603 88.2103 85.9183 88.3476 85.4159 88.3521C76.8497 88.5623 68.5669 85.7559 60.2346 84.1653C51.6193 82.5189 42.9413 81.0155 34.724 77.8768C25.654 74.4146 17.7151 68.8107 10.585 62.2614C2.26397 65.3508 -5.37304 70.1457 -9.34471 77.8381C5.35929 74.298 22.0135 82.7073 27.8889 96.5869C28.204 97.3567 28.466 98.1333 28.7478 98.8966L30.9442 98.0177C39.0786 94.8225 46.2016 92.7225 54.3926 92.749C59.6626 92.7694 64.1189 95.4257 68.4752 97.976C70.8949 99.3851 73.208 100.721 75.6095 101.609C84.9227 105.154 95.166 103.979 105.371 101.33C99.4585 96.7645 92.9758 92.9838 87.1192 88.3081L87.0627 88.3315Z" fill="#4504AA" fill-opacity="0.3"/>
<path d="M95.1668 43.3585C86.9857 42.2293 78.9217 38.1369 70.8559 39.8439C70.7828 39.864 70.7263 39.8874 70.6564 39.8909C73.5567 48.161 75.1873 56.8195 77.8283 65.1767C79.1521 69.3386 81.0331 72.9545 83.4053 76.1839C85.8782 64.7784 89.7594 53.685 95.1502 43.3553L95.1668 43.3585Z" fill="#4504AA" fill-opacity="0.3"/>
<path d="M118.601 60.181C121.661 53.5173 125.321 47.1443 128.817 40.7219C129.843 38.8528 130.851 36.9803 131.894 35.1144C130.689 34.9977 129.471 34.9476 128.244 35.0336C118.914 35.611 110.843 42.3402 101.628 43.4753C95.0742 55.3192 90.66 68.3271 88.2263 81.639C89.7412 83.0768 91.3756 84.4347 93.1429 85.7324C98.7317 89.8375 104.665 93.4235 110.071 97.7515C109.006 84.8202 113.281 71.8193 118.614 60.2009L118.601 60.181Z" fill="#4504AA" fill-opacity="0.3"/>
<path d="M169.765 96.1588C164.563 90.3522 159.641 84.2725 155.581 77.5863C151.508 70.8801 148.524 63.6465 146.119 56.1989C144.164 50.1518 142.734 43.9839 141.73 37.7619C140.434 37.2303 139.128 36.7485 137.823 36.3531C136.695 38.3919 135.567 40.4308 134.452 42.4895C131.061 48.7256 127.507 54.9123 124.46 61.3369C119.072 72.703 114.694 85.4417 115.935 98.1833C116.324 98.0528 116.709 97.9389 117.098 97.8085C130.897 93.3306 146.505 88.1907 161.284 92.8646C164.704 93.9358 167.84 95.4859 170.833 97.3187C170.476 96.9376 170.139 96.5432 169.782 96.1621L169.765 96.1588Z" fill="#4504AA" fill-opacity="0.3"/>
<path d="M204.262 66.4168C199.399 62.2303 195.862 56.7517 194.458 50.4509C193.857 47.7088 193.662 44.9259 193.773 42.1688C193.418 42.2194 193.045 42.2669 192.673 42.3143C182.764 43.9859 172.831 47.707 162.905 46.0438C157.735 45.1629 152.861 42.873 148.036 40.5929C150.593 53.9392 155.345 67.114 162.969 78.352C167.244 84.6492 172.242 90.3467 177.38 95.9508C181.262 100.203 186.468 103.093 190.231 107.425C193.249 102.376 197.991 98.3219 202.885 95.1612C208.808 91.3403 215.23 88.3253 221.849 85.7981C221.372 76.9873 210.26 71.6037 204.246 66.4135L204.262 66.4168Z" fill="#4504AA" fill-opacity="0.3"/>
<path d="M256.046 60.9162C240.978 47.0889 219.996 40.0188 199.594 41.5034C199.367 44.7557 199.621 48.0334 200.638 51.203C202.556 57.0874 206.614 61.0633 211.39 64.7319C218.057 69.8607 226.115 75.471 227.508 83.7548C235.083 81.2086 242.868 79.1702 250.487 77.2716C256.032 75.8963 261.657 74.5539 267.303 73.371C263.872 68.9319 260.193 64.7026 256.046 60.9162Z" fill="#4504AA" fill-opacity="0.3"/>
<path d="M222.052 99.8537C229.887 101.95 237.36 105.27 245.238 107.237C252.702 109.106 259.576 109.062 266.867 106.547C272.969 104.453 278.698 101.439 284.495 98.6119C282.307 94.7975 279.887 91.1099 277.471 87.5784C275.405 84.5476 273.307 81.5102 271.161 78.5327C264.329 79.8613 257.53 81.4556 250.818 83.1361C244.216 84.7864 237.284 86.3544 231.011 88.8808C227.612 90.2476 224.209 91.631 220.81 92.9978C217.484 94.3444 213.495 95.3705 210.477 97.2612C210.909 98.1404 214.888 98.1307 216.053 98.3603C218.083 98.7606 220.058 99.4433 222.089 99.8436L222.052 99.8537Z" fill="#4504AA" fill-opacity="0.3"/>
<path d="M272.552 144.728C274.223 146.162 275.991 147.46 277.805 148.698C279.251 148.379 280.674 148.09 282.107 147.751C282.99 146.251 283.874 144.751 284.757 143.25C287.389 138.85 290.023 134.346 291.305 129.334C293.47 120.63 291.184 111.963 287.186 103.735C281.629 106.489 276.088 109.332 270.283 111.502C263.527 114.02 256.763 114.999 249.69 114.037C256.67 124.768 262.658 136.322 272.566 144.748L272.552 144.728Z" fill="#4504AA" fill-opacity="0.3"/>
<path d="M269.333 149.564C263.463 144.696 258.723 138.652 254.465 132.358C252.323 129.191 250.316 125.948 248.293 122.701C246.902 120.459 245.007 118.497 243.931 116.059C243.324 114.662 243.439 114.08 242.265 113.193C240.895 112.163 238.8 111.561 237.218 110.904C229.059 107.466 220.374 104.77 211.497 104.366C208.446 104.231 205.017 103.641 202 103.772C199.558 103.877 197.475 106.988 196.087 108.941C195.561 109.683 192.174 115.109 193.058 115.887C198.296 120.458 203.628 124.461 209.92 126.84C212.505 127.85 215.159 128.511 218.009 129.229C221.638 130.117 225.41 131.067 228.955 132.733C234.186 135.231 239.379 140.294 240.252 146.3C240.789 145.422 241.778 144.875 243.107 145.24C248.188 146.656 253.188 148.401 258.348 149.504C262.346 150.362 266.163 150.562 270.07 150.124C269.817 149.918 269.557 149.746 269.303 149.541L269.333 149.564Z" fill="#4504AA" fill-opacity="0.3"/>
<path d="M66.6017 296.352C65.3818 299.909 63.9789 303.43 62.5691 306.897C61.1232 310.548 59.5041 314.113 57.3819 317.423C57.1832 317.729 56.9911 318.001 56.7625 318.284C53.2511 321.01 50.2774 324.428 46.98 327.472C46.0942 328.282 45.1552 329.098 44.1494 329.814C45.0369 327.417 45.7344 324.931 46.6085 322.514C48.1564 318.521 49.5709 314.416 50.3995 310.212C51.8667 302.768 51.3702 295.024 49.9696 287.567C55.9432 289.193 61.9579 291.225 68.0408 290.542C68.1472 290.529 68.2536 290.515 68.36 290.502C67.8306 292.486 67.2411 294.424 66.5883 296.332L66.6017 296.352Z" fill="#4504AA" fill-opacity="0.3"/>
<path d="M47.6073 307.798C46.9746 311.885 45.7062 315.864 44.2977 319.763C42.7438 323.962 41.6966 328.485 39.5364 332.426C39.4835 332.52 39.4704 332.586 39.4573 332.653C39.3045 332.726 39.1517 332.799 39.0054 332.84C34.1912 326.384 28.5504 320.526 24.1078 313.764C21.0257 309.048 18.5772 303.75 16.7006 298.357C22.1165 292.9 28.0544 287.338 35.5892 286.045C39.2702 285.441 42.9113 285.917 46.5536 286.739C47.1246 289.544 47.5894 292.449 47.8346 295.328C48.1769 299.469 48.2466 303.677 47.6073 307.798Z" fill="#4504AA" fill-opacity="0.3"/>
<path d="M85.8651 293.278C84.4988 293.631 82.9247 293.458 81.5657 294.036C79.3132 295.025 77.5697 297.115 76.3919 299.23C74.7079 302.247 73.714 305.711 71.5366 308.423C69.2201 311.315 65.8752 313.02 62.5437 314.746C63.4333 313.04 64.213 311.277 64.9427 309.505C67.5344 303.112 70.2522 296.605 71.7882 289.865C71.8406 289.599 75.741 288.935 76.14 288.841C77.6263 288.582 79.1765 288.525 80.6513 288.85C82.4591 289.241 84.622 290.462 85.4992 292.24C85.64 292.578 85.7808 292.917 85.8517 293.259L85.8651 293.278Z" fill="#4504AA" fill-opacity="0.3"/>
<path d="M9.74699 328.108C10.7438 328.754 11.7271 329.379 12.7239 330.024C7.92874 330.753 3.46665 333.74 -1.40434 333.626C-5.0908 333.555 -8.46339 331.717 -11.6794 329.961C-17.0982 327.011 -22.4539 322.952 -28.9487 323.795C-28.1099 322.873 -27.3243 321.958 -26.5187 321.029C-23.5582 317.677 -20.6793 314.827 -16.6866 312.817C-14.5142 311.709 -12.0721 311.776 -9.61979 311.88C-7.32616 314.455 -4.81013 316.867 -2.23815 319.083C1.55814 322.369 5.6527 325.282 9.74699 328.108Z" fill="#4504AA" fill-opacity="0.3"/>
<path d="M28.1065 324.357C30.6714 327.486 33.3126 330.579 35.7514 333.821C35.4987 333.875 35.246 333.929 34.9934 333.982C32.8451 333.214 30.3565 333.206 28.1296 332.836C23.3531 332.068 18.8953 330.032 14.7522 327.541C10.5323 325.001 6.44761 322.038 2.5689 318.995C-0.116042 316.826 -2.70166 314.504 -5.13146 312.005C-4.89188 312.018 -4.64575 311.998 -4.42636 311.937C2.93352 311.092 8.89621 306.019 14.2329 300.788C14.3737 301.126 14.508 301.498 14.652 301.82C16.178 305.745 17.8271 309.661 20.0309 313.306C22.3719 317.219 25.1911 320.813 28.0899 324.353L28.1065 324.357Z" fill="#4504AA" fill-opacity="0.3"/>
<path d="M-3.53715 300.496C-3.62038 300.48 -3.7036 300.463 -3.78683 300.447C-3.90935 300.63 -4.08182 300.803 -4.33423 300.943C-8.49586 303.195 -13.2711 303.911 -17.7817 305.214C-22.4418 306.574 -27.0818 308.007 -31.9241 308.537C-37.2587 309.108 -42.5742 308.354 -47.7388 306.921C-51.0611 310.53 -53.5995 314.811 -53.6112 319.607C-47.2637 314.161 -36.9503 314.123 -30.5692 319.471C-30.2156 319.783 -29.8953 320.088 -29.5583 320.396L-28.6897 319.41C-25.4872 315.795 -22.5084 312.965 -18.4925 310.926C-15.8983 309.607 -13.0299 309.793 -10.2613 309.959C-8.72071 310.038 -7.24995 310.121 -5.83321 309.951C-0.355599 309.357 4.38209 306.2 8.74162 302.33C4.69036 301.566 0.534295 301.333 -3.52379 300.516L-3.53715 300.496Z" fill="#4504AA" fill-opacity="0.3"/>
<path d="M4.87207 278.713C4.70306 274.657 4.8967 270.605 4.98392 266.566C5.01016 265.38 5.04978 264.214 5.07602 263.028C4.45796 263.269 3.84673 263.562 3.25895 263.913C-1.1843 266.541 -3.44662 271.877 -7.69941 274.767C-7.92894 282.248 -6.81431 289.752 -4.66605 296.925C-3.55384 297.247 -2.41189 297.507 -1.22356 297.707C2.56112 298.332 6.38128 298.602 10.1398 299.36C6.36131 293.264 5.17355 285.78 4.86879 278.729L4.87207 278.713Z" fill="#4504AA" fill-opacity="0.3"/>
<path d="M39.1214 283.565C35.1043 282.014 31.1431 280.267 27.4598 277.987C23.7597 275.704 20.474 272.899 17.4103 269.844C14.9273 267.352 12.67 264.681 10.5952 261.872C9.82024 261.944 9.05866 262.036 8.30717 262.164C8.26127 263.449 8.23202 264.738 8.20277 266.027C8.10519 269.943 7.91455 273.893 8.03991 277.819C8.26118 284.767 9.31551 292.138 13.1401 298.087C13.2926 297.928 13.4618 297.771 13.6143 297.611C19.2624 291.941 25.6533 285.485 34.0927 284.076C36.0445 283.736 37.9841 283.721 39.9075 283.876C39.6344 283.77 39.3613 283.665 39.1048 283.562L39.1214 283.565Z" fill="#4504AA" fill-opacity="0.3"/>
<path d="M48.577 260.244C45.1277 259.409 42.008 257.603 39.7305 254.858C38.7387 253.661 37.9428 252.348 37.2997 250.961C37.137 251.085 36.961 251.188 36.7984 251.311C32.3406 254.627 28.4084 258.961 23.1005 260.625C20.3352 261.495 17.3612 261.582 14.4005 261.689C19.0235 267.623 24.6758 272.897 31.2611 276.508C34.9603 278.532 38.8576 280.077 42.7879 281.542C45.769 282.648 49.0631 282.779 52.0111 283.964C52.2173 280.725 53.5381 277.534 55.1429 274.743C57.0887 271.364 59.4944 268.282 62.1103 265.363C59.6552 261.15 52.832 261.29 48.5603 260.241L48.577 260.244Z" fill="#4504AA" fill-opacity="0.3"/>
<path d="M72.6682 244.522C61.7631 241.509 49.6686 243.303 40.0055 249.165C40.716 250.824 41.6557 252.373 42.9739 253.669C45.4034 256.081 48.4006 257.017 51.6695 257.627C56.2401 258.476 61.612 259.207 64.3883 262.93C67.4659 259.774 70.7835 256.803 74.0584 253.962C76.4373 251.893 78.8695 249.818 81.3385 247.819C78.5198 246.504 75.6518 245.352 72.6516 244.519L72.6682 244.522Z" fill="#4504AA" fill-opacity="0.3"/>
<path d="M65.7549 272.226C70.1435 271.279 74.6507 271.046 79.0191 270.025C83.1682 269.065 86.5395 267.313 89.4777 264.25C91.9549 261.683 94.0184 258.759 96.1355 255.914C94.0986 254.58 91.9656 253.383 89.906 252.252C88.1264 251.28 86.3302 250.304 84.5241 249.379C81.4973 251.751 78.5508 254.242 75.6708 256.747C72.8506 259.212 69.8309 261.724 67.3711 264.553C66.0485 266.088 64.7258 267.622 63.3898 269.137C62.0936 270.624 60.3916 272.153 59.3855 273.836C59.8223 274.164 61.7854 273.153 62.407 272.982C63.5072 272.664 64.6445 272.508 65.7448 272.19L65.7549 272.226Z" fill="#4504AA" fill-opacity="0.3"/>
<path d="M101.911 281.616C103.1 281.902 104.292 282.085 105.486 282.251C106.107 281.735 106.744 281.222 107.365 280.706C107.415 279.749 107.485 278.779 107.535 277.822C107.729 274.995 107.88 272.125 107.239 269.323C106.116 264.493 102.798 260.801 98.7462 257.758C96.6988 260.513 94.6947 263.312 92.3836 265.825C89.6947 268.765 86.6174 270.954 82.8886 272.239C89.0245 275.761 94.8929 279.939 101.878 281.609L101.911 281.616Z" fill="#4504AA" fill-opacity="0.3"/>
<path d="M101.559 284.808C97.4503 283.894 93.5822 282.113 89.9029 280.076C88.0467 279.055 86.2368 277.973 84.4301 276.875C83.1769 276.127 81.7514 275.639 80.6207 274.708C79.9636 274.182 79.8728 273.853 79.0706 273.712C78.1352 273.545 76.9482 273.777 76.0169 273.853C71.1407 274.203 66.1796 275.072 61.7178 277.093C60.1796 277.791 58.3383 278.36 56.8969 279.18C55.7279 279.848 55.4782 281.904 55.2893 283.213C55.2276 283.702 54.9126 287.23 55.5552 287.391C59.2776 288.332 62.9258 288.948 66.6041 288.533C68.1374 288.387 69.6068 288.038 71.1827 287.675C73.1973 287.192 75.2785 286.722 77.4541 286.65C80.651 286.573 84.4807 287.759 86.4321 290.491C86.4736 289.93 86.818 289.411 87.5761 289.249C90.4221 288.671 93.3353 288.279 96.1475 287.521C98.3381 286.935 100.255 286.07 102.081 284.876C101.898 284.84 101.732 284.807 101.565 284.774L101.559 284.808Z" fill="#4504AA" fill-opacity="0.3"/>
<path d="M109.674 453.91C107.591 460.179 103.026 462.11 99.231 461.362C98.8482 461.287 98.4853 461.198 98.1488 461.063C95.1713 460.027 92.6839 457.207 92.1924 453.209C91.728 452.582 91.3763 451.822 91.247 450.899C90.6518 446.725 90.166 442.435 89.7006 438.304C89.1262 433.324 88.5346 428.167 87.7672 423.2C86.5792 415.629 84.8522 408.074 82.6535 400.719C77.2342 382.683 67.86 365.939 58.8101 349.742L51.1889 336.122C51.0484 335.87 50.8678 335.558 50.6405 335.22C49.4738 333.419 47.7319 330.677 48.7337 328.665C49.2759 327.581 50.4717 326.953 52.3043 326.78C55.2144 326.49 57.1855 329.123 58.505 330.85C58.6821 331.092 58.8592 331.334 59.0295 331.523C61.0734 334.049 62.9217 336.778 64.4628 339.136C75.9379 356.363 85.1454 374.041 91.801 391.682C95.5111 401.458 98.4797 411.399 100.703 421.348C103.655 411.901 106.685 402.142 109.37 392.556C113.674 377.3 117.338 361.606 120.316 345.882C127.582 307.354 129.353 268.106 131.044 230.137L132.486 198.35C132.497 197.766 132.508 197.008 132.505 196.145C132.551 191.614 132.626 184.742 135.59 182.512C136.848 181.569 138.422 181.569 140.288 182.541C143.694 184.3 144.002 190.367 144.222 194.778C144.237 195.402 144.279 195.98 144.31 196.521C144.77 202.964 144.84 209.537 144.891 215.157C145.184 256.831 142.536 297.546 137.051 336.165C131.206 377.131 122.014 416.745 109.671 453.927L109.674 453.91Z" fill="#4504AA" fill-opacity="0.3"/>
</svg>
