<svg width="600" height="184" viewBox="0 0 600 184" fill="none" xmlns="http://www.w3.org/2000/svg">
<g clip-path="url(#clip0_594_1980)">
<path d="M2.94889 132.991C3.04524 105.913 22.8757 83.4447 49.3162 71.2834C54.5581 68.8682 60.0504 66.8612 65.061 64.0888C69.0888 61.8436 75.6604 57.7445 76.7011 53.2882C77.7803 48.6619 73.9645 43.5253 69.6477 41.3141C63.3652 38.0825 56.3889 39.035 50.1256 41.8924C45.963 43.7974 42.3014 46.4337 38.8325 49.2062C16.9786 66.6401 -0.866878 91.2516 0.0388842 118.057C0.250871 124.146 1.34935 130.202 3.33432 136.036" fill="#4504AA"/>
<path d="M9.01959 156.072L8.98105 155.528C6.74555 124.623 34.0148 98.2082 64.3096 86.1661C96.6473 73.3075 134.265 76.8963 167.046 86.7444C196.127 95.4698 223.358 108.515 251.937 118.449C269.609 124.589 288.226 129.589 307.189 129.623C326.21 129.691 345.828 124.232 358.991 112.121C372.134 100.011 377.183 80.6042 368.318 65.7556C361.188 53.8666 345.52 46.3827 330.295 47.6754C325.092 48.1346 319.021 49.9035 313.606 52.744C314.917 52.8801 316.208 53.2883 317.383 53.8496C321.7 55.8566 324.552 59.7005 326.133 63.7996C328.407 69.5826 328.33 76.1309 325.477 81.7268C322.587 87.2886 316.805 91.7449 310.002 93.0036C303.604 94.2622 298.266 93.1396 294.007 90.6394C292.62 89.8059 291.328 88.8364 290.172 87.7649C283.62 81.5397 280.767 71.4195 282.078 62.7961C284.313 47.3862 296.165 32.8608 312.623 26.9248C336.327 18.4375 365.928 27.7072 379.881 46.6889C395.607 68.0688 390.635 95.2317 373.406 114.4C357.044 132.583 329.91 140.951 304.221 141.104C275.718 141.325 248.102 132.838 221.45 123.891C194.816 114.911 167.952 105.284 139.565 103.005C89.6132 98.9736 38.0618 119.928 9.01959 156.055V156.072Z" fill="#4504AA"/>
<path d="M329.679 3.70791C329.929 1.76892 332.049 0.323185 334.208 0.0850634C336.366 -0.204084 338.563 0.442246 340.567 1.19063C347.119 3.6739 352.978 7.51786 357.796 12.1102C360.243 14.4064 362.402 16.8896 364.31 19.509C365.292 20.8357 366.179 22.1964 367.046 23.5741C367.663 24.5095 369.32 26.5506 369.166 27.5201C368.106 26.5846 367.335 25.2239 366.352 24.1694C365.293 23.0638 364.155 22.0093 362.98 21.0398C360.667 19.1348 358.046 17.4509 355.329 16.0052C349.702 13.0627 343.516 11.0387 337.214 9.45685C335.46 9.03163 333.668 8.58941 332.203 7.68795C330.7 6.75247 329.563 5.2387 329.717 3.65689L329.679 3.70791Z" fill="#4504AA"/>
<path d="M277.799 165.41C245.674 162.756 214.608 154.235 183.504 146.836C145.385 137.821 103.989 132.072 64.656 136.954C59.9345 137.566 55.2515 138.315 50.6456 139.318C49.6628 139.539 45.8856 141.002 46.0397 139.284C46.1168 138.383 51.8983 136.376 52.8811 135.95C62.17 131.851 71.9021 128.552 81.9041 126.068C100.675 121.476 120.351 119.809 139.757 121.221C141.068 121.323 142.397 121.442 143.746 121.578C181.769 125.167 214.955 141.376 251.32 150.357C268.587 154.592 286.337 157.688 304.259 157.586C341.145 157.364 376.084 140.985 393.351 111.594C403.373 94.6024 406.822 74.1069 401.947 55.3463C421.738 88.8024 405.203 128.773 370.804 148.639C343.804 164.236 309.886 168.046 277.799 165.427V165.41Z" fill="#4504AA"/>
<path d="M278.031 88.2241C280.189 88.1221 282.059 89.6188 282.193 91.5238C282.27 93.4628 280.613 95.0786 278.416 95.1977C276.258 95.2997 274.388 93.8029 274.311 91.898C274.196 89.959 275.853 88.3432 278.05 88.2241H278.031Z" fill="#4504AA"/>
<path d="M534.342 67.5245C533.687 65.4835 535.036 63.3914 537.31 62.8131C539.584 62.2348 541.993 63.4254 542.648 65.4325C543.304 67.4395 541.955 69.5316 539.681 70.1098C537.407 70.6881 534.998 69.5316 534.342 67.5245Z" fill="#4504AA"/>
<path d="M511.448 64.1738C510.503 61.1973 512.469 58.0677 515.842 57.2343C519.214 56.3668 522.76 58.1017 523.743 61.1122C524.687 64.0888 522.721 67.1843 519.349 68.0518C515.976 68.9192 512.43 67.1503 511.448 64.1738Z" fill="#4504AA"/>
<path d="M260.725 74.9233C259.588 71.1133 259.145 67.1673 259.338 63.2043C259.704 55.4483 262.594 47.7434 267.393 41.2461C281.808 21.7371 310.465 13.675 335.807 16.0902C336.616 16.1583 337.349 16.1923 338.081 16.4134C321.392 16.3113 306.534 17.7401 292.754 27.2309C292.061 27.6902 291.367 28.2004 290.712 28.7107C275.487 40.2085 264.811 60.3638 273.194 77.4746C274.138 79.4136 275.352 81.6417 274.292 83.5467C273.02 85.8429 269.089 85.9959 266.757 84.4482C263.828 82.5092 261.631 77.9848 260.687 74.9233H260.725Z" fill="#4504AA"/>
<path d="M371.691 17.604C369.128 14.5935 368.183 10.0522 370.804 7.04162C372.924 4.62638 376.798 3.84398 380.17 4.42228C383.543 5.00057 386.568 6.68443 389.324 8.48735C421.488 29.289 429.351 67.2013 423.088 100.232C419.754 117.921 409.289 135.457 391.444 144.081C405.782 132.872 415.668 117.343 419.06 100.742C425.054 71.2324 409.694 41.3822 381.673 24.7307C378.089 22.6046 374.254 20.6656 371.691 17.621V17.604Z" fill="#4504AA"/>
<path d="M449.856 97.851L449.817 97.885C452.265 91.3877 457.834 86.132 463.134 81.3866C468.761 76.386 474.87 71.8277 481.384 67.7967C486.395 64.7011 494.585 59.4624 500.444 63.7996C502.313 65.2453 502.313 67.8307 501.253 69.7356C500.27 71.5726 498.401 72.9333 496.358 73.8688C494.315 74.8382 492.08 75.4165 489.883 76.0289C484.949 77.4236 480.228 79.2265 475.545 81.0974C472.982 82.135 470.419 83.2916 467.971 84.5502C465.659 85.7748 463.404 87.0675 461.245 88.4622C459.01 89.9079 456.851 91.4387 454.809 93.0546C452.901 94.5683 451.34 96.0311 449.837 97.834L449.856 97.851Z" fill="#4504AA"/>
<path d="M598.69 148.061C596.936 151.445 592.619 154.065 588.515 153.129C585.585 152.449 583.427 150.119 582.367 147.567C580.498 142.975 580.902 137.175 580.093 132.328C579.149 126.766 577.857 121.221 575.853 115.863C572.307 106.338 566.372 97.2897 557.526 90.9625C550.203 85.7578 541.164 82.6283 531.837 81.3356C526.672 80.6212 521.411 80.4681 516.169 80.6893C512.007 80.9104 507.863 81.3356 503.797 81.9819C486.819 84.6353 466.256 90.4352 453.363 100.93C459.993 95.5038 468.376 91.0646 476.451 87.4417C490.21 81.2676 505.531 77.8148 520.949 77.4916C536.212 77.1685 550.704 80.8764 563.616 88.1221C582.752 98.9056 596.223 117.19 599.576 137.039C600.193 140.747 600.463 144.659 598.728 148.078L598.69 148.061Z" fill="#4504AA"/>
<path d="M445.79 140.968C445.905 140.934 445.982 140.883 446.117 140.815C433.032 158.232 426.672 163.641 412.296 170.733C397.148 178.183 377.723 183.592 360.34 183.966C351.475 184.17 362.922 183.371 366.063 182.605C373.483 180.751 380.748 178.472 387.802 175.819C401.947 170.461 415.264 163.471 427.347 155.051C430.546 152.857 433.61 150.51 436.636 148.095C439.777 145.577 442.147 142.89 445.809 140.968H445.79Z" fill="#4504AA"/>
<path d="M568.106 139.25C566.931 157.943 548.604 175.087 527.598 177.486C511.756 179.289 495.067 172.995 485.624 161.634C480.248 155.136 477.164 146.649 479.804 138.961C482.329 131.63 490.269 126.017 498.902 125.405C507.536 124.793 516.362 129.215 520.236 136.087C524.071 142.958 522.645 151.82 516.825 157.5C529.409 156.106 538.158 143.843 536.212 132.804C534.266 121.765 523.474 112.972 511.255 110.063C499.037 107.189 485.798 109.485 474.408 114.298C462.999 119.146 453.075 126.307 443.458 133.552C421.797 149.932 398.228 165.614 371.094 174.339C346.002 182.384 319.908 182.707 294.99 174.237C304.607 177.503 320.525 175.275 330.45 174.169C342.745 172.808 354.886 169.968 366.314 165.716C377.222 161.685 386.626 157.552 395.299 150.544C396.281 149.762 397.245 148.928 398.228 148.129C406.977 140.9 415.457 133.365 424.283 126.136C437.677 115.132 452.053 104.723 468.55 97.7149C485.046 90.7074 503.971 87.2206 521.932 90.5713C546.811 95.1636 569.533 115.863 568.106 139.233V139.25Z" fill="#4504AA"/>
<path d="M289.728 100.266C288.302 100.334 287.127 99.3648 287.05 98.1402C286.973 96.8815 288.071 95.81 289.497 95.776C290.885 95.7079 292.099 96.6774 292.176 97.902C292.214 99.1607 291.155 100.198 289.728 100.266Z" fill="#4504AA"/>
<path d="M235.575 53.6454C235.691 61.0102 231.875 68.2389 225.997 73.4776C217.73 80.8083 207.15 84.0059 195.548 82.4581C187.242 81.3526 179.418 78.4271 171.44 76.0969C130.796 64.2418 84.7562 67.4735 46.8876 85.1455C41.2603 87.7989 35.9799 90.7924 31.085 94.3812C35.0356 90.2141 39.7186 87.5608 44.1511 85.2136C49.1231 82.5602 54.2493 80.111 59.549 77.9168C77.9148 70.2629 98.0728 65.6706 117.98 62.3199C138.543 58.9011 159.877 59.3093 180.247 63.5445C185.585 64.6501 190.865 66.0278 196.377 66.0958C201.831 66.1638 207.612 64.7351 211.197 61.0952C214.704 57.5404 214.974 52.1827 211.929 48.4748C211.775 49.4783 211.486 50.4478 210.985 51.3833C209.077 54.9381 204.587 57.1662 200.116 57.2343C196.242 57.3363 191.964 56.0096 189.208 53.5264C188.957 53.3053 188.765 53.1352 188.553 52.9141C188.476 52.812 188.341 52.6929 188.225 52.5909C187.416 51.6214 186.799 50.5499 186.433 49.3252C185.122 44.7669 187.57 39.7323 191.598 36.8579C194.816 34.5617 198.882 33.303 202.949 32.5887C210.04 31.364 217.768 31.7552 223.954 35.0379C231.124 38.8479 235.44 46.2467 235.556 53.6114L235.575 53.6454Z" fill="#4504AA"/>
</g>
<defs>
<clipPath id="clip0_594_1980">
<rect width="600" height="184" fill="white"/>
</clipPath>
</defs>
</svg>
