<svg width="602" height="184" viewBox="0 0 602 184" fill="none" xmlns="http://www.w3.org/2000/svg">
<g clip-path="url(#clip0_594_1998)">
<path d="M599.041 132.991C598.945 105.913 579.048 83.4447 552.519 71.2834C547.26 68.8682 541.749 66.8612 536.722 64.0888C532.681 61.8436 526.087 57.7445 525.043 53.2882C523.96 48.6619 527.789 43.5253 532.12 41.3141C538.424 38.0825 545.423 39.035 551.707 41.8924C555.884 43.7974 559.558 46.4337 563.038 49.2062C584.965 66.6401 602.87 91.2516 601.961 118.057C601.748 124.146 600.646 130.202 598.655 136.036" fill="#4504AA"/>
<path d="M592.951 156.072L592.989 155.528C595.232 124.623 567.872 98.2082 537.476 86.1661C505.031 73.3075 467.287 76.8963 434.397 86.7444C405.22 95.4698 377.898 108.515 349.223 118.449C331.492 124.589 312.814 129.589 293.787 129.623C274.703 129.691 255.019 124.232 241.813 112.121C228.626 100.011 223.56 80.6042 232.454 65.7556C239.609 53.8666 255.329 46.3827 270.604 47.6754C275.825 48.1346 281.915 49.9035 287.349 52.744C286.034 52.8801 284.738 53.2883 283.559 53.8496C279.228 55.8566 276.366 59.7005 274.78 63.7996C272.499 69.5826 272.576 76.1309 275.438 81.7268C278.338 87.2886 284.139 91.7449 290.964 93.0036C297.384 94.2622 302.74 93.1396 307.013 90.6394C308.405 89.8059 309.701 88.8364 310.861 87.7649C317.435 81.5397 320.297 71.4195 318.982 62.7961C316.739 47.3862 304.848 32.8608 288.335 26.9248C264.552 18.4375 234.852 27.7072 220.853 46.6889C205.075 68.0688 210.064 95.2317 227.35 114.4C243.766 132.583 270.991 140.951 296.765 141.104C325.363 141.325 353.071 132.838 379.812 123.891C406.534 114.911 433.488 105.284 461.97 103.005C512.088 98.9736 563.812 119.928 592.951 156.055V156.072Z" fill="#4504AA"/>
<path d="M271.223 3.70791C270.971 1.76892 268.844 0.323185 266.679 0.0850634C264.513 -0.204084 262.309 0.442246 260.298 1.19063C253.724 3.6739 247.846 7.51786 243.012 12.1102C240.556 14.4064 238.391 16.8896 236.476 19.509C235.49 20.8357 234.601 22.1964 233.731 23.5741C233.112 24.5095 231.449 26.5506 231.604 27.5201C232.667 26.5846 233.441 25.2239 234.427 24.1694C235.49 23.0638 236.631 22.0093 237.81 21.0398C240.131 19.1348 242.76 17.4509 245.487 16.0052C251.133 13.0627 257.34 11.0387 263.662 9.45685C265.422 9.03163 267.22 8.58941 268.69 7.68795C270.198 6.75247 271.339 5.2387 271.184 3.65689L271.223 3.70791Z" fill="#4504AA"/>
<path d="M323.275 165.41C355.508 162.756 386.677 154.235 417.885 146.836C456.131 137.821 497.664 132.072 537.129 136.954C541.866 137.566 546.564 138.315 551.186 139.318C552.172 139.539 555.962 141.002 555.807 139.284C555.73 138.383 549.929 136.376 548.943 135.95C539.623 131.851 529.858 128.552 519.823 126.068C500.99 121.476 481.248 119.809 461.777 121.221C460.462 121.323 459.128 121.442 457.775 121.578C419.625 125.167 386.329 141.376 349.842 150.357C332.517 154.592 314.709 157.688 296.727 157.586C259.718 157.364 224.662 140.985 207.338 111.594C197.283 94.6024 193.822 74.1069 198.714 55.3463C178.856 88.8024 195.446 128.773 229.96 148.639C257.05 164.236 291.081 168.046 323.275 165.427V165.41Z" fill="#4504AA"/>
<path d="M323.043 88.2241C320.877 88.1221 319.002 89.6188 318.866 91.5238C318.789 93.4628 320.452 95.0786 322.656 95.1977C324.822 95.2997 326.697 93.8029 326.775 91.898C326.891 89.959 325.228 88.3432 323.023 88.2241H323.043Z" fill="#4504AA"/>
<path d="M65.8767 67.5245C66.5341 65.4835 65.1806 63.3914 62.899 62.8131C60.6174 62.2348 58.2004 63.4254 57.543 65.4325C56.8856 67.4395 58.2391 69.5316 60.5207 70.1098C62.8023 70.6881 65.2193 69.5316 65.8767 67.5245Z" fill="#4504AA"/>
<path d="M88.8475 64.1738C89.7949 61.1973 87.8227 58.0677 84.4389 57.2343C81.0552 56.3668 77.4974 58.1017 76.5113 61.1122C75.5638 64.0888 77.5361 67.1843 80.9198 68.0518C84.3036 68.9192 87.8614 67.1503 88.8475 64.1738Z" fill="#4504AA"/>
<path d="M340.406 74.9233C341.547 71.1133 341.991 67.1673 341.798 63.2043C341.431 55.4483 338.53 47.7434 333.716 41.2461C319.253 21.7371 290.5 13.675 265.074 16.0902C264.262 16.1583 263.527 16.1923 262.792 16.4134C279.537 16.3113 294.445 17.7401 308.27 27.2309C308.966 27.6902 309.662 28.2004 310.319 28.7107C325.595 40.2085 336.307 60.3638 327.896 77.4746C326.948 79.4136 325.73 81.6417 326.794 83.5467C328.07 85.8429 332.014 85.9959 334.354 84.4482C337.293 82.5092 339.497 77.9848 340.445 74.9233H340.406Z" fill="#4504AA"/>
<path d="M229.071 17.604C231.642 14.5935 232.59 10.0522 229.96 7.04162C227.833 4.62638 223.947 3.84398 220.563 4.42228C217.179 5.00057 214.143 6.68443 211.378 8.48735C179.107 29.289 171.218 67.2013 177.502 100.232C180.847 117.921 191.347 135.457 209.251 144.081C194.866 132.872 184.946 117.343 181.543 100.742C175.53 71.2324 190.94 41.3822 219.055 24.7307C222.651 22.6046 226.499 20.6656 229.071 17.621V17.604Z" fill="#4504AA"/>
<path d="M150.645 97.851L150.684 97.885C148.228 91.3877 142.64 86.132 137.323 81.3866C131.677 76.386 125.547 71.8277 119.012 67.7967C113.984 64.7011 105.767 59.4624 99.8885 63.7996C98.013 65.2453 98.0129 67.8307 99.0764 69.7356C100.063 71.5726 101.938 72.9333 103.988 73.8688C106.037 74.8382 108.28 75.4165 110.485 76.0289C115.434 77.4236 120.172 79.2265 124.87 81.0974C127.442 82.135 130.014 83.2916 132.469 84.5502C134.79 85.7748 137.052 87.0675 139.217 88.4622C141.46 89.9079 143.626 91.4387 145.676 93.0546C147.59 94.5683 149.156 96.0311 150.664 97.834L150.645 97.851Z" fill="#4504AA"/>
<path d="M1.31488 148.061C3.07445 151.445 7.40565 154.065 11.5242 153.129C14.4632 152.449 16.6288 150.119 17.6923 147.567C19.5679 142.975 19.1618 137.175 19.9739 132.328C20.9213 126.766 22.2169 121.221 24.2278 115.863C27.7856 106.338 33.741 97.2897 42.6161 90.9625C49.9637 85.7578 59.0322 82.6283 68.3907 81.3356C73.5727 80.6212 78.8514 80.4681 84.1107 80.6893C88.2872 80.9104 92.4444 81.3356 96.5242 81.9819C113.559 84.6353 134.19 90.4352 147.126 100.93C140.474 95.5038 132.063 91.0646 123.962 87.4417C110.156 81.2676 94.784 77.8148 79.3154 77.4916C64.0015 77.1685 49.461 80.8764 36.506 88.1221C17.3056 98.9056 3.78989 117.19 0.425461 137.039C-0.193283 140.747 -0.463989 144.659 1.27623 148.078L1.31488 148.061Z" fill="#4504AA"/>
<path d="M154.725 140.968C154.609 140.934 154.532 140.883 154.396 140.815C167.525 158.232 173.906 163.641 188.331 170.733C203.529 178.183 223.019 183.592 240.46 183.966C249.354 184.17 237.869 183.371 234.717 182.605C227.273 180.751 219.983 178.472 212.906 175.819C198.714 170.461 185.353 163.471 173.229 155.051C170.02 152.857 166.945 150.51 163.91 148.095C160.758 145.577 158.379 142.89 154.706 140.968H154.725Z" fill="#4504AA"/>
<path d="M32.0007 139.25C33.1802 157.943 51.5686 175.087 72.6446 177.486C88.5386 179.289 105.283 172.995 114.758 161.634C120.153 155.136 123.246 146.649 120.597 138.961C118.064 131.63 110.098 126.017 101.436 125.405C92.7731 124.793 83.9173 129.215 80.0308 136.087C76.183 142.958 77.6139 151.82 83.4533 157.5C70.827 156.106 62.0486 143.843 64.0015 132.804C65.9544 121.765 76.7824 112.972 89.0413 110.063C101.3 107.189 114.584 109.485 126.011 114.298C137.458 119.146 147.416 126.307 157.065 133.552C178.798 149.932 202.446 165.614 229.67 174.339C254.846 182.384 281.026 182.707 306.027 174.237C296.379 177.503 280.407 175.275 270.45 174.169C258.113 172.808 245.932 169.968 234.466 165.716C223.522 161.685 214.086 157.552 205.385 150.544C204.399 149.762 203.432 148.928 202.446 148.129C193.667 140.9 185.159 133.365 176.304 126.136C162.865 115.132 148.441 104.723 131.889 97.7149C115.338 90.7074 96.3502 87.2206 78.3293 90.5713C53.3668 95.1636 30.5699 115.863 32.0007 139.233V139.25Z" fill="#4504AA"/>
<path d="M311.306 100.266C312.736 100.334 313.916 99.3648 313.993 98.1402C314.071 96.8815 312.968 95.81 311.538 95.776C310.145 95.7079 308.927 96.6774 308.85 97.902C308.811 99.1607 309.875 100.198 311.306 100.266Z" fill="#4504AA"/>
<path d="M365.64 53.6454C365.524 61.0102 369.352 68.2389 375.249 73.4776C383.545 80.8083 394.16 84.0059 405.8 82.4581C414.134 81.3526 421.984 78.4271 429.989 76.0969C470.768 64.2418 516.961 67.4735 554.956 85.1455C560.602 87.7989 565.9 90.7924 570.812 94.3812C566.848 90.2141 562.149 87.5608 557.702 85.2136C552.713 82.5602 547.57 80.111 542.253 77.9168C523.826 70.2629 503.6 65.6706 483.627 62.3199C462.995 58.9011 441.591 59.3093 421.153 63.5445C415.797 64.6501 410.499 66.0278 404.969 66.0958C399.497 66.1638 393.696 64.7351 390.099 61.0952C386.58 57.5404 386.31 52.1827 389.365 48.4748C389.519 49.4783 389.809 50.4478 390.312 51.3833C392.226 54.9381 396.732 57.1662 401.217 57.2343C405.104 57.3363 409.396 56.0096 412.161 53.5264C412.413 53.3053 412.606 53.1352 412.819 52.9141C412.896 52.812 413.032 52.6929 413.148 52.5909C413.96 51.6214 414.578 50.5499 414.946 49.3252C416.261 44.7669 413.805 39.7323 409.764 36.8579C406.535 34.5617 402.455 33.303 398.375 32.5887C391.26 31.364 383.506 31.7552 377.299 35.0379C370.106 38.8479 365.775 46.2467 365.659 53.6114L365.64 53.6454Z" fill="#4504AA"/>
</g>
<defs>
<clipPath id="clip0_594_1998">
<rect width="602" height="184" fill="white" transform="matrix(-1 0 0 1 602 0)"/>
</clipPath>
</defs>
</svg>
