<svg width="170" height="168" viewBox="0 0 170 168" fill="none" xmlns="http://www.w3.org/2000/svg">
<g clip-path="url(#clip0_375_570)">
<path d="M76.82 91.54C76.82 91.54 76.93 91.62 76.97 91.65L77.2 91.36L76.82 91.55V91.54Z" fill="#4504AA"/>
<path d="M93.96 73.37V73.39H93.98C93.98 73.39 93.98 73.37 93.96 73.37Z" fill="#4504AA"/>
<path d="M74.99 73.64C74.99 73.64 74.95 73.68 74.93 73.7L75.12 73.81L74.99 73.64Z" fill="#4504AA"/>
<path d="M93.96 73.37V73.39H93.98C93.98 73.39 93.98 73.37 93.96 73.37ZM76.96 91.65L77.19 91.36L76.81 91.55C76.81 91.55 76.92 91.63 76.96 91.66V91.65ZM74.92 73.71L75.11 73.82L74.98 73.65C74.98 73.65 74.94 73.69 74.92 73.71Z" fill="#4504AA"/>
<path d="M56.31 95.6199C55.05 96.0999 53.85 96.5699 52.67 97.0699C41.35 102.22 40.41 108.01 39.65 112.68C39.08 116.15 38.51 119.68 33.76 120.65C32.94 120.82 32.12 120.9 31.3 120.9C27.26 120.9 23.69 118.82 22 115.28L21.85 114.94C20.92 112.84 20.76 110.44 21.35 108.12C22.07 105.39 23.79 102.86 26.46 100.65C31.78 96.2499 39.56 94.0199 45.2 92.9099L45.43 92.8299L45.66 92.8699C48.48 92.2799 50.98 92.0099 52.6 91.8399H52.79L53.48 91.7799H53.65C54.89 91.6499 55.44 91.6299 55.54 91.6299L69.13 90.9399L56.3 95.6099L56.31 95.6199Z" fill="#4504AA"/>
<path d="M62.37 153.3C62.14 153.38 61.63 153.85 61.32 154.14C60.96 154.46 60.63 154.75 60.35 154.94C58.25 156.33 56.04 157.32 53.75 157.88C52.28 158.26 50.76 158.43 49.23 158.43C44.77 158.43 40.25 156.92 37.11 154.22C35.85 153.13 34.78 151.86 33.95 150.48C30.84 145.28 31.13 138.93 34.6 132.75C31.28 134.6 27.91 135.55 24.71 135.55C21.93 135.55 19.26 134.86 16.86 133.4C15.47 132.58 14.21 131.51 13.12 130.24C9.49998 126.03 8.02998 119.34 9.45998 113.6C10.03 111.31 11.02 109.1 12.4 107C12.59 106.73 12.88 106.39 13.2 106.03C13.47 105.71 13.96 105.21 14.04 104.98L16.04 105.61C13.62 113.18 14.02 118.92 17.24 122.63C22.94 129.21 35.92 127.83 38.32 127.51C38.55 127.47 38.68 127.45 38.7 127.45L40.15 127.2L39.9 128.65C39.9 128.65 39.88 128.8 39.84 129.03C39.52 131.41 38.14 144.41 44.72 150.11C48.42 153.33 54.14 153.73 61.72 151.31L62.37 153.31V153.3Z" fill="#4504AA"/>
<path d="M16.43 95.46C7.96999 95.38 0.799995 90.96 0.0899952 85.34C-0.750005 78.71 4.51 73.58 13.47 72.3C18.67 71.54 23.17 72.7 26.49 73.77C36.48 77.05 47.23 79.55 58.44 81.24C59.49 81.41 60.42 81.74 61.32 82.06C61.72 82.21 62.1 82.33 62.5 82.46L63.36 82.73L63.04 84.9L62.41 85.11C62.07 85.22 61.74 85.34 61.4 85.45C60.6 85.74 59.8 86.02 58.9 86.21C57.47 86.48 56 86.74 54.5 86.97C53.51 87.12 52.52 87.29 51.53 87.45C42.06 89.13 33.13 91.68 24.86 94.18C22.13 95 19.2 95.46 16.59 95.46H16.42H16.43Z" fill="#4504AA"/>
<path d="M53.68 105.93C53.76 104.21 54.75 102.67 56.27 101.91L76 91.96L76.82 91.54C76.82 91.54 76.93 91.62 76.97 91.65L76.42 92.41L74.65 94.85C67.2033 105.143 63.4733 110.297 63.46 110.31C62.58 111.53 61.15 112.25 59.63 112.25C59.4 112.25 59.17 112.23 58.94 112.21C56.16 111.81 53.53 108.7 53.68 105.94V105.93Z" fill="#4504AA"/>
<path d="M115.94 145.5L115.6 145.65C114.32 146.2 112.93 146.49 111.5 146.49C110.6 146.49 109.69 146.36 108.81 146.15C106.05 145.43 103.55 143.71 101.34 141.04C96.94 135.72 94.69 127.94 93.6 122.3L93.49 122.07L93.53 121.82C92.94 118.98 92.67 116.52 92.52 114.88L92.5 114.73V114.71L92.44 114.02V113.85C92.31 112.59 92.29 112.06 92.29 111.94L91.6 98.37L96.27 111.2C96.75 112.46 97.24 113.66 97.74 114.82C102.87 126.14 108.68 127.08 113.33 127.84C116.8 128.41 120.33 129 121.3 133.75C122.31 138.76 120.16 143.47 115.94 145.51V145.5Z" fill="#4504AA"/>
<path d="M94.51 141.02C95.6 144.34 96.76 148.84 96 154.04C94.8 162.37 90.28 167.5 84.31 167.5C83.87 167.5 83.41 167.46 82.94 167.42C77.34 166.7 72.91 159.53 72.84 151.08C72.82 148.43 73.28 145.44 74.12 142.65C76.62 134.38 79.17 125.42 80.83 115.96C81.02 114.99 81.17 114 81.33 113.02C81.56 111.53 81.79 110.05 82.09 108.6C82.26 107.72 82.55 106.9 82.83 106.1C82.96 105.76 83.08 105.43 83.19 105.09L83.4 104.46L85.57 104.17L85.82 105.01C85.95 105.41 86.09 105.81 86.24 106.19C86.56 107.09 86.89 108.04 87.04 109.09C88.74 120.3 91.25 131.05 94.51 141.04V141.02Z" fill="#4504AA"/>
<path d="M93.58 45.23C94.69 39.59 96.92 31.79 101.34 26.47C103.55 23.8 106.05 22.07 108.81 21.36C111.1 20.77 113.52 20.96 115.6 21.86L115.92 21.99C120.17 24.03 122.31 28.76 121.3 33.77C120.33 38.52 116.82 39.09 113.39 39.66C108.68 40.42 102.87 41.36 97.72 52.7C97.24 53.86 96.75 55.06 96.27 56.34L91.6 69.15L92.29 55.54C92.29 55.46 92.31 54.91 92.44 53.52L92.5 52.78V52.76L92.52 52.63C92.67 50.99 92.94 48.51 93.53 45.69L93.51 45.54L93.57 45.22L93.58 45.23Z" fill="#4504AA"/>
<path d="M74.99 73.6401C74.99 73.6401 74.95 73.68 74.93 73.7L73.92 73.2L54.19 63.2501C52.68 62.4701 51.69 60.9401 51.6 59.2101C51.45 56.4501 54.08 53.3601 56.86 52.9601C58.63 52.7101 60.37 53.4401 61.4 54.8701C61.4 54.8701 61.55 55.08 63.04 57.12C64.51 59.16 67.31 63.0101 72.57 70.2901L74.34 72.7301L74.99 73.63V73.6401Z" fill="#4504AA"/>
<path d="M74.44 26.49C73.35 23.17 72.19 18.67 72.95 13.47C74.25 4.51 79.34 -0.750005 86.01 0.0899952C91.61 0.809995 96.04 7.97999 96.11 16.43C96.13 19.08 95.67 22.07 94.83 24.86C92.33 33.13 89.78 42.09 88.12 51.53C87.93 52.52 87.78 53.51 87.62 54.5C87.39 55.97 87.16 57.44 86.86 58.9C86.69 59.8 86.4 60.62 86.1 61.4C85.99 61.74 85.87 62.07 85.76 62.41L85.55 63.04L83.38 63.36L83.13 62.5C83 62.12 82.86 61.72 82.71 61.32C82.39 60.42 82.06 59.49 81.91 58.44C80.21 47.25 77.7 36.48 74.44 26.49Z" fill="#4504AA"/>
<path d="M116.22 106.73C116.35 109.49 113.74 112.58 110.94 112.98C110.71 113.02 110.48 113.04 110.25 113.04C108.74 113.04 107.31 112.3 106.4 111.06C106.4 111.06 106.23 110.85 104.76 108.81C103.29 106.77 100.51 102.92 95.23 95.64L92.68 92.13L113.63 102.69C115.14 103.47 116.13 105 116.22 106.73Z" fill="#4504AA"/>
<path d="M147.24 114.96L147.09 115.25C145.39 118.8 141.83 120.91 137.77 120.91C136.97 120.91 136.15 120.83 135.33 120.66C130.58 119.69 130.01 116.16 129.44 112.75C128.66 108.02 127.74 102.23 116.38 97.08C115.24 96.58 114.05 96.11 112.76 95.61L99.95 90.96L113.56 91.65C113.64 91.65 114.19 91.67 115.58 91.8L116.3 91.86H116.47C118.11 92.03 120.59 92.3 123.41 92.89L123.54 92.87L123.86 92.93C129.5 94.02 137.3 96.27 142.64 100.67C145.31 102.88 147.04 105.4 147.75 108.14C148.34 110.45 148.15 112.85 147.25 114.96H147.24Z" fill="#4504AA"/>
<path d="M155.68 130.25C154.59 131.51 153.32 132.58 151.94 133.41C149.54 134.86 146.89 135.56 144.09 135.56C140.89 135.56 137.53 134.61 134.22 132.76C137.67 138.94 137.96 145.32 134.87 150.49C134.03 151.88 132.96 153.14 131.69 154.23C128.56 156.92 124.05 158.44 119.57 158.44C118.03 158.44 116.52 158.27 115.07 157.89C112.78 157.32 110.55 156.33 108.47 154.95C108.18 154.76 107.84 154.47 107.5 154.15C107.18 153.86 106.66 153.39 106.43 153.31L107.08 151.31C110.32 152.34 113.24 152.87 115.79 152.87C119.2 152.87 121.97 151.94 124.08 150.11C130.68 144.41 129.28 131.41 128.96 129.03C128.92 128.8 128.9 128.67 128.9 128.65L128.67 127.2L130.12 127.45C130.12 127.45 130.27 127.47 130.48 127.49C132.79 127.81 145.86 129.24 151.58 122.63C154.78 118.93 155.18 113.21 152.76 105.63V105.61L154.78 104.98C154.84 105.21 155.33 105.74 155.6 106.03C155.92 106.39 156.23 106.72 156.42 107C157.79 109.1 158.8 111.31 159.36 113.6C160.79 119.34 159.32 126.03 155.68 130.24V130.25Z" fill="#4504AA"/>
<path d="M60.14 21.3499C62.9 22.0699 65.4 23.7899 67.61 26.4599C72.03 31.7799 74.26 39.5599 75.35 45.1999L75.43 45.4299L75.41 45.6599C75.98 48.4599 76.27 50.9599 76.42 52.6199L76.44 52.7699V52.7899L76.5 53.4799V53.6699C76.63 54.8699 76.65 55.4199 76.65 55.5399L77.32 69.1299L72.67 56.2999C72.19 55.0399 71.7 53.8399 71.2 52.6799C66.07 41.3399 60.26 40.3999 55.61 39.6399C52.12 39.0699 48.61 38.4999 47.64 33.7499C46.63 28.7399 48.78 24.0099 53 21.9899L53.34 21.8399C55.44 20.9099 57.84 20.7499 60.13 21.3399L60.14 21.3499Z" fill="#4504AA"/>
<path d="M93.98 73.39C93.98 73.39 93.98 73.37 93.96 73.37L96.51 69.88C103.983 59.56 107.74 54.38 107.78 54.34C108.73 53.04 110.47 52.3 112.22 52.55C115.02 52.95 117.63 56.04 117.5 58.8C117.42 60.52 116.43 62.08 114.91 62.84L93.98 73.4V73.39Z" fill="#4504AA"/>
<path d="M107.09 16.6199L106.44 14.6199C106.67 14.5399 107.2 14.0699 107.51 13.7799C107.85 13.4599 108.18 13.1699 108.48 12.9799C110.56 11.5899 112.79 10.5999 115.08 10.0399C120.8 8.60994 127.49 10.0799 131.7 13.6999C132.96 14.7899 134.03 16.0599 134.88 17.4399C137.97 22.6099 137.68 28.9899 134.23 35.1699C140.41 31.6999 146.79 31.3999 151.94 34.5199C153.33 35.3399 154.59 36.4099 155.68 37.6799C159.32 41.8899 160.79 48.5799 159.36 54.3199C158.79 56.6099 157.78 58.8399 156.42 60.9199C156.23 61.2099 155.92 61.5299 155.6 61.8899C155.33 62.2099 154.84 62.7099 154.78 62.9399L152.76 62.3099C153.79 59.0699 154.32 56.1499 154.32 53.5799C154.32 50.1899 153.39 47.3999 151.56 45.2899C145.84 38.6599 132.8 40.1199 130.48 40.4299C130.27 40.4499 130.14 40.4699 130.12 40.4699L128.67 40.7199L128.9 39.2699C128.9 39.2699 128.92 39.1199 128.96 38.8899C129.28 36.5099 130.68 23.5099 124.08 17.8099C120.38 14.5899 114.66 14.1899 107.08 16.6099L107.09 16.6199Z" fill="#4504AA"/>
<path d="M169.01 85.34C168.29 90.96 161.12 95.37 152.67 95.46H152.48C149.89 95.46 146.97 95 144.23 94.18C135.96 91.68 127 89.13 117.54 87.45C116.55 87.28 115.56 87.11 114.57 86.97C113.1 86.74 111.63 86.49 110.17 86.21C109.29 86.02 108.47 85.75 107.69 85.45C107.35 85.34 107.02 85.22 106.66 85.11L106.05 84.9L105.73 82.73L106.57 82.46C106.97 82.33 107.37 82.21 107.77 82.06C108.67 81.74 109.6 81.41 110.65 81.24C121.84 79.56 132.59 77.05 142.6 73.77C145.92 72.7 150.42 71.54 155.62 72.3C164.58 73.58 169.82 78.72 169 85.34H169.01Z" fill="#4504AA"/>
<path d="M77.2 91.35L76.82 91.54C76.42 91.22 76.04 90.89 75.68 90.53C75.53 90.38 75.41 90.24 75.26 90.09C73.26 87.88 72.02 84.92 72.02 81.7C72.02 78.67 73.09 75.87 74.92 73.71L75.11 73.82L74.98 73.65C75.06 73.52 75.15 73.42 75.25 73.31C75.38 73.14 75.52 72.99 75.67 72.85C77.94 70.56 81.1 69.15 84.57 69.15C88.29 69.15 91.66 70.79 93.95 73.38V73.4H93.97C95.93 75.61 97.13 78.53 97.13 81.71C97.13 88.63 91.49 94.25 84.57 94.25C81.71 94.25 79.06 93.3 76.96 91.66L77.19 91.37L77.2 91.35Z" fill="#4504AA"/>
<path d="M113.52 75.98L99.95 76.67L112.78 72.02C114.04 71.54 115.24 71.05 116.4 70.55C127.74 65.42 128.66 59.61 129.42 54.94C130.01 51.47 130.58 47.96 135.33 46.99C140.34 45.96 145.05 48.13 147.09 52.33L147.24 52.69C148.14 54.77 148.33 57.19 147.74 59.48C147.02 62.24 145.3 64.74 142.63 66.95C137.31 71.35 129.5 73.6 123.87 74.69L123.64 74.77L123.41 74.73C120.59 75.32 118.11 75.59 116.47 75.76L116.32 75.78L116.3 75.76L115.58 75.84L115.41 75.82C114.19 75.95 113.64 75.97 113.52 75.97V75.98Z" fill="#4504AA"/>
<path d="M75.35 122.28C74.26 127.92 72.03 135.7 67.61 141.04C65.4 143.71 62.9 145.44 60.14 146.13C59.26 146.36 58.35 146.49 57.45 146.49C56.02 146.49 54.63 146.2 53.35 145.65L53.03 145.5C48.78 143.46 46.64 138.75 47.65 133.74C48.62 128.99 52.15 128.4 55.56 127.85C60.27 127.07 66.08 126.13 71.23 114.79C71.71 113.65 72.2 112.46 72.68 111.17L77.33 98.36L76.66 111.97C76.66 112.08 76.64 112.6 76.49 113.99L76.45 114.71V114.73L76.43 114.88C76.28 116.52 75.99 119.02 75.42 121.84V121.95L75.36 122.29L75.35 122.28Z" fill="#4504AA"/>
<path d="M56.33 72.02L69.14 76.67L55.53 75.98C55.45 75.98 54.9 75.96 53.51 75.83L52.79 75.77L52.75 75.79L52.6 75.77C50.98 75.6 48.48 75.33 45.66 74.74L45.55 74.76L45.21 74.7C39.57 73.61 31.77 71.36 26.45 66.96C23.78 64.75 22.05 62.25 21.34 59.49C20.75 57.2 20.92 54.78 21.84 52.7L21.97 52.38C24.01 48.13 28.74 45.96 33.75 47C38.5 47.97 39.07 51.48 39.64 54.89C40.4 59.62 41.34 65.43 52.68 70.56C53.84 71.06 55.04 71.55 56.32 72.03L56.33 72.02Z" fill="#4504AA"/>
<path d="M9.46999 54.3101C8.03999 48.5701 9.50999 41.88 13.13 37.67C14.22 36.41 15.49 35.34 16.87 34.51C22.07 31.4 28.42 31.6901 34.6 35.16C31.13 28.98 30.83 22.6 33.95 17.43C34.77 16.04 35.84 14.78 37.11 13.69C41.32 10.07 48.01 8.60005 53.75 10.03C56.04 10.6 58.25 11.59 60.35 12.97C60.62 13.16 60.96 13.45 61.32 13.77C61.64 14.06 62.14 14.53 62.37 14.61L61.72 16.61C54.15 14.19 48.43 14.59 44.72 17.81C38.14 23.51 39.52 36.51 39.84 38.89C39.88 39.12 39.9 39.25 39.9 39.2701L40.15 40.7201L38.7 40.4701C38.7 40.4701 38.55 40.4501 38.32 40.41C35.92 40.09 22.94 38.7101 17.24 45.2901C14.02 49.0101 13.62 54.73 16.04 62.3101L14.04 62.94C13.96 62.73 13.49 62.2001 13.2 61.89C12.88 61.55 12.59 61.22 12.4 60.92C11.01 58.84 10.02 56.6101 9.45999 54.32L9.46999 54.3101Z" fill="#4504AA"/>
</g>
<defs>
<clipPath id="clip0_375_570">
<rect width="169.1" height="167.5" fill="white"/>
</clipPath>
</defs>
</svg>
