<svg width="323" height="309" viewBox="0 0 323 309" fill="none" xmlns="http://www.w3.org/2000/svg">
<path d="M151.112 108.186L86.1934 75.4655L94.0952 86.3412C110.457 108.898 119.071 120.828 123.626 127.149C128.182 133.47 128.708 134.12 128.708 134.12C131.497 137.962 135.928 140.255 140.639 140.255C141.351 140.255 142.064 140.193 142.777 140.069C151.453 138.83 159.541 129.256 159.138 120.704C158.89 115.374 155.822 110.603 151.112 108.186ZM141.847 133.593C138.779 134.058 135.773 132.757 133.945 130.278C133.604 129.875 117.336 107.349 107.234 93.3748L148.169 113.98C150.71 115.343 152.476 118.008 152.6 121.014C152.848 126.219 147.177 132.819 141.847 133.593Z" fill="#4504AA"/>
<path d="M34.5368 74.9387L-26.6017 105.769C-31.2809 108.124 -34.3486 112.864 -34.6275 118.225C-35.0923 126.777 -26.9426 136.413 -18.328 137.652C-17.6153 137.714 -16.9026 137.776 -16.1899 137.776C-11.5108 137.776 -7.07955 135.545 -4.32165 131.765C-4.32165 131.765 7.23672 115.798 30.3535 83.8624L35.8382 76.302L38.2553 73.0486L34.5368 74.9387ZM-9.52757 127.861C-11.2939 130.34 -14.3616 131.579 -17.3364 131.177C-22.7593 130.402 -28.337 123.74 -28.1511 118.535C-27.9652 115.529 -26.2609 112.864 -23.6579 111.563L17.2767 90.896C7.11277 104.901 -9.24868 127.52 -9.49658 127.861H-9.52757Z" fill="#4504AA"/>
<path d="M146.774 -47.2045C141.351 -47.9791 135.959 -45.7172 133.015 -41.6581C132.891 -41.5342 121.25 -25.4839 98.0923 6.49268L90.1904 17.3684L155.109 -15.3518C159.789 -17.7067 162.856 -22.5094 163.135 -27.8698C163.538 -36.4217 155.45 -45.9961 146.774 -47.2355V-47.2045ZM152.104 -21.146L111.231 -0.540949C121.333 -14.4842 137.632 -37.0414 137.942 -37.4442C139.492 -39.5821 141.971 -40.8215 144.667 -40.8215C145.069 -40.8215 145.441 -40.8215 145.844 -40.7596C151.174 -39.9849 156.845 -33.3851 156.597 -28.1177C156.473 -25.1121 154.707 -22.4474 152.104 -21.146Z" fill="#4504AA"/>
<path d="M29.3617 15.3544L23.8769 7.79404C7.57742 -14.7631 -1.0991 -26.6924 -5.65427 -33.0133C-10.2714 -39.3343 -10.7362 -39.985 -10.7362 -39.985C-13.928 -44.4158 -19.3508 -46.7087 -24.8046 -45.9031C-33.4191 -44.6637 -41.5689 -35.0893 -41.1041 -26.5374C-40.8562 -21.208 -37.7884 -16.4363 -33.0783 -14.0195L28.0602 16.8107L31.7787 18.7008L29.3617 15.3854V15.3544ZM-30.1345 -19.8447C-32.7374 -21.208 -34.4417 -23.8727 -34.6277 -26.8783C-34.8136 -32.0838 -29.2048 -38.6836 -23.813 -39.4582C-20.7452 -39.923 -17.7394 -38.6216 -15.9112 -36.1428C-15.6633 -35.74 0.698174 -13.2139 10.8001 0.760409L-30.1345 -19.8447Z" fill="#4504AA"/>
<path d="M61.0933 4.23078C50.3406 4.23078 40.5485 8.59967 33.5143 15.6953C33.0495 16.16 32.6157 16.5938 32.2128 17.1206C25.9534 24.0303 22.1729 33.1399 22.1729 43.1171C22.1729 53.0943 26.0153 62.2658 32.2128 69.1135C32.6777 69.5783 33.0495 70.0121 33.5143 70.4769C40.5485 77.5725 50.3406 81.9414 61.0933 81.9414C82.5367 81.9414 100.014 64.5277 100.014 43.0861C100.014 21.6444 82.5367 4.16882 61.0933 4.16882V4.23078ZM61.0933 75.4655C43.2444 75.4655 28.7112 60.9954 28.7112 43.148C28.7112 25.3006 43.2444 10.7686 61.0933 10.7686C78.9421 10.7686 93.4753 25.3006 93.4753 43.148C93.4753 60.9954 78.9421 75.4655 61.0933 75.4655Z" fill="#4504AA"/>
<path d="M36.5199 -37.8779C36.5199 -38.2807 36.4579 -39.9539 36.0551 -43.6721V-44.2608L35.8692 -46.3988V-46.4608L35.8072 -46.9255C35.3423 -52.0691 34.4437 -59.8153 32.6774 -68.4912L32.7394 -69.2038L32.4915 -69.9165C29.1138 -87.392 22.2036 -111.498 8.50711 -127.982C1.65886 -136.256 -6.08804 -141.616 -14.6406 -143.816C-21.7368 -145.644 -29.1738 -145.117 -35.6812 -142.267L-36.7348 -141.802C-49.8425 -135.543 -56.4738 -120.887 -53.3441 -105.363C-50.3383 -90.6455 -39.4617 -88.8793 -28.647 -87.1132C-14.2378 -84.7583 3.73502 -81.8457 19.6626 -46.7086C21.212 -43.1144 22.7304 -39.3962 24.2178 -35.492L38.627 4.26181L36.5509 -37.8469L36.5199 -37.8779ZM25.6432 -49.4043C8.22822 -87.7329 -12.4715 -91.1103 -27.8103 -93.5891C-39.0278 -95.4172 -44.9465 -96.8425 -46.9607 -106.696C-49.5016 -119.214 -44.2957 -131.019 -34.0698 -135.884L-33.0782 -136.348C-29.9485 -137.712 -26.5089 -138.362 -22.9763 -138.362C-20.7452 -138.362 -18.4831 -138.115 -16.252 -137.526C-9.09384 -135.698 -2.43151 -131.081 3.48712 -123.83C16.254 -108.369 22.8544 -85.316 26.1081 -68.6151V-68.1503L26.17 -67.6236C27.9363 -59.2886 28.773 -51.7282 29.2998 -46.6467L29.1758 -45.8101L29.5787 -44.3848L29.5167 -43.858L29.5787 -43.6101C29.7646 -41.2553 29.9195 -39.706 29.9815 -38.7765C28.5561 -42.4947 27.1926 -45.934 25.6742 -49.4043H25.6432Z" fill="#4504AA"/>
<path d="M158.209 -141.895L157.217 -142.298C150.772 -145.086 143.273 -145.675 136.177 -143.847C127.624 -141.616 119.877 -136.286 113.029 -128.013C99.3323 -111.529 92.4221 -87.3301 88.9825 -69.8855L88.7965 -68.894L88.8585 -68.4292C87.0303 -59.6914 86.1936 -52.0071 85.7288 -46.9255L85.6668 -46.5227V-46.4608L85.4809 -44.1679C85.078 -39.8609 85.0161 -38.1568 85.0161 -37.9089L82.8779 4.26181L97.3491 -35.4301C98.8365 -39.3962 100.355 -43.1144 101.842 -46.7086C117.801 -81.8457 135.805 -84.7583 150.4 -87.1132C161.029 -88.8793 171.905 -90.6455 174.911 -105.363C178.041 -120.887 171.378 -135.543 158.24 -141.864L158.209 -141.895ZM168.497 -106.696C166.482 -96.8425 160.533 -95.4172 149.129 -93.5271C134.007 -91.1103 113.277 -87.7329 95.8927 -49.3424C94.4673 -46.027 93.0109 -42.4947 91.5854 -38.7765C91.6474 -39.675 91.7094 -41.2553 91.9883 -43.858L92.1742 -45.6861L92.2982 -46.2129L92.2362 -46.7396C92.701 -51.7592 93.5996 -59.2576 95.3659 -67.6546L95.4279 -68.6461C98.6816 -85.409 105.282 -108.4 118.049 -123.861C123.967 -131.081 130.63 -135.729 137.788 -137.557C143.459 -139.044 149.47 -138.61 154.614 -136.379L155.451 -135.977C165.801 -131.019 171.038 -119.214 168.497 -106.727V-106.696Z" fill="#4504AA"/>
<path d="M174.911 204.394C171.905 189.676 160.967 187.848 150.214 186.082C135.805 183.727 117.832 180.815 101.904 145.74C100.355 142.145 98.8365 138.427 97.3491 134.523L82.8779 94.7692L85.0161 136.816C85.0161 137.219 85.078 138.83 85.4809 142.734V143.261L85.6668 145.399V145.461L85.7288 145.926C86.1936 151.007 87.0303 158.629 88.8585 167.429L88.7346 168.204L89.0754 168.916C92.4531 186.392 99.4253 210.498 113.06 226.982C119.908 235.255 127.655 240.616 136.208 242.816C138.934 243.467 141.754 243.869 144.543 243.869C148.974 243.869 153.282 242.971 157.248 241.267L158.302 240.802C171.409 234.481 178.041 219.887 174.911 204.363V204.394ZM155.606 234.884L154.614 235.286C149.47 237.579 143.459 237.951 137.788 236.526C130.63 234.636 123.967 230.081 118.049 222.83C105.282 207.369 98.6816 184.316 95.4279 167.615L95.4899 167.212L95.3659 166.624C93.5377 158.072 92.701 150.604 92.2362 145.585L92.2982 144.872L91.9573 143.323V142.548C91.7714 140.193 91.6164 138.706 91.5545 137.776C92.9799 141.433 94.3433 144.934 95.8617 148.404C113.277 186.671 133.976 190.048 149.315 192.589C160.533 194.417 166.451 195.842 168.466 205.696C171.007 218.214 165.801 229.926 155.575 234.884H155.606Z" fill="#4504AA"/>
<path d="M24.2179 134.461C22.7305 138.427 21.2121 142.145 19.7247 145.678C3.76609 180.815 -14.2377 183.727 -28.8329 186.144C-39.3996 187.848 -50.3382 189.676 -53.344 204.394C-56.4738 219.918 -49.8115 234.512 -36.6727 240.833L-35.6811 241.298C-31.7147 243.002 -27.4074 243.9 -22.9762 243.9C-20.1873 243.9 -17.3675 243.498 -14.6406 242.785C-6.08798 240.647 1.65892 235.286 8.50718 227.013C22.2037 210.467 29.1139 186.33 32.4916 168.885L32.6775 167.832V167.491C34.4438 158.753 35.3424 151.007 35.8072 145.926L35.8692 145.461V145.399L35.9932 143.168C36.458 138.861 36.52 137.25 36.52 136.909L38.5961 94.7382L24.1869 134.43L24.2179 134.461ZM29.5477 142.858L29.1449 145.213L29.2688 145.802C28.7421 150.821 27.9054 158.32 26.1391 166.655L26.0771 167.553V167.615C22.8234 184.285 16.2231 207.369 3.45621 222.83C-2.46242 230.05 -9.12476 234.636 -16.2829 236.526C-21.9536 237.951 -27.9652 237.579 -33.1091 235.286L-33.9458 234.884C-44.2957 229.926 -49.5326 218.214 -46.9916 205.696C-44.9774 195.842 -39.0278 194.417 -27.6243 192.527C-12.5024 190.048 8.22828 186.671 25.6123 148.342C27.0377 144.965 28.4942 141.495 29.9196 137.776C29.8576 138.675 29.7956 140.317 29.5168 142.858H29.5477Z" fill="#4504AA"/>
<path d="M91.864 226.951C81.762 195.997 74.0151 162.688 68.7162 127.954C68.2514 124.701 67.2288 121.757 66.2372 118.968C65.7724 117.791 65.3386 116.552 64.9357 115.312L64.1611 112.709L57.4368 113.608L56.786 115.56C56.4452 116.614 56.0733 117.636 55.6705 118.69C54.8338 121.168 53.9042 123.709 53.3774 126.436C52.4787 130.929 51.735 135.483 51.0223 140.131C50.4955 143.199 50.0307 146.266 49.4729 149.241C44.329 178.584 36.4272 206.346 28.6803 231.94C26.0773 240.616 24.6519 249.849 24.7139 258.06C24.8998 284.274 38.6583 306.49 56.0113 308.69C57.4368 308.814 58.8932 308.938 60.2566 308.938C78.7562 308.938 92.7936 293.043 96.4811 267.232C98.8362 251.12 95.2416 237.177 91.864 226.889V226.951ZM90.0357 266.395C86.5961 290.254 73.6123 304.383 56.848 302.245C42.9036 300.479 31.4382 280.68 31.2213 258.06C31.1593 250.624 32.5227 241.762 34.9398 233.892C42.6867 208.082 50.6505 180.133 55.9184 150.48C56.4452 147.413 56.9719 144.283 57.4058 141.154C58.1185 136.661 58.8312 132.168 59.7608 127.799C60.0087 126.374 60.4116 125.011 60.8764 123.616C61.5271 125.382 61.9919 127.149 62.3018 128.884C67.5697 164.021 75.4095 197.702 85.6354 228.996C88.8272 238.633 92.1428 251.616 90.0047 266.395H90.0357Z" fill="#4504AA"/>
<path d="M255.261 -46.7397L254.796 -47.8551C248.475 -60.8999 233.88 -67.5926 218.355 -64.4012C203.636 -61.3956 201.869 -50.5199 200.041 -39.768C197.686 -25.298 194.835 -7.32665 159.695 8.59968C156.101 10.1489 152.382 11.6672 148.478 13.1545L108.721 27.5625L150.771 25.4246C151.174 25.4246 152.847 25.3626 156.628 24.9598L157.154 25.0218L159.385 24.7739L159.447 24.8359L159.912 24.7739C164.994 24.2471 172.679 23.4105 181.418 21.5824L182.13 21.7064L182.843 21.4585C200.32 18.0811 224.49 11.1095 240.976 -2.52398C249.249 -9.37168 254.61 -17.1179 256.81 -25.6698C258.639 -32.7654 258.05 -40.2638 255.261 -46.7087V-46.7397ZM250.489 -27.312C248.599 -20.1545 244.043 -13.4927 236.792 -7.57454C221.33 5.19131 198.275 11.7911 181.573 15.0446L181.108 14.9826L180.581 15.1065C172.121 16.8727 164.622 17.7093 159.602 18.236L158.828 18.1121L157.278 18.5149L156.751 18.4529L156.504 18.5149C154.149 18.7008 152.661 18.8557 151.731 18.9177C155.45 17.4924 158.89 16.0361 162.36 14.5488C200.692 -2.80284 204.008 -23.5009 206.549 -38.8385C208.377 -50.0551 209.802 -56.0352 219.656 -57.9873C221.732 -58.452 223.84 -58.638 225.916 -58.638C235.956 -58.638 244.756 -53.6184 248.847 -45.0665L249.249 -44.075C251.542 -38.9314 251.914 -32.9823 250.489 -27.2501V-27.312Z" fill="#4504AA"/>
<path d="M256.841 125.073C254.61 116.614 249.28 108.774 241.007 101.927C224.459 88.2933 200.258 81.3216 182.812 77.9443L181.82 77.7584L181.418 77.8203C172.679 75.9922 164.994 75.1556 159.912 74.6289H159.385L157.154 74.443C152.847 74.0402 151.143 73.9782 150.895 73.9782L108.721 71.8402L148.416 86.2483C152.382 87.7975 156.101 89.2538 159.633 90.8031C194.835 106.76 197.686 124.701 200.103 139.357C201.869 149.923 203.636 160.86 218.355 163.866C220.896 164.393 223.437 164.64 225.916 164.64C238.497 164.64 249.497 158.134 254.796 147.103L255.261 146.204C258.05 139.698 258.639 132.261 256.81 125.073H256.841ZM249.28 143.571L248.939 144.407C243.981 154.756 232.175 159.993 219.687 157.452C209.833 155.438 208.408 149.489 206.517 138.086C204.038 122.966 200.723 102.237 162.329 84.854C158.952 83.3667 155.481 81.9723 151.762 80.547C152.661 80.547 154.241 80.671 156.844 80.9498L159.261 81.2907L159.726 81.2287C164.808 81.6935 172.245 82.5301 180.643 84.2962L181.542 84.3582H181.603C198.275 87.6736 221.361 94.2114 236.823 106.977C244.043 112.988 248.63 119.619 250.52 126.715C251.945 132.447 251.573 138.458 249.28 143.602V143.571Z" fill="#4504AA"/>
<path d="M281.291 14.0221C265.178 11.6672 251.233 15.2615 240.946 18.5769C209.927 28.74 176.615 36.4863 141.94 41.7227C138.687 42.2495 135.805 43.272 133.016 44.2635C131.776 44.7283 130.537 45.1001 129.297 45.5029L126.694 46.3395L127.686 53.0633L129.576 53.714C130.692 54.0548 131.714 54.4266 132.768 54.7675C135.185 55.666 137.726 56.5336 140.453 57.1223C144.946 57.9589 149.501 58.7645 154.087 59.4772C157.155 59.942 160.223 60.4687 163.291 60.9645C192.636 66.17 220.401 74.0712 245.997 81.8174C254.456 84.3582 263.535 85.7835 271.561 85.7835H272.15C298.366 85.5356 320.584 71.8402 322.784 54.4266C325.325 33.8835 309.087 17.9882 281.322 14.0221H281.291ZM316.214 53.652C314.448 67.5953 294.647 79.0598 272.026 79.2767C264.465 79.2147 255.727 77.9753 247.856 75.5585C222.043 67.7502 194.092 59.849 164.437 54.5816C161.307 53.9928 158.24 53.5281 155.11 53.0323C150.617 52.3196 146.124 51.607 141.754 50.7394C140.329 50.3986 138.965 50.0267 137.571 49.562C139.337 48.9732 141.104 48.4465 142.839 48.1986C177.979 42.9312 211.6 35.0919 242.96 24.8049C252.597 21.6754 265.519 18.36 280.362 20.436C304.222 23.9683 318.353 36.982 316.214 53.683V53.652Z" fill="#4504AA"/>
<path d="M-26.4465 13.1546C-30.4129 11.6673 -34.1314 10.149 -37.726 8.59977C-72.8659 -7.29558 -75.7787 -25.2979 -78.1338 -39.9539C-79.9001 -50.5198 -81.6664 -61.3955 -96.3855 -64.4011C-111.91 -67.5925 -126.567 -60.8688 -132.889 -47.7311L-133.292 -46.7396C-136.174 -40.2947 -136.669 -32.7963 -134.841 -25.7007C-132.61 -17.1488 -127.28 -9.40258 -119.006 -2.55488C-102.521 11.0786 -78.3197 18.0502 -60.8737 21.4276L-59.8201 21.6135L-59.4793 21.5515C-50.7408 23.3796 -42.9939 24.2162 -37.9739 24.743L-37.5091 24.8049L-37.3851 24.743L-35.154 24.9289C-30.8468 25.3317 -29.1424 25.3937 -28.8945 25.3937L13.2796 27.5316L-26.4155 13.1236L-26.4465 13.1546ZM-34.8442 18.484L-36.6724 18.2981L-37.1992 18.1122L-37.788 18.2361C-42.808 17.7094 -50.307 16.8728 -58.6426 15.1066L-59.5413 15.0446H-59.6032C-76.3675 11.7912 -99.3603 5.1914 -114.823 -7.57445C-122.043 -13.4926 -126.691 -20.1544 -128.52 -27.3119C-130.007 -33.0442 -129.573 -38.9933 -127.342 -44.1368L-126.939 -44.9734C-121.981 -55.3225 -110.175 -60.5589 -97.687 -58.0182C-87.8329 -56.0661 -86.4075 -50.055 -84.5172 -38.6525C-82.1002 -23.5318 -78.7226 -2.80274 -40.329 14.5799C-37.0133 16.0052 -33.4807 17.4615 -29.7622 18.8868C-30.6608 18.8248 -32.3032 18.7009 -34.8442 18.484Z" fill="#4504AA"/>
<path d="M-28.8636 73.9782C-29.2045 73.9782 -30.8778 74.0402 -34.7203 74.443H-35.2471L-37.3852 74.6289H-37.974C-42.994 75.1556 -50.7409 75.9922 -59.4794 77.8203L-60.1921 77.6964L-60.9048 77.9443C-78.3818 81.3836 -102.49 88.2933 -118.976 101.927C-127.249 108.774 -132.61 116.583 -134.81 125.073C-136.638 132.23 -136.112 139.667 -133.261 146.204L-132.796 147.258C-127.59 158.196 -116.497 164.672 -103.978 164.672C-101.437 164.672 -98.8956 164.424 -96.3546 163.897C-81.6355 160.891 -79.8692 149.954 -78.1029 139.202C-75.7478 124.732 -72.835 106.822 -37.7571 90.8341C-34.1005 89.2848 -30.382 87.8285 -26.4776 86.3412L13.2795 71.8712L-28.8326 74.0092L-28.8636 73.9782ZM-40.391 84.854C-78.7226 102.268 -82.1003 122.997 -84.5793 138.303C-86.4076 149.52 -87.833 155.438 -97.687 157.452C-110.206 159.931 -122.012 154.725 -126.877 144.469L-127.342 143.571C-129.573 138.427 -130.007 132.416 -128.52 126.684C-126.691 119.588 -122.074 112.926 -114.823 106.946C-99.3604 94.1805 -76.3676 87.6426 -59.6033 84.3272L-59.2005 84.3892L-58.6117 84.2652C-50.2141 82.4991 -42.6531 81.6625 -37.6331 81.1357L-36.9204 81.2597L-35.371 80.9189H-34.5963C-32.1793 80.671 -30.6919 80.578 -29.7623 80.5161C-33.4808 81.9414 -36.9824 83.3047 -40.391 84.823V84.854Z" fill="#4504AA"/>
<path d="M169.457 282.632C164.251 282.632 159.262 282.012 154.676 280.835C147.177 278.975 139.957 275.753 133.232 271.26C132.241 270.609 131.001 269.587 129.793 268.44C128.491 267.232 127.624 266.581 127.376 266.426C125.733 265.838 125.052 264.103 125.61 262.429L127.624 256.232C128.181 254.528 130.01 253.599 131.714 254.125C154.087 261.221 170.789 260.136 181.263 251.058C200.321 234.605 196.292 196.183 195.301 188.623C195.115 187.724 195.084 187.136 195.084 187.012L194.402 183.046C194.247 181.992 194.588 180.939 195.332 180.226C196.075 179.482 197.16 179.141 198.182 179.327L203.543 180.195C208.284 180.846 249.188 185.803 266.138 166.252C275.249 155.686 276.271 139.016 269.144 116.707C269.051 116.397 268.989 116.056 268.989 115.715C268.989 114.29 269.919 112.957 271.282 112.524L277.542 110.571C278.378 110.324 279.308 110.386 280.083 110.819C280.857 111.253 281.415 111.966 281.663 112.802C281.632 112.586 282.035 113.174 283.46 114.693L284.111 115.436C284.979 116.397 285.753 117.295 286.28 118.039C290.897 125.104 294.089 132.354 295.886 139.574C300.565 158.381 295.7 180.257 283.77 194.045C280.083 198.29 275.93 201.792 271.344 204.487C257.183 213.07 239.334 213.907 221.795 206.687C228.922 224.194 228.24 241.886 219.626 256.294C216.837 260.88 213.304 265.032 209.121 268.688C198.895 277.488 184.424 282.508 169.426 282.508L169.457 282.632ZM132.582 262.181C133.047 262.584 133.604 263.08 134.286 263.669C135.185 264.505 136.052 265.28 136.827 265.776C142.963 269.866 149.501 272.809 156.318 274.483C160.409 275.536 164.809 276.094 169.488 276.094C182.751 276.094 195.982 271.508 204.907 263.855C208.563 260.663 211.662 257.038 214.079 253.041C223.003 238.137 222.26 219.763 212.003 201.358C211.29 200.087 211.507 198.507 212.561 197.454C213.614 196.4 215.195 196.214 216.465 196.927C234.624 207.09 253.65 207.741 268.059 199.003C272.057 196.648 275.682 193.581 278.905 189.893C289.503 177.654 293.81 158.103 289.627 141.278C288.015 134.74 285.072 128.171 280.919 121.788C280.578 121.292 279.959 120.611 279.308 119.867L278.688 119.154C278.13 118.535 277.666 118.039 277.263 117.574L276.364 117.853C283.15 140.968 281.384 158.691 271.127 170.559C252.349 192.248 210.949 187.817 202.831 186.702L201.591 186.547L201.777 187.662C202.893 195.935 207.169 237.393 185.57 256.015C173.857 266.21 156.163 268.1 132.892 261.314L132.613 262.181H132.582Z" fill="#4504AA"/>
</svg>
