<svg width="80" height="88" viewBox="0 0 80 88" fill="none" xmlns="http://www.w3.org/2000/svg">
<g clip-path="url(#clip0_585_5545)">
<path d="M31.8699 31.84C31.8699 33.91 31.4399 35.99 30.4999 37.98C28.0399 43.22 22.8499 46.29 17.3999 46.29C15.3499 46.29 13.2699 45.84 11.2799 44.92L3.13989 41.09C0.419894 39.8 -0.770106 36.55 0.519894 33.83L4.34989 25.69C5.83989 22.5 8.37989 20.1 11.3499 18.73C10.8599 16.7 9.40989 14.92 7.43989 14.21C6.78989 13.96 6.08989 13.82 5.42989 13.6C4.77989 13.35 4.13989 12.99 3.74989 12.39C3.35989 11.82 3.31989 10.98 3.76989 10.45C4.39989 9.71001 5.58989 9.90001 6.48989 10.29C9.69989 11.66 12.0999 14.77 12.6699 18.21C14.3299 17.62 16.0899 17.33 17.8699 17.41C18.7699 16.1 19.6099 14.75 20.2199 13.3C21.2599 10.84 21.6899 8.04001 20.8099 5.52001C20.4799 4.56001 19.9699 3.66001 19.8499 2.63001C19.7099 1.63001 20.1199 0.440008 21.0599 0.0900083C21.7799 -0.159992 22.6199 0.150008 23.1499 0.680008C23.6999 1.21001 24.0099 1.93001 24.2299 2.66001C25.1699 5.52001 25.2099 8.66001 24.3699 11.54C23.6699 13.87 22.4099 16 20.7099 17.74C21.6699 17.97 22.6099 18.29 23.5499 18.74C28.7899 21.2 31.8599 26.41 31.8599 31.84H31.8699Z" fill="#4504AA"/>
<path d="M47.51 46.24C47.51 48.29 47.06 50.38 46.13 52.37C43.68 57.62 38.48 60.69 33.05 60.69C31 60.69 28.91 60.24 26.92 59.31C22.4 57.2 19.5 53.06 18.79 48.48C19.32 48.54 19.86 48.57 20.4 48.57C25.83 48.57 31.02 45.5 33.48 40.25C34.41 38.26 34.86 36.17 34.86 34.12C34.86 33.36 34.8 32.61 34.67 31.87C36.19 32.04 37.73 32.48 39.19 33.16C44.44 35.63 47.51 40.81 47.51 46.24Z" fill="#4504AA"/>
<path d="M59.5899 62.2C59.5599 67.82 58.2999 73.43 55.8399 78.48C54.4999 81.22 52.7699 83.8699 50.2499 85.5999C47.7299 87.3299 44.3199 87.9799 41.5799 86.6399C38.7699 85.27 37.2599 82.2199 35.9399 79.3899C34.7599 76.8499 33.5699 74.3 32.3899 71.76C31.5299 69.91 29.5899 67.2299 29.3999 65.2699C30.1099 65.3199 30.8199 65.3799 31.5299 65.3799C38.8599 65.3799 45.8599 61.23 49.1899 54.15C50.4499 51.47 51.0499 48.64 51.0499 45.88C51.0499 44.92 50.7999 43.86 50.9299 42.95C52.5899 42.93 54.2199 44.1399 55.2399 45.3699C56.3699 46.7199 57.0699 48.37 57.6299 50.04C58.9599 53.95 59.6099 58.0799 59.5899 62.2099V62.2Z" fill="#4504AA"/>
<path d="M53.8601 19.92C57.5201 17.78 61.7401 16.35 65.9701 16.69C71.5401 17.14 76.7101 20.89 78.8801 26.03C79.6301 27.81 80.0401 29.84 79.4401 31.68C78.4001 34.9 74.6001 36.49 71.2101 36.33C67.8201 36.17 64.6601 34.72 61.4201 33.73C56.4101 32.2 51.0701 31.78 45.8801 32.49C45.3201 32.57 42.7401 33.35 42.4201 32.92C42.0301 32.4 43.3501 30.47 43.6201 30.01C44.7301 28.06 46.1201 26.27 47.7001 24.68C49.5301 22.83 51.6101 21.23 53.8601 19.92Z" fill="#4504AA"/>
<path d="M45.5499 22.41C48.9499 17.91 54.4199 15.04 60.0599 14.8C59.9699 11.96 59.5299 9.07998 58.3199 6.49998C57.0999 3.92998 55.0399 1.66998 52.3899 0.63998C49.7399 -0.39002 46.4799 -0.0300204 44.3799 1.87998C42.8799 3.23998 42.0899 5.19998 41.4699 7.11998C40.0699 11.5 39.3699 16.1 39.3599 20.7C39.3599 23.01 39.5399 25.32 39.8899 27.6C39.9799 28.17 40.0799 28.73 40.1899 29.29C40.2499 29.6 40.2999 30.68 40.5499 30.87C41.2599 31.42 41.7999 29.41 41.9599 29.03C42.9299 26.71 44.0299 24.43 45.5499 22.42V22.41Z" fill="#4504AA"/>
</g>
<defs>
<clipPath id="clip0_585_5545">
<rect width="79.72" height="87.35" fill="white"/>
</clipPath>
</defs>
</svg>
