<svg width="101" height="98" viewBox="0 0 101 98" fill="none" xmlns="http://www.w3.org/2000/svg">
<g clip-path="url(#clip0_1494_3453)">
<path d="M81.7396 26.2022C87.2611 35.2658 84.3965 47.1041 75.3143 52.6133C66.2508 58.1348 54.4224 55.2875 48.8859 46.198C54.4174 55.2788 51.5428 67.0999 42.4706 72.6264C33.4208 78.1515 21.5774 75.2783 16.0473 66.2197L15.3499 65.0519L48.1886 45.0302L81.02 25.0358L81.7433 26.1886L81.7396 26.2022Z" fill="#4504AA" fill-opacity="0.4"/>
<path d="M68.5181 78.1416C60.4442 83.0571 51.2415 82.6776 47.9566 77.288L45.5313 73.3073C53.6052 68.3918 56.4118 58.2729 53.1319 52.8919C56.4168 58.2815 66.6328 60.3161 74.7017 55.3919L77.192 59.4852C80.4769 64.8748 76.592 73.2261 68.5231 78.1503L68.5181 78.1416Z" fill="#4504AA" fill-opacity="0.4"/>
<path d="M53.8571 31.0881L53.9621 31.27C55.9821 34.7687 54.8412 39.2726 51.3701 41.3805L43.499 46.1674C39.9774 48.3277 35.3669 47.2021 33.2066 43.6804L33.0566 43.4206C31.3316 40.4328 31.0274 37.0058 31.9639 33.9479C29.3535 32.4066 27.2995 29.909 26.3587 26.9995C26.0973 26.2267 25.9248 25.3679 26.0911 24.556C26.2674 23.7614 26.8942 23.0069 27.7123 22.9041C28.885 22.7351 29.8292 23.9105 30.0947 25.0504C30.3393 26.214 30.1438 27.4354 30.356 28.5831C30.64 29.9549 31.5485 31.2085 32.7561 31.9201C33.7286 29.9845 35.2292 28.2637 37.2394 27.0454L37.4992 26.8954C39.1879 25.9204 41.0287 25.3887 42.8654 25.3099C42.6961 24.0566 42.0311 22.9048 41.0427 22.1129C40.1116 21.3803 38.9588 20.9835 38.0537 20.2359C37.1487 19.4883 36.5372 18.1092 37.2225 17.1362C37.6847 16.4768 38.6525 16.2529 39.4361 16.4702C40.2407 16.6638 40.9055 17.2153 41.4787 17.8081C43.4736 19.8434 44.7298 22.5591 44.9929 25.3748C48.531 25.8031 51.8442 27.7816 53.8521 31.0795L53.8571 31.0881Z" fill="#4504AA" fill-opacity="0.4"/>
</g>
<defs>
<clipPath id="clip0_1494_3453">
<rect width="76.93" height="68.63" fill="white" transform="translate(0 38.465) rotate(-30)"/>
</clipPath>
</defs>
</svg>
