<svg width="91" height="133" viewBox="0 0 91 133" fill="none" xmlns="http://www.w3.org/2000/svg">
<g clip-path="url(#clip0_918_2210)">
<path d="M32.5103 54.7802C31.4942 55.4811 25.8232 59.6452 21.0009 65.7035C20.4312 64.8158 19.2972 63.4457 17.5296 62.972C16.3608 62.6588 15.1606 62.7721 13.8588 63.3032L13.6242 63.406L13.5543 63.6668C13.5362 63.7344 11.9954 68.5187 10.4892 71.3969C10.6567 69.2263 11.0344 65.8075 11.9474 63.4433L12.0366 63.1877L11.9286 62.9724C11.8792 62.8867 10.838 60.8995 8.66466 60.3171C7.19646 59.9237 5.6121 60.2342 3.92833 61.2635C3.68003 58.2879 2.68707 49.398 -0.970578 45.1982C-0.696551 43.905 0.800674 37.815 6.72028 30.9844C12.756 24.0296 22.456 17.8495 24.4222 16.6164C25.7276 17.8876 31.0355 23.7719 32.3678 36.5729C33.7249 49.629 32.7418 53.9933 32.5103 54.7802Z" fill="#4504AA" fill-opacity="0.4"/>
<path d="M1.24975 57.9679C1.10038 57.9071 0.955491 57.8683 0.800943 57.8269C-3.64231 56.6363 -6.39717 60.7743 -7.49775 63.7612C-11.6639 59.2182 -16.4367 55.7031 -25.2363 53.3453C-26.9653 52.882 -28.8239 52.4771 -30.8068 52.1115C-31.1597 52.0376 -31.503 51.9663 -31.8314 51.8783C-34.6132 51.1329 -36.4569 49.5519 -37.4968 47.0578C-38.6124 44.3052 -38.5347 41.272 -38.299 38.6538C-37.9951 35.0082 -37.3034 31.3837 -36.2325 27.8505C-35.7306 26.1319 -35.1217 24.4005 -34.4304 22.6704C-33.876 21.2971 -33.5134 20.7938 -33.3187 20.6079C-32.4268 21.9546 -31.2281 23.0833 -30.0435 24.1875L-29.5089 24.7035C-27.446 26.6642 -25.4068 27.8628 -22.8268 29.3617C-19.4518 31.3323 -15.2504 33.7729 -9.12636 39.1615C-0.461255 46.7736 1.00625 55.2834 1.25941 57.9705L1.24975 57.9679Z" fill="#4504AA" fill-opacity="0.4"/>
<path d="M67.4729 71.1568C65.2357 74.9469 63.0525 76.6809 60.8324 76.4277C60.5419 76.3913 60.2541 76.3452 59.9546 76.265C59.1529 76.0502 58.3462 75.6994 57.5666 75.3249L57.0155 75.0633C55.7394 74.4937 54.319 73.9992 52.4838 73.5074C51.5565 73.259 50.6188 73.0491 49.7031 72.8348C46.8496 72.1634 44.3353 71.8106 42.017 71.7692C41.3233 71.7697 40.6488 71.7753 39.964 71.8196C36.8802 72.0078 33.2886 72.3913 30.0115 73.6873L29.6184 73.8408L28.8392 74.16C28.8677 74.0537 28.9155 73.9527 28.9388 73.8657C29.0086 73.6049 29.0901 73.3783 29.1406 73.1123C29.3476 71.9151 29.2807 70.6962 28.931 69.5673C28.7346 68.9866 28.4751 68.4098 28.1324 67.8728C27.3859 66.6789 26.4535 65.8701 25.3518 65.461L25.1638 65.3899L24.8644 65.3097C24.6905 65.2631 24.5167 65.2165 24.3376 65.1892C24.4099 65.074 24.4944 64.9517 24.5667 64.8365C24.8196 64.5109 25.0577 64.202 25.3221 63.9105L25.7034 63.4536C27.9722 60.6658 30.6153 58.4131 33.3077 56.9812C35.1137 56.0364 37.1644 55.2607 39.6278 54.606C41.7645 54.0501 44.0981 53.609 46.9767 53.2208C49.2303 52.924 51.6912 52.7034 54.7711 52.6073C56.1496 52.5625 57.4992 52.51 58.8726 52.4846C62.1585 52.3919 65.5559 52.3084 68.8847 51.9787C70.1751 51.8379 71.3637 51.6905 72.5048 51.489C72.6774 51.4628 73.0041 51.364 73.3476 51.28C73.7329 51.1555 74.4914 50.9135 74.7581 50.9229C74.841 51.0383 74.9648 51.4649 74.4782 53.2808L74.3695 53.6865C72.9946 59.861 70.6493 65.7548 67.4362 71.178L67.4729 71.1568Z" fill="#4504AA" fill-opacity="0.4"/>
<path d="M-2.3879 75.3691C-3.30603 75.0092 -4.2152 74.6931 -5.12317 74.4498C-19.5734 70.5779 -26.9267 84.1885 -28.3151 87.1293C-29.0271 86.7729 -30.6849 85.9664 -34.5088 84.01C-42.6859 79.8312 -47.6527 72.5579 -49.667 61.8C-51.4438 52.3584 -50.9133 49.374 -50.5638 48.4945C-48.8281 49.8603 -46.2367 50.9687 -42.5469 51.9574C-40.0838 52.6174 -37.4292 53.1424 -34.6278 53.7377C-31.6448 54.3506 -28.5794 54.965 -25.6236 55.7569C-22.6679 56.5489 -20.3383 57.3595 -18.2827 58.3037C-9.64017 62.2138 -4.1551 71.8415 -2.39755 75.3665L-2.3879 75.3691Z" fill="#4504AA" fill-opacity="0.4"/>
<path d="M69.6805 93.4791C69.6185 93.5556 61.9663 101.289 56.0765 103.179L55.0132 103.515C50.1035 105.108 49.8399 105.203 35.5388 103.711C35.7829 101.603 36.1949 94.2693 31.586 88.3652C27.7604 83.4786 23.3944 81.729 21.1342 81.1234L20.9217 81.0664C24.2297 78.6503 35.7315 71.3484 48.9551 74.8916C49.3414 74.9951 49.7226 75.118 50.1135 75.2434C55.0652 76.7773 58.8783 78.0785 61.9807 79.0961C65.5575 80.3134 68.175 81.17 70.5029 81.7938C73.0046 82.4641 75.0848 82.8144 77.4474 82.9609C77.4268 83.4627 76.8747 85.7166 69.6805 93.4791Z" fill="#4504AA" fill-opacity="0.4"/>
<path d="M30.9791 124.013C29.4433 123.601 26.1 122.633 22.258 121.169C18.4239 119.676 14.1297 117.697 10.7122 115.228C3.95633 110.343 2.66959 105.795 2.45252 104.712C5.27369 101.679 6.26607 99.2116 7.8675 94.8578C8.22102 93.8862 8.47346 92.8668 8.64364 91.6907C8.78465 90.6622 8.84978 89.5305 8.85953 88.3736C8.84886 88.143 8.85043 87.9053 8.84891 87.5632C8.82289 87.2353 8.80464 86.8784 8.77862 86.5505L8.76795 86.3199C8.75487 85.9437 8.72368 85.6351 8.65833 85.3381C8.95777 85.4183 9.29136 85.487 9.60373 85.5189C10.5338 85.6025 11.4009 85.5346 12.2244 85.3204C12.7676 85.1865 13.2954 84.9552 13.8826 84.657C14.1276 84.5156 14.3584 84.3497 14.5918 84.1741C14.7877 84.061 14.9599 83.9207 15.1533 83.8173C15.8636 83.4071 16.758 83.1602 17.6831 83.1079C18.5064 83.0489 19.3945 83.173 20.3508 83.4293C20.6309 83.5043 20.8917 83.5742 21.1666 83.6686C22.862 84.2574 24.4689 85.0607 25.975 86.0854C26.1114 86.1944 26.2407 86.2912 26.4017 86.3861C26.4351 86.4158 26.4782 86.448 26.4976 86.4532C32.813 91.7068 32.9462 97.7781 33.0256 101.423C33.035 102.16 33.051 102.796 33.1225 103.302C33.3983 105.364 31.8985 117.375 30.972 124.001L30.9791 124.013Z" fill="#4504AA" fill-opacity="0.4"/>
<path d="M5.73465 93.8927C3.22744 102.632 -0.560624 104.598 -0.592884 104.641L-0.670851 104.662L-0.732782 104.738C-0.82369 104.807 -9.61641 112.856 -31.8134 106.908C-32.6151 106.693 -33.4072 106.481 -34.2423 106.237C-33.1078 103.393 -28.0565 90.6463 -25.8069 87.2736C-25.645 87.0168 -25.4636 86.7652 -25.3017 86.5083L-25.2113 86.3255C-24.9822 85.9728 -24.7356 85.5937 -24.482 85.2268C-24.2058 84.8142 -23.9445 84.4184 -23.6516 84.0206C-23.3509 83.5939 -23.0231 83.1434 -22.6838 82.7271C-22.3393 82.2914 -21.9632 81.8538 -21.5756 81.4504C-21.1557 81.0038 -20.7384 80.5669 -20.3173 80.1932C-19.8588 79.757 -19.3598 79.3627 -18.8904 79.0019C-18.3772 78.6321 -17.8402 78.2894 -17.2987 77.9687C-16.7231 77.6363 -16.1218 77.3626 -15.5211 77.1302C-14.8908 76.8642 -14.2374 76.6666 -13.5699 76.4935C-12.8566 76.343 -12.1266 76.2073 -11.398 76.154C-10.6134 76.0848 -9.80816 76.0935 -9.01333 76.1408C-8.1457 76.1869 -7.28206 76.3252 -6.37787 76.5053C-5.88008 76.618 -5.37262 76.7333 -4.86068 76.8704C-4.30044 77.0206 -3.78402 77.1796 -3.30951 77.3793C-2.84656 77.5447 -2.43519 77.7481 -2.06056 77.9727C-1.86617 78.0973 -1.65954 78.2148 -1.4781 78.3876C-1.37064 78.4889 -1.22645 78.5689 -1.17575 78.7275C-1.16678 78.7713 -1.1604 78.8247 -1.14178 78.8711C-1.08729 79.0928 -1.0328 79.3145 -0.944161 79.5246C-0.663585 80.2934 -0.214824 81.0141 0.378316 81.6596C0.854344 82.2013 1.46181 82.716 2.15312 83.1497C2.70989 83.506 3.31565 83.8339 3.95367 84.1187C4.42299 84.3377 4.88594 84.5031 5.36114 84.6615L5.9407 84.8168C6.53888 85.0185 7.67334 87.0825 5.71982 93.9095L5.73465 93.8927Z" fill="#4504AA" fill-opacity="0.4"/>
<path d="M-0.428267 74.2379C-2.9231 69.4076 -4.89326 66.9851 -5.52106 66.2372C-5.21584 65.2526 -4.12146 62.057 -2.48182 60.7674C-1.8841 60.2753 -1.22948 60.1505 -0.495379 60.3472C0.0841761 60.5025 0.59265 60.8458 0.88483 61.069C0.5846 62.1895 -0.331807 65.7641 -0.708631 68.9864C-0.878672 70.5869 -0.697375 72.499 -0.428267 74.2379Z" fill="#4504AA" fill-opacity="0.4"/>
<path d="M7.8953 77.6379C7.24461 78.2503 5.2346 80.0722 3.35348 81.297C2.82051 80.9679 1.54383 79.8597 1.62514 77.0448C1.77985 73.1833 1.88279 71.6787 2.71392 68.8473C3.65357 65.7655 5.22398 63.1115 6.31293 62.8339C6.9534 62.6846 7.4488 62.6517 7.90279 62.7733C8.30847 62.882 8.7095 63.124 9.16121 63.5246C8.66137 65.1196 6.75406 72.0832 7.8953 77.6379Z" fill="#4504AA" fill-opacity="0.4"/>
<path d="M15.5381 79.8309C15.1185 80.5467 13.7177 82.4904 12.4083 82.8953C10.7451 83.4228 8.47172 83.0207 6.47276 82.599C6.26026 82.542 6.08122 82.5148 5.88803 82.463C5.2795 82.3 4.82431 82.1055 4.50177 81.957C6.80896 80.4943 9.37155 77.692 11.1946 75.4474C13.2202 72.9879 15.3281 66.9372 15.8691 65.343C16.4708 65.3385 16.9481 65.3732 17.3344 65.4768C18.3873 65.7589 19.5496 66.5983 19.027 70.558C18.3619 75.6286 15.5878 79.7614 15.5503 79.8239L15.5381 79.8309Z" fill="#4504AA" fill-opacity="0.4"/>
<path d="M26.4383 75.1215C23.6368 76.2654 18.3296 79.999 17.1852 80.8311C17.0062 80.8039 16.8271 80.7766 16.6403 80.7783C21.4148 75.9806 23.1851 69.3736 23.602 67.6632C24.0974 67.6303 24.5476 67.6888 24.9339 67.7924C25.668 67.9891 26.1829 68.3859 26.548 69.0324C27.5564 70.9487 26.7325 74.2168 26.4357 75.1311L26.4383 75.1215Z" fill="#4504AA" fill-opacity="0.4"/>
</g>
<defs>
<clipPath id="clip0_918_2210">
<rect width="132.62" height="102.04" fill="white" transform="translate(-37.5903) rotate(15)"/>
</clipPath>
</defs>
</svg>
