<svg width="477" height="862" viewBox="0 0 477 862" fill="none" xmlns="http://www.w3.org/2000/svg">
<g clip-path="url(#clip0_1494_3386)">
<path d="M256.715 256.022C257.023 256.491 257.341 256.934 257.649 257.403C265.981 269.52 274.604 282.008 286.515 290.953C283.179 293.234 279.632 295.512 275.768 297.893C267.026 303.236 257.823 308.254 248.909 313.097L246.795 314.253C234.886 320.741 225.021 325.134 215.716 328.05C214.946 328.286 214.151 328.51 213.382 328.745L213.309 328.774C204.928 328.496 196.537 329.273 188.392 330.038C184.197 330.427 179.841 330.836 175.588 331.078C178.476 329.265 181.436 327.424 184.417 325.743C196.965 318.63 207.258 312.307 216.825 304.544C231.687 292.459 244.778 276.568 256.78 256.081M256.492 249.6C245.586 269.179 232.042 287.744 214.65 301.86C204.75 309.899 193.799 316.477 182.711 322.751C176.098 326.492 169.825 330.836 163.266 334.66C166.907 334.844 170.575 334.828 174.187 334.666C187.394 334.016 200.611 331.767 213.777 332.309C214.78 332.025 215.808 331.752 216.796 331.432C227.859 327.96 238.35 322.904 248.508 317.369C258.303 312.037 268.113 306.741 277.637 300.926C282.731 297.817 287.753 294.525 292.629 291.017C292.373 290.844 292.105 290.696 291.849 290.522C276.779 280.577 267.022 264.623 256.506 249.636L256.492 249.6Z" fill="#4504AA" fill-opacity="0.4"/>
<path d="M409.002 226.607C411.145 231.697 413.217 236.878 415.643 242.971C417.676 248.104 420.21 254.638 422.461 261.471L421.714 261.655C401.449 266.576 382.299 271.231 363.183 263.737C362.071 263.307 360.996 262.864 359.907 262.383C352.434 259.087 345.206 254.688 338.231 250.402L335.818 248.944C329.445 245.074 323.39 241.858 317.307 239.115L316.294 238.668C313.052 237.238 309.815 235.932 306.512 234.777L309.855 233.921C316.492 232.25 323.444 231.171 330.174 230.114C332.413 229.771 334.652 229.427 336.903 229.058C347.184 227.359 358.18 227.126 368.816 226.885C370.438 226.844 372.06 226.803 373.671 226.787C387.129 226.46 398.443 226.397 408.98 226.657M411.295 223.261C398.709 222.914 386.096 223.039 373.554 223.347C361.26 223.643 348.419 223.668 336.306 225.678C327.169 227.185 317.952 228.324 308.963 230.593C306.072 231.315 303.17 232.063 300.28 232.785C299.704 232.924 299.092 233.078 298.665 233.495C297.541 234.603 298.961 235.774 300.051 236.254C300.177 236.31 300.304 236.366 300.431 236.422C305.427 237.99 310.189 239.818 314.824 241.863C315.154 242.008 315.483 242.153 315.812 242.299C321.996 245.087 327.939 248.283 333.929 251.923C341.923 256.781 349.901 261.813 358.437 265.578C359.552 266.069 360.692 266.572 361.84 266.988C383.433 275.453 405.206 269.171 426.786 264.014C424.449 256.416 421.633 248.941 418.782 241.753C416.328 235.587 413.859 229.384 411.259 223.275L411.295 223.261Z" fill="#4504AA" fill-opacity="0.4"/>
<path d="M319.519 251.801C335.832 258.996 346.207 266.962 352.152 276.876C355.146 281.888 356.508 287.512 357.962 293.479C358.439 295.414 358.92 297.412 359.463 299.406C362.902 311.846 367.726 323.96 373.83 335.367C374.361 336.357 375.174 337.533 376.001 338.745C376.814 339.921 378.332 342.103 378.983 343.51C378.181 343.338 377.261 343.023 376.808 342.883C376.518 342.786 376.254 342.699 376.04 342.635C372.757 341.641 369.476 340.436 366.309 339.039C361.522 336.928 356.961 334.371 352.68 331.454L351.705 330.782C349.832 329.472 347.883 328.128 345.629 327.134L345.325 327C343.464 326.209 341.585 325.804 339.772 325.731C339.374 317.99 336.351 310.575 331.038 304.509C324.413 296.958 315.623 292.052 307.14 287.342C303.179 285.141 299.434 283.065 295.9 280.72C288.564 275.88 283.071 270.976 279.112 265.75C276.491 262.295 274.808 259.525 273.905 257.25C273.769 256.736 274.186 255.377 277.057 251.681L277.489 251.115C279.763 248.154 282.705 245.942 286.027 244.654C292.634 242.091 300.132 244.369 306.641 246.696C307.789 247.111 308.912 247.516 310.049 247.957C313.622 249.321 316.721 250.597 319.533 251.837M320.929 248.671C317.712 247.252 314.476 245.945 311.293 244.723C310.131 244.271 308.983 243.855 307.809 243.429C300.493 240.807 292.374 238.496 284.793 241.416C280.85 242.945 277.361 245.642 274.759 249.003C273.045 251.243 269.478 255.419 270.681 258.522C271.938 261.709 274.259 265.092 276.338 267.855C281.132 274.206 287.39 279.296 293.983 283.626C305.417 291.181 319.253 296.376 328.421 306.805C334.022 313.179 336.892 321.283 336.236 329.769C338.679 328.758 341.499 329.155 343.942 330.202C344.018 330.236 344.094 330.269 344.17 330.303C346.501 331.331 348.571 332.88 350.661 334.316C355.148 337.384 359.911 340.03 364.876 342.22C368.169 343.672 371.552 344.922 374.998 345.958C377.024 346.579 381.448 348.349 382.486 345.721C382.631 345.391 382.686 344.992 382.713 344.52C382.778 341.492 378.319 336.439 376.875 333.745C370.882 322.568 366.157 310.71 362.802 298.489C360.596 290.525 359.443 282.301 355.116 275.097C347.555 262.533 334.341 254.556 320.915 248.634L320.929 248.671Z" fill="#4504AA" fill-opacity="0.4"/>
<path d="M61.9695 186.525C66.9851 188.737 71.2319 192.486 75.4481 196.373C75.8393 206.531 76.9472 216.642 78.6198 226.639C81.0333 241.199 84.7646 255.584 88.7962 269.769C89.7501 273.094 90.7911 276.428 91.8798 279.722C89.799 278.472 87.5892 277.376 85.3601 276.393C78.6727 273.443 71.4707 271.386 64.8086 268.447C60.5277 266.559 56.4904 264.324 52.9454 261.248C44.7566 254.156 40.4936 243.652 36.5242 233.58C29.8454 216.685 25.3522 197.304 9.04705 186.935L19.7861 185.226C32.7645 183.174 44.7873 182.123 57.673 185.083C59.1779 185.444 60.6017 185.921 61.9695 186.525ZM63.2991 183.51C61.7033 182.806 60.0404 182.254 58.423 181.874C45.3741 178.872 33.3424 179.738 19.2822 181.978L12.6145 183.031L8.54317 183.687L-0.0435854 185.043L7.28386 189.697C19.8802 197.704 25.1239 212.091 30.1694 225.966C31.2149 228.878 32.314 231.874 33.4578 234.769C37.3706 244.695 41.8043 255.91 50.7963 263.719C54.2116 266.678 58.2467 269.124 63.4902 271.436C66.9099 272.945 70.4808 274.248 73.9615 275.48C77.3298 276.694 80.7993 277.952 84.0417 279.382C86.3721 280.41 88.3934 281.452 90.1926 282.518L97.8658 287.143L95.0028 278.679C93.9059 275.472 92.8902 272.149 91.9505 268.86C88.5948 257.122 84.4387 241.642 81.8538 226.099C80.1752 215.978 79.1322 205.926 78.7395 196.251L78.6738 194.891L77.6874 193.972C73.4175 190.001 68.7959 185.935 63.2991 183.51Z" fill="#4504AA" fill-opacity="0.4"/>
<path d="M150.683 216.244C150.312 217.29 149.966 218.348 149.621 219.406C145.668 231.249 142.084 243.285 140.151 255.625C138.069 268.989 137.643 282.509 137.538 295.988C137.448 307.991 137.557 320.022 136.984 332.024C136.297 331.661 135.599 331.323 134.909 330.897C131.458 325.139 125.898 320.387 121.516 315.367C112.097 304.616 105.861 291.517 101.185 278.108C96.3932 264.344 92.7207 249.895 89.7768 235.645C87.719 225.63 86.2737 215.461 85.4213 205.25C85.9987 205.656 86.5761 206.062 87.1647 206.443C89.8007 208.15 92.5372 209.63 95.3742 210.881C112.118 218.266 131.819 217.848 150.657 216.232M155.375 212.534L150.375 212.961C132.069 214.539 112.89 215.006 96.7038 207.867C93.9934 206.671 91.3835 205.248 88.9532 203.692C88.4153 203.333 87.8774 202.975 87.3507 202.591L81.5565 198.371L82.1501 205.532C82.983 215.855 84.4739 226.195 86.5488 236.309C89.8661 252.388 93.6302 266.424 98.0766 279.188C103.674 295.243 110.514 307.792 119.028 317.508C120.458 319.137 122.037 320.772 123.526 322.336C126.658 325.594 129.894 328.958 132.077 332.583L132.47 333.271L133.135 333.685C133.633 333.996 134.154 334.256 134.664 334.541C134.892 334.642 135.108 334.768 135.325 334.893L139.948 337.447L140.189 332.167C140.643 322.836 140.659 313.402 140.701 304.252C140.704 301.5 140.733 298.759 140.737 296.007C140.85 283.197 141.205 269.495 143.323 256.117C145.314 243.439 149.15 230.969 152.671 220.449C152.997 219.504 153.312 218.583 153.613 217.627L153.747 217.323L155.339 212.548L155.375 212.534Z" fill="#4504AA" fill-opacity="0.4"/>
<path d="M221.365 216.525C223.34 217.397 225.272 218.37 227.147 219.469C236.647 224.961 244.045 232.884 250.741 241.647C246.68 249.206 242.276 256.583 237.349 263.639C230.358 273.657 222.461 283.397 213.258 291.502C204.055 299.607 193.678 306.256 183.092 312.42C171.65 319.083 160.62 327.35 148.302 332.296C148.072 332.406 147.878 332.502 147.673 332.624C147.246 332.496 146.807 332.393 146.354 332.254C147.659 308.44 145.944 284.475 148.641 260.731C150.531 244.166 154.985 227.552 160.95 211.695C181.409 209.765 202.927 208.453 221.317 216.565M222.647 213.551C203.75 205.216 181.658 206.456 160.632 208.437L158.583 208.623L157.857 210.542C151.365 227.801 147.178 244.564 145.351 260.37C143.71 274.654 143.68 289.196 143.627 303.243C143.589 312.728 143.566 322.521 143.037 332.092L142.9 334.664L145.354 335.413C145.644 335.511 145.945 335.583 146.271 335.667L146.76 335.792L148.08 336.162L149.287 335.484L149.564 335.334C158.308 331.838 166.415 326.699 174.233 321.735C177.673 319.561 181.245 317.294 184.753 315.24C194.289 309.673 205.399 302.802 215.446 293.95C223.768 286.607 231.799 277.319 240.055 265.529C244.751 258.794 249.208 251.501 253.654 243.204L254.655 241.346L253.372 239.66C244.998 228.735 237.416 221.639 228.809 216.662C226.857 215.529 224.8 214.5 222.697 213.573L222.647 213.551Z" fill="#4504AA" fill-opacity="0.4"/>
<path d="M300.338 299.198C303.301 300.506 309.791 304.246 310.619 304.702C314.518 306.906 318.172 309.667 320.934 313.215C324.263 317.468 326.877 324.37 325.49 330.052C325.243 331.093 324.833 332.092 324.296 333.035C321.109 331.478 318.251 328.765 314.908 327.29C314.35 327.045 313.782 326.824 313.216 326.665C306.166 324.675 298.328 326.12 291.647 328.711C282.047 332.434 273.262 338.424 263.159 340.474C252.43 342.64 241.637 340.149 230.817 337.858C236.05 335.597 241.148 333.095 246.164 330.435C264.173 320.889 282.619 311.173 298.903 298.747C299.035 298.654 299.563 298.827 300.349 299.173M301.678 296.159C300.538 295.656 298.639 294.818 296.905 296.141C281.149 308.194 263.104 317.755 245.651 327.002L244.66 327.533C239.378 330.317 234.448 332.712 229.543 334.845L220.048 338.948L230.154 341.075L231.619 341.389C242.077 343.611 252.934 345.888 263.824 343.702C270.636 342.319 276.838 339.305 282.794 336.365C286.076 334.756 289.467 333.105 292.837 331.777C297.911 329.809 305.402 327.848 312.314 329.808C312.717 329.925 313.133 330.078 313.589 330.279C315.084 330.939 316.571 331.958 318.123 333.036C319.61 334.055 321.162 335.132 322.851 335.968L325.581 337.324L327.128 334.708C327.828 333.534 328.347 332.22 328.689 330.827C330.379 323.978 327.318 316.031 323.526 311.181C320.764 307.633 316.943 304.495 312.216 301.835L311.833 301.606C310.023 300.565 304.479 297.424 301.642 296.173L301.678 296.159Z" fill="#4504AA" fill-opacity="0.4"/>
<path d="M94.0225 97.1161C95.6567 111.453 95.1408 125.932 96.4293 140.298C97.3085 150.036 100.035 159.015 104.5 167.279C101.34 166.278 98.2558 165.039 95.2161 163.698C88.5541 160.76 82.0761 157.267 75.5154 154.373C75.2621 154.261 75.0088 154.15 74.7301 154.027C70.514 152.197 66.2756 150.419 62.0453 148.553C53.9141 144.966 45.9058 141.101 38.5299 136.214C27.6054 128.944 18.4739 119.53 10.6185 109.076C12.0042 109.021 13.4153 108.978 14.7898 108.949C33.9832 108.791 53.6842 111.186 71.9533 105.235C79.3874 102.855 86.5563 99.0879 94.0478 97.1272M96.8837 92.9617L93.2124 93.9447C88.8193 95.1236 84.5513 96.8419 80.4182 98.5289C77.3183 99.7942 74.109 101.102 70.9719 102.109C57.5108 106.49 42.7688 106.16 28.499 105.857C24.0067 105.752 19.3653 105.641 14.7806 105.677C13.3554 105.683 11.9332 105.752 10.4857 105.809L4.25155 106.086L7.98737 111.062C16.8643 122.905 26.2676 132.046 36.7049 138.979C44.6835 144.284 53.3333 148.341 60.7299 151.604C63.3643 152.766 65.9846 153.891 68.6048 155.016C70.2006 155.72 71.833 156.41 73.44 157.089L74.1999 157.424C77.417 158.843 80.7048 160.444 83.8659 161.99C87.1284 163.58 90.5064 165.252 93.9007 166.749C97.2951 168.246 100.554 169.502 103.525 170.449L111.243 172.915L107.402 165.775C103.113 157.801 100.525 149.125 99.7148 140.053C99.1428 133.598 98.9218 126.964 98.7238 120.553C98.4714 112.755 98.207 104.711 97.3161 96.7835L96.8979 92.9982L96.8837 92.9617Z" fill="#4504AA" fill-opacity="0.4"/>
<path d="M-0.330592 110.026C8.67601 123.015 19.3349 134.797 32.5124 143.545C41.2853 149.381 50.7374 153.883 60.3378 158.118C63.8588 159.671 67.3768 161.162 70.8978 162.715C71.2018 162.849 71.5058 162.983 71.8351 163.129C78.4717 166.056 84.958 169.461 91.62 172.4C97.3955 174.947 103.291 177.154 109.524 178.391C110.336 178.537 111.078 178.501 111.702 178.323C111.86 178.513 112.007 178.729 112.153 178.945C119.815 188.467 128.772 196.836 136.551 206.228C122.542 206.706 108.841 205.595 96.9356 200.344C94.1999 199.137 91.59 197.714 89.0554 196.051C85.5493 193.778 82.3559 190.796 78.9965 187.711C74.1939 183.232 69.3234 178.633 63.2947 175.974C61.7495 175.292 60.1485 174.737 58.4439 174.349C45.4233 171.419 33.338 172.201 19.213 174.383L15.4001 175.001C15.2614 173.669 15.0862 172.351 14.8604 171.011C11.765 153.88 -0.881027 139.195 -16.7635 132.189C-23.3495 129.284 -30.4659 127.719 -37.7125 127.821C-28.6042 116.981 -14.7372 112.023 -0.389442 110.09M1.1636 106.569L-0.831489 106.839C-18.4669 109.228 -31.7341 115.57 -40.2315 125.711L-44.8739 131.228L-37.6779 131.104C-31.0892 130.984 -24.5018 132.377 -18.1184 135.192C-2.6159 142.03 8.78 155.983 11.6041 171.602C11.8128 172.844 11.9484 174.114 12.1095 175.395L12.5098 178.81L15.8928 178.274L19.7057 177.656C33.3502 175.535 45.025 174.724 57.6939 177.558C59.0975 177.875 60.5466 178.362 61.9398 178.977C67.3606 181.368 71.9941 185.681 76.4726 189.865L76.7319 190.101C80.2605 193.352 83.5298 196.367 87.2415 198.791C89.8157 200.501 92.6535 202.025 95.5919 203.322C106.433 208.104 119.457 210.066 136.659 209.483L143.354 209.259L139.089 204.11C135.338 199.581 131.301 195.288 127.393 191.114C123.118 186.535 118.664 181.817 114.72 176.9L114.562 176.709C114.469 176.578 114.376 176.446 114.282 176.314L112.897 174.583L110.782 175.194C110.782 175.194 110.476 175.27 110.15 175.187C104.944 174.162 99.6258 172.361 92.9384 169.411C89.6454 167.958 86.3323 166.346 83.1093 164.803C79.861 163.249 76.4972 161.614 73.1281 160.128L72.1909 159.715L69.2525 158.419C66.7194 157.302 64.1893 156.246 61.6562 155.129C52.6891 151.174 43.1639 146.7 34.3404 140.841C22.7119 133.11 12.2557 122.446 2.35722 108.185L1.21128 106.53L1.1636 106.569Z" fill="#4504AA" fill-opacity="0.4"/>
<path d="M119.585 99.7371C125.639 102.407 131.536 105.916 137.666 108.62C138.831 109.134 139.982 109.611 141.181 110.049C128.918 124.611 118.723 140.933 110.707 158.215C108.061 152.207 106.388 145.78 105.772 138.67C104.526 124.413 105.07 110.007 103.416 95.7825C103.54 95.7765 103.638 95.7594 103.751 95.7787C109.32 95.8446 114.53 97.4772 119.622 99.723M120.951 96.7086C114.543 93.8818 109.085 92.5338 103.789 92.4672C103.64 92.462 103.48 92.4821 103.32 92.5023L99.6261 92.507L100.162 96.1627C101.055 103.879 101.317 111.862 101.541 119.586C101.736 125.936 101.94 132.471 102.5 138.952C103.125 146.247 104.85 152.969 107.697 159.55L110.622 166.227L113.699 159.595C121.782 142.161 131.882 126.191 143.7 112.159L146.689 108.606L142.322 106.982C141.21 106.552 140.073 106.111 138.984 105.631C136.02 104.324 132.994 102.747 130.083 101.251C127.107 99.6963 124.019 98.1224 120.904 96.7481L120.951 96.7086Z" fill="#4504AA" fill-opacity="0.4"/>
<path d="M202.395 109.363C200.091 111.978 197.788 114.593 195.485 117.208C187.603 126.228 179.49 135.086 172.239 144.597C159.579 161.223 148.111 180.432 145.171 201.436C138.101 192.63 129.95 184.768 122.521 176.226C120.172 173.526 118.056 170.777 116.159 167.943C124.833 147.592 136.501 128.41 151.184 111.859C166.267 113.338 181.532 105.486 196.597 107.895C198.597 108.232 200.504 108.71 202.381 109.326M208.145 107.783L203.42 106.214C201.279 105.512 199.209 104.992 197.122 104.646C188.665 103.307 180.29 104.938 172.21 106.518C165.026 107.919 158.236 109.251 151.51 108.584L149.854 108.428L148.75 109.696C134.254 126.027 122.288 145.198 113.148 166.675L112.433 168.296L113.446 169.772C115.397 172.69 117.631 175.582 120.034 178.367C123.13 181.911 126.348 185.388 129.497 188.744C133.941 193.487 138.528 198.385 142.604 203.482L147.366 209.425L148.427 201.874C150.83 184.627 159.253 167.04 174.85 146.566C180.527 139.114 186.863 131.954 192.985 125.002C194.667 123.111 196.311 121.234 197.967 119.332C200.271 116.717 202.549 114.09 204.877 111.486L208.181 107.769L208.145 107.783Z" fill="#4504AA" fill-opacity="0.4"/>
<path d="M213.134 110.741C215.085 111.874 216.966 113.097 218.851 114.382C218.219 124.664 218.285 135.011 219.23 145.353C220.39 158.089 222.548 170.691 226.63 182.84C230.857 195.416 236.551 208.095 243.843 219.209C244.86 220.746 245.898 222.233 246.974 223.706C247.981 225.058 249.424 226.451 250.165 227.928C243.644 222.268 238.522 215.015 231.412 210.004C231.015 209.738 230.618 209.472 230.21 209.231C228.168 208.028 226.085 206.988 223.958 206.05C203.389 196.977 179.454 199.31 158.07 201.347C157.404 201.416 156.749 201.46 156.083 201.529C158.65 180.754 170.205 162.037 182.87 145.807C190.027 136.648 197.893 128.074 205.54 119.313C208.042 116.453 210.581 113.579 213.109 110.73M212.448 106.534L210.66 108.53C208.132 111.379 205.593 114.253 203.08 117.139C201.318 119.145 199.566 121.126 197.804 123.133C191.939 129.775 185.861 136.626 180.293 143.762C169.915 157.067 155.777 177.459 152.852 201.103L152.366 205.155L156.438 204.772L157.352 204.691L158.425 204.59L158.869 204.543C179.55 202.591 203.008 200.38 222.639 209.039C224.666 209.933 226.673 210.939 228.548 212.038C232.935 214.579 237.183 217.844 241.527 222.06L264.026 244.935L246.665 218.093L246.219 217.321L245.405 215.873C238.144 202.836 233.158 191.983 229.714 181.749C226.097 171.015 223.733 159.019 222.462 145.023C221.58 135.224 221.433 124.992 222.106 114.547L222.216 112.719L220.715 111.664C218.727 110.272 216.719 108.993 214.768 107.86L212.459 106.509L212.448 106.534Z" fill="#4504AA" fill-opacity="0.4"/>
<path d="M300.796 138.453C299.631 142.81 298.943 147.318 298.917 151.906C298.868 162.445 302.562 172.456 308.806 180.869C316.524 191.293 332.29 203.845 329.89 218.067C318.417 219.724 307.109 222.241 296.332 226.232C287.405 229.526 278.364 234.314 271.783 241.275C267.318 233.012 260.09 226.556 255.431 218.389C249.259 207.617 243.342 196.747 238.792 185.178C230.669 164.56 227.825 141.851 228.55 119.628C235.106 124.729 241.675 129.865 249.097 133.139C249.477 133.307 249.883 133.486 250.263 133.653C265.474 139.848 282.626 137.458 299.005 138.329C299.601 138.349 300.2 138.432 300.81 138.489M305.016 135.472L301.023 135.194C300.787 135.181 300.551 135.167 300.289 135.143C299.915 135.099 299.53 135.08 299.145 135.062C294.534 134.813 289.837 134.829 285.3 134.825C273.277 134.848 261.887 134.877 251.48 130.619C251.125 130.463 250.77 130.307 250.39 130.139C243.348 127.033 236.883 122.002 230.598 117.112L225.51 113.143L225.235 119.528C224.431 144.197 227.971 166.698 235.701 186.356C240.081 197.487 245.614 207.855 252.546 219.991C254.942 224.164 257.909 227.864 260.798 231.468C263.845 235.262 266.694 238.819 268.858 242.83L271.009 246.804L274.123 243.518C279.549 237.802 287.386 232.998 297.434 229.29C307.08 225.738 317.836 223.099 330.343 221.293L332.706 220.943L333.113 218.581C335.206 206.22 325.962 195.758 317.843 186.519C315.457 183.832 313.226 181.275 311.463 178.893C305.376 170.671 302.199 161.342 302.225 151.883C302.253 147.84 302.829 143.586 303.983 139.253L305.024 135.385L305.016 135.472Z" fill="#4504AA" fill-opacity="0.4"/>
<path d="M341.922 148.665C362.415 157.704 380.494 172.214 393.269 190.588C398.505 198.132 402.848 206.19 406.731 214.469C397.316 214.341 387.877 214.474 378.553 214.689C365.724 214.961 352.621 215.445 339.635 216.828C340.375 203.145 329.564 191.296 320.786 180.737C314.496 173.181 309.46 165.392 308.515 155.323C308.005 149.893 308.802 144.586 310.328 139.48C321.203 141.1 331.866 144.229 341.922 148.665ZM343.252 145.651C332.816 141.047 321.903 137.868 310.817 136.246L308.007 135.824L307.197 138.553C305.407 144.602 304.759 150.186 305.258 155.641C306.333 167.13 312.443 175.846 318.274 182.866L320.076 185.023C328.007 194.482 336.991 205.192 336.354 216.652L336.142 220.492L339.978 220.096C353.237 218.713 366.392 218.251 378.639 217.995C387.529 217.801 397.067 217.65 406.692 217.781L411.952 217.861L409.726 213.097C405.289 203.606 400.789 195.629 395.968 188.722C382.993 170.048 364.758 155.136 343.252 145.651Z" fill="#4504AA" fill-opacity="0.4"/>
<path d="M426.221 272.842C429.638 287.391 430.171 302.029 423.602 315.139C419.763 322.675 413.99 328.903 408.186 334.997C406.241 337.075 404.296 339.152 402.351 341.229C399.947 341.258 397.552 341.2 395.16 341.204C392.741 338.594 390.403 335.868 388.219 332.999C375.488 316.036 370.069 295.46 362.801 275.854C373.708 279.939 384.842 280.765 396.503 279.161C406.526 277.772 416.369 275.214 426.207 272.806M428.655 268.832L425.433 269.62L421.978 270.456C413.489 272.552 404.73 274.71 396.061 275.909C384.4 277.514 373.901 276.483 363.953 272.761L357.225 270.248L359.731 276.981C361.199 280.927 362.61 284.999 363.979 288.961C369.463 304.724 375.122 321.049 385.588 334.985C387.574 337.616 389.836 340.308 392.726 343.429L393.682 344.486L395.107 344.479L397.365 344.507C399.026 344.513 400.713 344.531 402.36 344.501L403.76 344.483L404.727 343.457L407.072 340.951L410.562 337.225C416.943 330.509 422.593 324.286 426.487 316.623C432.592 304.429 433.549 289.842 429.37 272.083L428.619 268.846L428.655 268.832Z" fill="#4504AA" fill-opacity="0.4"/>
<path d="M37.7095 458.171C38.4948 458.517 39.2577 458.914 39.9841 459.326C42.6506 460.895 44.7569 463.186 47.007 465.631C47.805 466.497 48.6029 467.364 49.4374 468.216C54.4979 473.413 60.164 478.061 66.2554 482.018C66.8186 482.388 67.5421 482.737 68.2796 483.123C68.5076 483.224 68.8004 483.383 69.0932 483.543C67.3261 483.913 65.6402 484.168 63.9118 484.313C61.048 484.563 58.1835 484.54 55.3436 484.256L54.6462 484.19C53.5749 484.081 52.3911 483.952 51.2162 484.009L51.1149 483.964L50.3759 484.062C49.426 484.157 48.5328 484.399 47.755 484.721C45.6434 481.551 42.699 479.102 39.0767 477.504C38.6461 477.315 38.2154 477.125 37.7625 476.985C32.3626 475.027 26.6842 475.004 21.2166 474.983C18.7119 474.967 16.3197 474.971 13.9916 474.761C9.26231 474.37 5.40315 473.515 2.18612 472.096L2.05946 472.04C0.716924 471.448 -1.16352 470.497 -2.45096 469.506C-2.62981 468.882 -2.37589 467.209 -2.28208 466.585L-2.23816 466.211C-1.96788 464.363 -1.14927 462.576 0.0470883 461.167C2.37796 458.352 6.47689 457.497 10.0931 456.914L10.9051 456.788C11.2984 456.719 11.6918 456.65 12.1358 456.604C14.1197 456.36 15.9182 456.124 17.7955 455.984C26.2125 455.218 32.5309 455.917 37.673 458.185M38.7903 455.652C32.2803 452.781 24.7096 452.588 17.5264 453.233C15.5506 453.39 13.6286 453.632 11.7683 453.87C11.0658 453.954 10.3774 454.074 9.70022 454.168C5.43218 454.858 0.82221 455.911 -2.07183 459.385C-3.59596 461.194 -4.59035 463.448 -4.94925 465.771C-5.1838 467.332 -5.78254 470.336 -4.36247 471.507C-2.90292 472.726 -0.845145 473.754 0.891512 474.551C0.942174 474.573 0.992829 474.595 1.04349 474.618C5.04577 476.383 9.42195 477.163 13.7407 477.525C21.3688 478.136 29.5176 476.949 36.7972 479.585C37.1771 479.753 37.5429 479.884 37.9229 480.052C41.8492 481.784 44.9807 484.768 46.7824 488.71C47.718 487.549 49.2035 486.994 50.6704 486.824C50.6957 486.835 50.7464 486.858 50.8194 486.829C52.2386 486.699 53.6615 486.903 55.0562 487.034C58.0705 487.335 61.1205 487.349 64.108 487.093C66.1202 486.921 68.1011 486.615 70.0761 486.185C71.2308 485.968 73.8666 485.618 73.6683 484.078C73.634 483.881 73.5744 483.673 73.4388 483.432C72.6728 481.944 69.1272 480.653 67.7191 479.729C61.7938 475.875 56.2827 471.356 51.366 466.313C48.1325 463.011 45.3757 459.313 41.3324 456.955C40.4905 456.463 39.6516 456.032 38.7903 455.652Z" fill="#4504AA" fill-opacity="0.4"/>
<path d="M-22.4557 406.125C-21.8141 408.375 -20.9818 410.467 -19.9506 412.314C-17.1363 417.458 -12.6242 421.567 -6.93 424.23L-6.47405 424.431C-5.03019 425.068 -3.46564 425.637 -1.7886 426.225L-1.50996 426.348C0.304904 426.967 2.33658 427.712 4.2364 428.55C8.79596 430.561 11.4304 432.752 12.6443 435.556C7.21655 439.698 2.71932 443.857 -1.13346 448.27C-4.94974 452.669 -7.58816 457.073 -8.9534 461.403C-10.0121 460.785 -11.2056 460.198 -12.6495 459.561C-13.4854 459.192 -14.3467 458.812 -15.3204 458.413C-16.2182 458.047 -17.1666 457.659 -18.0785 457.257C-19.649 456.564 -20.882 455.93 -22.0309 455.241C-28.5946 451.257 -33.9708 447.736 -38.9805 443.589C-47.3489 436.63 -54.5739 427.422 -60.4916 416.279C-56.6444 416.886 -52.4656 417.428 -48.3682 417.057C-48.1097 417.02 -47.8623 417.008 -47.6292 416.959C-40.9131 416.139 -35.1761 413.011 -29.0182 409.615C-26.93 408.448 -24.6959 407.225 -22.4304 406.136M-20.5608 402.241L-22.5737 403.168C-22.5737 403.168 -22.8292 403.267 -22.9499 403.335C-23.1324 403.406 -23.3261 403.502 -23.5198 403.598C-25.8218 404.701 -28.1401 405.978 -30.3489 407.213C-36.2178 410.434 -41.7722 413.491 -47.9967 414.225C-48.1933 414.26 -48.4154 414.283 -48.6374 414.306C-52.9203 414.686 -57.4425 413.962 -61.8157 413.244L-65.3508 412.683L-63.7957 415.88C-57.5516 428.136 -49.7902 438.186 -40.7371 445.72C-35.5977 449.984 -30.1202 453.549 -23.4663 457.604C-22.0865 458.455 -20.6396 459.153 -19.1958 459.79C-18.2332 460.215 -17.2848 460.603 -16.3617 460.98C-15.4751 461.371 -14.6027 461.725 -13.7668 462.094C-12.2216 462.776 -10.7494 463.485 -9.35545 464.373L-7.2321 465.733L-6.6065 463.285C-5.48562 459.029 -2.94851 454.581 0.97429 450.077C4.72054 445.769 9.26546 441.57 14.8869 437.332L15.9387 436.525L15.5192 435.281C13.9096 430.698 9.86259 428.005 5.3537 426.017C3.40321 425.156 1.36037 424.437 -0.569981 423.737C-2.29768 423.126 -3.91289 422.534 -5.33142 421.909C-5.45807 421.853 -5.61006 421.786 -5.73671 421.73C-10.9102 419.327 -14.9685 415.631 -17.4974 411.005C-18.5711 409.049 -19.4236 406.797 -20.0235 404.384L-20.5608 402.241Z" fill="#4504AA" fill-opacity="0.4"/>
<path d="M10.843 483.751C9.99305 485.404 9.05896 487.11 8.0325 488.957C5.20711 493.853 2.09489 498.714 -0.899623 503.445L-1.69444 504.698C-5.85623 511.184 -9.36554 515.778 -13.1074 519.665C-13.3904 519.964 -13.6623 520.237 -13.9596 520.5C-18.1336 522.623 -22.0223 525.265 -25.8156 527.828C-26.8117 528.508 -27.8442 529.202 -28.8767 529.897C-28.4878 529.221 -28.1102 528.571 -27.696 527.906C-23.4538 521.032 -20.1055 515.156 -17.5037 508.709C-13.6037 499.112 -11.4672 488.163 -10.9832 475.335C-8.21319 476.738 -5.33068 478.161 -2.44296 479.434C2.47123 481.602 6.79011 482.993 10.8653 483.701M15.0811 481.415C14.9067 481.398 14.7577 481.393 14.5722 481.402C9.0473 480.962 3.79117 479.158 -1.32567 476.901C-5.47993 475.069 -9.55078 472.91 -13.6633 470.915C-13.7547 483.402 -15.3606 496.098 -20.0703 507.668C-22.7391 514.267 -26.3228 520.402 -30.0473 526.445C-32.2776 530.061 -34.1644 533.858 -36.3439 537.496C-34.5277 536.603 -32.7286 535.611 -31.0197 534.55C-24.7478 530.689 -18.8858 526.043 -12.3256 522.764C-11.8995 522.346 -11.4845 521.954 -11.0838 521.526C-6.61043 516.872 -2.85011 511.571 0.631575 506.148C3.97322 500.904 7.34019 495.672 10.4397 490.291C12.0733 487.411 13.6531 484.446 15.0811 481.415Z" fill="#4504AA" fill-opacity="0.4"/>
<path d="M34.2262 405.013C35.1128 405.404 36.0247 405.806 36.8889 406.248C40.661 408.123 44.4793 410.443 48.5495 413.358C44.8642 415.333 40.8704 417.596 36.1443 420.353C30.4416 423.677 24.3799 427.267 18.5245 431.281C15.8041 426.541 10.7029 423.837 6.47263 421.971C4.69947 421.189 2.89279 420.483 1.08611 419.777L-0.365937 419.227C-1.08637 418.94 -1.83214 418.641 -2.59207 418.306C-5.55578 416.998 -9.85461 414.739 -12.7508 410.466C-14.1396 408.401 -15.1329 406.057 -15.7842 403.349C-10.4599 401.431 -4.77935 400.214 1.083 399.683C12.5999 398.681 24.0685 400.532 34.2516 405.024M35.3689 402.491C24.7046 397.787 12.8365 395.881 0.813828 396.932C-5.51788 397.498 -11.6871 398.862 -17.556 401.054L-19.0415 401.609L-18.6942 403.154C-17.9705 406.59 -16.7649 409.482 -15.0683 412.016C-12.0395 416.469 -7.81297 419.029 -3.70936 420.839C-2.92411 421.185 -2.16418 421.52 -1.38191 421.805L0.0954702 422.366C1.82616 423.038 3.6075 423.733 5.35533 424.504C10.0922 426.594 14.4961 429.232 16.5348 433.46L17.4706 435.385L19.2213 434.161C25.3262 429.924 31.6405 426.173 37.5369 422.752C41.8168 420.253 46.4251 417.625 51.1631 415.116L53.7623 413.751L51.3849 412.006C46.6695 408.565 42.3386 405.898 38.1217 403.796C37.2068 403.332 36.2808 402.893 35.3689 402.491Z" fill="#4504AA" fill-opacity="0.4"/>
<path d="M54.5747 419.798C57.0229 421.725 59.4123 423.717 61.7733 425.636C64.2528 427.698 66.8508 429.903 69.3676 432.223C61.0347 439.865 53.0854 446.979 42.1966 448.41C41.5305 448.479 40.8898 448.56 40.2238 448.629C35.5952 449.038 30.9985 448.826 26.1404 448.59L24.9595 448.523C20.9589 448.332 17.1191 448.393 13.1424 448.697L12.9822 448.717C12.822 448.737 12.6618 448.757 12.5017 448.777C11.4646 448.864 10.4164 448.977 9.39357 449.101C11.9703 446.758 14.8146 444.563 17.5634 442.447C18.6153 441.64 19.6307 440.847 20.6572 440.029C25.1001 436.542 30.3089 433.514 35.324 430.582L37.8919 429.082C43.9202 425.568 49.4128 422.514 54.6 419.809M54.9 416.522C48.6713 419.736 42.5275 423.168 36.4993 426.682C30.5806 430.154 24.302 433.618 18.9279 437.844C14.8917 441.026 10.6753 444.068 6.91558 447.584C5.69312 448.709 4.45949 449.86 3.26236 450.996C3.01281 451.219 2.75209 451.467 2.67985 451.768C2.54057 452.221 2.73801 452.459 3.06731 452.604C3.37128 452.738 3.78179 452.768 4.09096 452.753C4.1528 452.75 4.25112 452.733 4.31296 452.73C7.17296 452.146 9.98008 451.75 12.8073 451.514C13.004 451.48 13.1895 451.471 13.4115 451.448C17.1663 451.168 20.9442 451.109 24.8324 451.281C30.0504 451.525 35.2713 451.831 40.4677 451.369C41.159 451.311 41.825 451.242 42.5276 451.158C55.3384 449.486 64.2919 440.575 73.4353 432.262C70.2614 429.168 66.849 426.271 63.5552 423.517C60.6897 421.164 57.8243 418.81 54.9 416.522Z" fill="#4504AA" fill-opacity="0.4"/>
<path d="M35.7388 483.083L34.6215 485.616C37.0533 486.688 39.9977 489.137 40.7676 491.988C40.813 492.159 40.8473 492.356 40.8816 492.553C40.4711 492.523 40.0606 492.493 39.6248 492.452L39.1271 492.414L38.9781 492.409C37.9321 492.311 36.8608 492.201 35.7873 492.303C35.2926 492.327 34.8992 492.395 34.5677 492.461C29.8482 493.556 26.268 496.94 24.066 499.599C22.7885 501.124 21.6518 502.741 20.5009 504.321L20.2461 504.693C18.2162 507.58 16.1304 510.593 13.427 512.881C9.66355 516.062 4.86143 517.757 0.0138407 519.28C1.24593 517.584 2.49738 515.776 3.81587 513.816L4.18534 513.252L4.45127 512.855C10.3852 503.793 16.5039 494.448 20.9537 484.429C21.0409 484.437 21.1139 484.408 21.201 484.417C22.5584 484.289 25.4229 484.312 26.7751 484.333L27.2839 484.346L27.5566 484.345C30.261 484.388 32.6122 484.82 34.5485 485.644L35.7418 483.144M35.7418 483.144C35.7418 483.144 35.6658 483.111 35.6405 483.1C33.3242 482.108 30.6355 481.618 27.5966 481.579L27.3605 481.566C26.1826 481.561 22.6349 481.509 20.9319 481.665C20.2405 481.723 19.0798 481.817 18.5882 482.931C14.1302 493.038 7.88267 502.537 1.84519 511.766L1.49806 512.279C-0.338137 515.07 -2.10209 517.56 -3.92268 519.904L-7.44617 524.462L-1.96088 522.796L-1.15479 522.547C4.57486 520.807 10.4758 519.023 15.204 515.026C18.157 512.516 20.3605 509.373 22.4939 506.319C23.6783 504.663 24.8851 502.956 26.1738 501.407C28.1181 499.057 31.261 496.116 35.1714 495.208C35.4046 495.16 35.6378 495.111 35.9104 495.111C36.8238 495.029 37.8079 495.131 38.8539 495.229C39.8746 495.316 40.9094 495.439 41.9606 495.389L43.6555 495.319L43.7097 493.618C43.7215 492.837 43.6351 492.073 43.4249 491.314C42.4248 487.545 38.8322 484.508 35.7418 483.144Z" fill="#4504AA" fill-opacity="0.4"/>
<path d="M75.4138 438.067C81.3699 444.87 84.3765 451.431 84.6258 458.138C84.773 462.469 83.7728 466.657 82.4657 471.679L81.7678 474.427L81.3813 475.921C81.1034 476.071 80.8256 476.22 80.5477 476.37C80.1126 476.602 79.7029 476.845 79.3774 477.034L78.5914 477.444C76.7259 476.803 75.0712 476.164 73.4753 475.46C65.099 471.674 58.141 465.428 51.4027 459.369L51.2731 459.252L49.8865 458.005C49.058 457.276 48.266 456.533 47.4375 455.805C53.0115 454.693 58.2137 452.297 63.263 448.533C66.9967 445.762 70.4986 442.556 73.8941 439.455L74.7016 438.721L75.425 438.042M75.6079 434.128L74.2424 435.372L72.8069 436.706C69.2096 439.991 65.5199 443.416 61.6066 446.32C56.3301 450.256 50.9253 452.562 45.0779 453.403L41.1272 453.99L44.1424 456.621C45.9261 458.134 47.6904 459.759 49.4264 461.312C56.3591 467.547 63.5004 473.995 72.3327 477.982C74.0299 478.73 75.8366 479.436 78.1044 480.195L78.8725 480.443L79.5601 480.05L80.6604 479.476C81.4687 479.016 82.2912 478.592 83.0994 478.131L83.787 477.739L83.9733 476.973L84.4544 475.128L85.1634 472.354C86.4593 467.358 87.5541 462.818 87.3972 458.029C87.1172 450.431 83.6613 443.036 76.8514 435.494L75.6079 434.128Z" fill="#4504AA" fill-opacity="0.4"/>
<path d="M161.721 343.994C162.557 344.363 163.402 344.917 164.292 345.643C169.085 349.663 167.401 359.45 166.17 366.563C165.97 367.564 165.83 368.501 165.686 369.375C164.108 379.815 161.863 390.323 159.929 399.304C145.454 465.874 126.639 529.864 104.057 589.499C80.0631 652.748 51.2215 712.648 18.2336 767.543C12.6685 776.798 4.70606 778.249 -1.06938 775.701C-1.65199 775.444 -2.19809 775.173 -2.68534 774.837C-7.05573 772.123 -10.0056 766.737 -9.35503 760.185C-9.86992 759.02 -10.1576 757.683 -10.0326 756.164C-9.48404 749.295 -8.7195 742.28 -7.97952 735.525C-7.10854 727.377 -6.2018 718.941 -5.64296 710.745C-4.82074 698.248 -4.86199 685.581 -5.72645 673.066C-7.89017 642.367 -16.8155 612.317 -25.4203 583.255L-32.6741 558.814C-32.8075 558.361 -32.9834 557.8 -33.2241 557.179C-34.4364 553.891 -36.2271 548.895 -33.9104 546.044C-32.6581 544.508 -30.529 543.934 -27.5482 544.311C-26.8255 544.388 -26.1588 544.591 -25.5508 544.859C-22.1818 546.345 -20.4054 550.276 -19.158 553.004C-18.9628 553.454 -18.7676 553.903 -18.5642 554.265C-16.2148 559.023 -14.2499 564.035 -12.6411 568.346C-0.543448 599.916 7.78149 631.396 12.0558 661.907C14.459 678.822 15.6226 695.736 15.5964 712.397C23.6837 698.384 32.0086 683.9 39.7212 669.57C52.0454 646.775 63.5068 623.054 73.8879 599.038C99.272 540.185 116.164 478.221 132.47 418.269L146.163 368.087C146.39 367.158 146.679 365.955 146.985 364.576C148.682 357.367 151.265 346.433 156.785 343.935C158.338 343.228 159.988 343.26 161.685 344.009M163.014 340.994C160.456 339.866 157.828 339.856 155.439 340.951C148.487 344.088 145.798 355.399 143.842 363.674C143.481 365.179 143.229 366.369 142.975 367.286L129.28 417.406C113.026 477.17 96.2017 538.982 70.8623 597.734C60.4365 621.851 48.9833 645.485 36.8439 667.999C31.1336 678.612 25.1476 689.165 18.711 700.397C18.295 687.413 17.1563 674.354 15.3293 661.414C11.0207 630.707 2.64731 598.994 -9.54941 567.168C-11.1582 562.857 -13.1515 557.772 -15.597 552.82C-15.7892 552.433 -15.9561 552.057 -16.1231 551.68C-17.591 548.491 -19.7123 543.834 -24.1959 541.856C-25.1331 541.443 -26.1009 541.167 -27.1357 541.043C-31.2892 540.513 -34.4404 541.483 -36.4405 543.959C-39.9365 548.318 -37.6645 554.555 -36.2934 558.306C-36.1205 558.806 -35.9476 559.306 -35.8425 559.685L-28.5857 584.189C-20.001 613.09 -11.1354 642.933 -9.00071 673.286C-8.13404 685.59 -8.12409 698.122 -8.92693 710.507C-9.44782 718.205 -10.3136 726.205 -11.1437 733.918L-11.2583 735.138C-12.0124 741.856 -12.771 748.995 -13.3195 755.864C-13.4751 757.52 -13.2485 759.133 -12.7157 760.67C-13.1316 767.718 -10.0073 774.149 -4.44855 777.6C-3.91063 777.958 -3.22371 778.322 -2.41312 778.679C4.07158 781.539 14.088 780.783 21.0044 769.219C54.0481 714.198 83.0044 654.106 107.088 590.655C129.771 530.791 148.616 466.663 163.099 400.006C165.078 390.924 167.319 380.354 168.909 369.889C169.03 369.065 169.185 368.165 169.374 367.189C170.762 359.239 172.643 348.388 166.391 343.149C165.281 342.236 164.18 341.508 163.04 341.005L163.014 340.994Z" fill="#4504AA" fill-opacity="0.4"/>
</g>
<defs>
<clipPath id="clip0_1494_3386">
<rect width="506.174" height="718.688" fill="white" transform="translate(13.0386) rotate(23.8013)"/>
</clipPath>
</defs>
</svg>
