<?xml version="1.0" encoding="UTF-8"?>
<svg id="Layer_2" data-name="Layer 2" xmlns="http://www.w3.org/2000/svg" viewBox="0 0 79.72 87.35">
  <defs>
    <style>
      .cls-1 {
        fill: #4504aa;
        stroke-width: 0px;
      }
    </style>
  </defs>
  <g id="SG">
    <g>
      <path class="cls-1" d="m31.87,31.84c0,2.07-.43,4.15-1.37,6.14-2.46,5.24-7.65,8.31-13.1,8.31-2.05,0-4.13-.45-6.12-1.37l-8.14-3.83c-2.72-1.29-3.91-4.54-2.62-7.26l3.83-8.14c1.49-3.19,4.03-5.59,7-6.96-.49-2.03-1.94-3.81-3.91-4.52-.65-.25-1.35-.39-2.01-.61-.65-.25-1.29-.61-1.68-1.21-.39-.57-.43-1.41.02-1.94.63-.74,1.82-.55,2.72-.16,3.21,1.37,5.61,4.48,6.18,7.92,1.66-.59,3.42-.88,5.2-.8.9-1.31,1.74-2.66,2.35-4.11,1.04-2.46,1.47-5.26.59-7.78-.33-.96-.84-1.86-.96-2.89-.14-1,.27-2.19,1.21-2.54.72-.25,1.56.06,2.09.59.55.53.86,1.25,1.08,1.98.94,2.86.98,6,.14,8.88-.7,2.33-1.96,4.46-3.66,6.2.96.23,1.9.55,2.84,1,5.24,2.46,8.31,7.67,8.31,13.1Z"/>
      <g>
        <path class="cls-1" d="m47.51,46.24c0,2.05-.45,4.14-1.38,6.13-2.45,5.25-7.65,8.32-13.08,8.32-2.05,0-4.14-.45-6.13-1.38-4.52-2.11-7.42-6.25-8.13-10.83.53.06,1.07.09,1.61.09,5.43,0,10.62-3.07,13.08-8.32.93-1.99,1.38-4.08,1.38-6.13,0-.76-.06-1.51-.19-2.25,1.52.17,3.06.61,4.52,1.29,5.25,2.47,8.32,7.65,8.32,13.08Z"/>
        <path class="cls-1" d="m59.59,62.2c-.03,5.62-1.29,11.23-3.75,16.28-1.34,2.74-3.07,5.39-5.59,7.12-2.52,1.73-5.93,2.38-8.67,1.04-2.81-1.37-4.32-4.42-5.64-7.25-1.18-2.54-2.37-5.09-3.55-7.63-.86-1.85-2.8-4.53-2.99-6.49.71.05,1.42.11,2.13.11,7.33,0,14.33-4.15,17.66-11.23,1.26-2.68,1.86-5.51,1.86-8.27,0-.96-.25-2.02-.12-2.93,1.66-.02,3.29,1.19,4.31,2.42,1.13,1.35,1.83,3,2.39,4.67,1.33,3.91,1.98,8.04,1.96,12.17Z"/>
        <path class="cls-1" d="m53.86,19.92c3.66-2.14,7.88-3.57,12.11-3.23,5.57.45,10.74,4.2,12.91,9.34.75,1.78,1.16,3.81.56,5.65-1.04,3.22-4.84,4.81-8.23,4.65-3.38-.16-6.55-1.61-9.79-2.6-5.01-1.53-10.35-1.95-15.54-1.24-.56.08-3.14.86-3.46.43-.39-.52.93-2.45,1.2-2.91,1.11-1.95,2.5-3.74,4.08-5.33,1.83-1.85,3.91-3.45,6.16-4.76Z"/>
        <path class="cls-1" d="m45.55,22.41c3.4-4.5,8.87-7.37,14.51-7.61-.09-2.84-.53-5.72-1.74-8.3-1.22-2.57-3.28-4.83-5.93-5.86s-5.91-.67-8.01,1.24c-1.5,1.36-2.29,3.32-2.91,5.24-1.4,4.38-2.1,8.98-2.11,13.58,0,2.31.18,4.62.53,6.9.09.57.19,1.13.3,1.69.06.31.11,1.39.36,1.58.71.55,1.25-1.46,1.41-1.84.97-2.32,2.07-4.6,3.59-6.61Z"/>
      </g>
    </g>
  </g>
</svg>