<svg width="149" height="117" viewBox="0 0 149 117" fill="none" xmlns="http://www.w3.org/2000/svg">
<g clip-path="url(#clip0_375_574)">
<path d="M60.97 21.6C60.81 23.32 60.84 25.06 61.06 26.83C59.36 25.29 56.57 23.35 52.17 21.96C48.04 20.82 44.15 18.01 41.25 14.03C42.23 11.26 43.57 8.60001 45.2 6.15001C46 4.90001 46.9 3.69001 47.86 2.55001C47.9 2.48001 48.06 2.30001 48.28 2.06001C49.17 1.08001 49.73 0.43001 50.11 0.0100098C51.49 0.84001 53.04 1.64001 54.82 2.44001C55.71 2.84001 56.61 3.18001 57.52 3.51001C58.23 3.78001 58.95 4.02001 59.66 4.34001C61.18 4.99001 62.67 5.81001 64.1 6.77001C64.35 6.95001 66.15 8.42001 67.18 9.27001C63.61 12.44 61.42 16.77 60.95 21.6H60.97Z" fill="#4504AA"/>
<path d="M104.9 15.39C104.59 16.06 102.56 18.2301 96.37 19.5401C93.89 20.0501 90.61 21.5501 87.82 25.5301C87.84 23.34 87.55 21.1301 86.95 18.9401C86.55 17.42 85.97 15.9 85.25 14.43C84.87 13.63 84.45 12.84 83.98 12.08C83.8 11.77 83.56 11.43 83.31 11.1C83.11 10.85 82.93 10.61 82.77 10.36C83.28 9.91005 83.78 9.40005 84.24 8.93005C84.57 8.57005 84.91 8.24005 85.27 7.90005C86.5 6.74005 87.55 5.82005 88.6 5.02005C91.03 3.12005 93.38 1.83005 95.72 1.09005C95.81 1.07005 95.88 1.05005 95.92 1.05005L96.68 1.79005C97.31 2.39005 97.93 3.00005 98.51 3.62005C98.93 4.09005 99.36 4.54005 99.76 5.03005C99.83 5.12005 99.94 5.23005 100.05 5.37005C100.23 5.57005 100.59 5.97005 100.63 6.11005C100.65 6.22005 100.7 6.33005 100.76 6.42005C102.12 8.50005 102.9 9.93005 103.8 12.34L104.89 15.4L104.9 15.39Z" fill="#4504AA"/>
<path d="M110.58 69.48C110.62 69.9 110.96 70.21 111.39 70.23C129.12 70.91 136.42 82.43 137.88 85.08C119.92 100.56 103.89 90.86 103.22 90.44C102.89 90.24 102.43 90.28 102.16 90.59C101.87 90.88 101.85 91.33 102.1 91.65C107.82 99.49 103.39 111.83 101.52 116.2C99.75 113.4 96.63 112.67 93.08 111.82C92.51 111.69 91.93 111.55 91.32 111.4C87.35 110.39 83.03 106.24 82.02 105.21C82.22 104.83 82.94 103.85 85.35 101.8C90.35 97.56 88.26 92.02 88.23 91.96C88.08 91.6 87.68 91.38 87.29 91.44C86.89 91.5 86.6 91.84 86.6 92.25C86.51 97.27 81.11 100.18 81.11 100.18C78.97 101.12 75.95 105.99 73.68 110.16C71.44 105.94 68.5 101.03 66.42 100.09C66.38 100.04 60.99 97.07 60.99 92.04C60.99 91.64 60.7 91.31 60.32 91.21C59.91 91.15 59.53 91.35 59.38 91.73C59.36 91.77 57.16 97.29 62.1 101.61C64.48 103.7 65.18 104.71 65.37 105.07C64.35 106.07 59.95 110.19 55.97 111.12C55.37 111.25 54.76 111.39 54.21 111.52C50.66 112.31 47.51 113 45.7 115.76C43.89 111.39 39.65 98.97 45.5 91.21C45.75 90.9 45.73 90.46 45.46 90.14C45.17 89.85 44.72 89.78 44.38 89.98C44.23 90.1 27.59 99.88 9.82001 84.09C11.32 81.45 18.75 70.07 36.52 69.64C36.95 69.64 37.31 69.33 37.35 68.91C37.39 68.51 37.12 68.1 36.73 68.02C36.44 67.93 8.06001 60.43 0.0100098 43.57C2.67001 44.86 7.33001 46.78 11.12 46.49C13.1 46.34 14.87 45.89 16.57 45.42C19.42 44.66 21.9 44.01 24.67 45.09C25.01 45.24 25.43 45.11 25.66 44.8C25.88 44.49 25.85 44.04 25.58 43.74C25.43 43.57 9.91001 25.9 18.1 7.84998C19.35 8.92998 21.83 10.64 25.24 10.84C28.57 11.04 32.93 15.79 34.62 17.97C34.35 19.75 33.82 27.28 40.07 38.22C38.4 37.3 36.32 36.41 34.62 36.41C33.55 36.41 32.66 36.28 31.89 36.03C29.77 35.34 28.16 34.18 28.14 34.16C27.78 33.91 27.29 33.98 27.02 34.31C26.89 34.45 23.92 38.13 28.89 47.85C32.18 54.24 36.75 58.07 39.5 59.96C38.54 60.05 37.54 60.22 36.87 60.44C36.5 60.58 36.29 60.91 36.31 61.27C36.31 61.4 37 72.86 51.77 75.98C50.13 78.2 46.97 83.11 47.9 86.13C47.96 86.3 48.08 86.46 48.23 86.57C48.52 86.75 55.47 91.23 65.18 89.85C70.38 89.11 72.68 86.81 73.71 84.82C74.8 86.88 77.19 89.18 82.37 90C92.09 91.52 99.08 87.15 99.37 86.96C99.55 86.85 99.66 86.7 99.73 86.52C100.72 83.53 97.61 78.57 96.02 76.33C110.83 73.43 111.7 61.97 111.7 61.86C111.72 61.48 111.5 61.15 111.16 61.01C110.47 60.76 109.48 60.59 108.52 60.47C111.29 58.64 115.94 54.89 119.31 48.55C124.45 38.9 121.52 35.17 121.41 35.04C121.12 34.68 120.62 34.61 120.27 34.88C120.25 34.88 118.61 36.02 116.5 36.67C115.74 36.92 114.84 37.05 113.77 37.03C112 36.99 109.99 37.86 108.3 38.75C114.71 27.89 114.28 20.36 114.06 18.59C115.75 16.47 120.2 11.75 123.53 11.6C126.94 11.44 129.44 9.78998 130.71 8.72998C138.62 26.89 122.85 44.31 122.67 44.49C122.42 44.78 122.38 45.2 122.61 45.53C122.83 45.84 123.23 45.98 123.59 45.84C126.36 44.8 128.84 45.48 131.7 46.29C133.39 46.77 135.14 47.27 137.12 47.45C140.9 47.81 145.52 45.95 148.27 44.67C139.97 61.4 111.49 68.51 111.17 68.57C110.77 68.66 110.5 69.04 110.55 69.46L110.58 69.48Z" fill="#4504AA"/>
<path d="M118.75 39.47C117.73 39.85 115.69 40.45 112.61 40.7C108.95 40.97 103.16 45.28 97.88 51.64C92.85 57.67 89.48 56.44 89.12 56.28C88.83 56.15 88.65 55.88 88.6 55.59C88.58 55.28 88.74 54.99 88.99 54.8C89.08 54.74 98.81 48.26 102.25 42.17C102.65 41.47 103.1 40.72 103.54 39.93C107.2 33.77 112.12 25.46 109.82 17.22C108.1 18.58 104.2 21.19 98.3 22.38C93.81 23.3 88.94 28.05 84.23 36.09C84 36.47 83.54 36.63 83.13 36.42C82.73 36.22 82.55 35.75 82.73 35.34C88.96 20.83 78.09 8.29002 74.53 4.77002C73.91 6.33002 72.2 8.97002 67.96 13.26C61.04 20.27 66.31 35.19 66.36 35.34C66.52 35.75 66.32 36.21 65.92 36.4C65.51 36.55 65.05 36.4 64.84 36.02C60.57 28.18 49.79 24.73 49.7 24.69C44.23 22.98 40.44 18.82 38.76 16.63C36.47 24.69 41.07 32.98 44.48 39.14C44.93 39.97 45.37 40.72 45.75 41.46C49.04 47.65 58.6 54.37 58.69 54.44C58.94 54.6 59.09 54.91 59.05 55.23C59.01 55.52 58.8 55.79 58.53 55.9C58.15 56.05 54.76 57.19 49.89 51.05C44.77 44.5 39.1 40.06 35.46 39.71C32.36 39.38 30.35 38.7 29.34 38.3C28.98 39.38 28.76 42.77 34.46 51.01C42.1 62.1 61.19 62 61.38 61.97C61.76 61.95 62.07 62.2 62.18 62.55C62.3 62.91 62.16 63.28 61.87 63.49C61.74 63.58 58.62 65.61 50.53 63.91C44.9 62.7 41.35 62.64 39.79 62.7C43.04 72.77 52.83 73.31 54.82 73.31H54.86C56.98 71.37 62.08 69.29 62.68 69.07C63.08 68.9 63.55 69.07 63.75 69.48C63.93 69.88 63.78 70.34 63.39 70.57C53.3 76.25 51.32 82.26 50.93 84.03C56.81 86.9 61.74 87.5 65.65 85.86C70.38 83.88 71.92 79.16 71.94 79.12C72.08 78.47 72.1 74.75 72.12 72.29C72.12 70.97 72.12 69.76 72.14 68.98C72.16 68.53 72.52 68.17 72.97 68.17C73.39 68.21 73.77 68.48 73.82 68.93C74.08 71.99 75.11 79.11 75.13 79.21C75.13 79.21 76.56 83.92 81.21 86.02C85.08 87.77 90.03 87.29 95.97 84.59C95.61 82.78 93.74 76.71 83.9 70.81C83.51 70.56 83.38 70.1 83.61 69.69C83.8 69.29 84.28 69.13 84.68 69.31C87.41 70.54 90.78 72.26 92.34 73.78C94.25 73.84 104.11 73.74 107.71 63.57C107.31 63.55 106.77 63.53 106.13 63.53C103.51 63.53 100.32 63.86 96.93 64.47C88.61 65.99 85.7 63.85 85.58 63.76C85.29 63.53 85.18 63.18 85.29 62.82C85.41 62.49 85.74 62.26 86.1 62.26C88.16 62.3 105.8 62.39 113.34 52.01C119.22 43.97 119.13 40.58 118.79 39.46L118.75 39.47ZM82.02 59.48C79.45 64.39 73.82 64.33 73.18 64.33C72.86 64.37 72.5 64.39 72.17 64.39C70.77 64.39 69.92 64.1 69.51 63.92C68.65 63.73 67.08 63.07 65.9 60.98C65.9 60.95 65.87 60.95 65.85 60.93C60.21 53.85 58.71 51.44 58.31 50.75C57.9 50.08 54.34 44.09 56.3 40.95C57.9 38.29 60.9 38.71 62.5 39.63L62.79 39.79C63.04 39.94 63.2 40.21 63.2 40.5V40.81C63.2 40.81 63.29 43.2 63.58 45.99C63.81 43.7 64.39 40.77 65.93 39.7C67.72 38.49 69.34 38.47 71.24 39.58L71.51 39.72C71.8 39.87 71.95 40.18 71.93 40.52L71.91 40.83C71.91 41.08 71.93 47.36 73.63 52.69C73.65 52.63 73.67 52.54 73.69 52.47C74.75 49.63 75.01 42.66 75.01 40.43V40.05C75.01 39.72 75.23 39.4 75.56 39.26L75.93 39.13C76.79 38.82 78.83 38.07 80.55 39.09C81.82 39.82 82.67 41.26 83.23 43.53C83.25 41.76 83.13 40.63 83.13 40.61L83.09 40.11C83.07 39.78 83.27 39.46 83.56 39.32L83.92 39.15C85.5 38.43 86.91 38.32 88.14 38.82C89.39 39.28 90.35 40.36 91.02 41.97C92.34 45.12 91.74 48.76 89.44 51.48C88.79 52.31 88.1 53.18 87.45 54.08C85.96 56.06 84.12 57.87 82.03 59.49L82.02 59.48Z" fill="#4504AA"/>
<path d="M87.96 50.25C87.27 51.08 86.56 51.99 85.88 52.89C84.94 54.12 83.9 55.28 82.71 56.35C85.56 49.81 85.25 42.57 85.12 40.76C86.01 40.4 86.79 40.36 87.41 40.61C88.15 40.9 88.78 41.61 89.22 42.7C90.25 45.17 89.76 48.06 87.95 50.25H87.96Z" fill="#4504AA"/>
<path d="M81.08 56.4V56.44C80.88 57.33 80.58 58.07 80.23 58.71L79.96 59.18C77.7 62.57 73.45 62.37 73.17 62.35C72.2 62.46 71.49 62.39 70.99 62.31C71.78 61.31 72.53 60.01 73.23 58.6C73.59 57.88 73.92 57.15 74.23 56.41C74.73 55.27 75.15 54.13 75.52 53.1C76.73 49.82 76.93 42.6 76.95 40.81C78.13 40.41 78.94 40.39 79.57 40.77C80.51 41.31 81.2 42.87 81.59 45.39C82.48 51.04 81.06 56.33 81.06 56.39L81.08 56.4Z" fill="#4504AA"/>
<path d="M73.0001 56.4701C72.7701 56.9801 72.5501 57.4701 72.3301 57.9501C72.3101 58.0101 72.2501 58.0801 72.2101 58.1401C71.5601 59.2801 70.6901 60.7801 69.7801 62.0101C69.1601 61.8101 67.59 61.0501 66.84 58.0101C65.81 53.8301 65.4501 52.2301 65.4101 48.9201C65.3701 45.3001 66.0801 41.9501 67.0601 41.2801C67.6201 40.9001 68.1201 40.7001 68.6301 40.7001C69.0501 40.7001 69.4701 40.8301 69.9701 41.1001C69.9901 42.8401 70.2401 50.9001 73.0101 56.4701H73.0001Z" fill="#4504AA"/>
<path d="M63.78 55.06C60.6 50.93 60.06 49.86 60.02 49.77C59.08 48.21 56.85 43.72 57.94 41.95C58.48 41.1 59.2 40.85 59.85 40.85C60.43 40.85 60.96 41.05 61.27 41.18C61.32 42.36 61.54 46.57 62.16 50.14C62.43 51.7 63.05 53.47 63.78 55.05V55.06Z" fill="#4504AA"/>
</g>
<defs>
<clipPath id="clip0_375_574">
<rect width="148.3" height="116.2" fill="white"/>
</clipPath>
</defs>
</svg>
