<svg width="108" height="113" viewBox="0 0 108 113" fill="none" xmlns="http://www.w3.org/2000/svg">
<path d="M46.4011 48.9665C47.709 48.5998 49.1253 48.4482 50.5592 48.5267C55.7133 48.817 59.9715 52.0685 61.7847 56.556C62.4666 58.2435 62.7963 60.1271 62.6898 62.0792C62.4181 67.2258 59.1481 71.4915 54.6606 73.3047C52.9731 73.9866 51.0894 74.3163 49.1374 74.2098C44.7059 73.9728 40.9313 71.5181 38.8132 67.9842C39.2714 67.8638 39.724 67.7025 40.1783 67.5189C44.6565 65.7094 47.9136 61.4382 48.2076 56.2934C48.314 54.3413 47.9881 52.4669 47.3025 50.7702C47.0477 50.1397 46.7448 49.5503 46.3956 48.9795M45.6463 47.1252C45.1364 47.3312 44.7367 47.73 44.5342 48.2433C44.3078 48.8309 44.3677 49.4862 44.6927 50.0235C44.9859 50.509 45.2383 51.0003 45.4481 51.5195C46.0401 52.9844 46.2962 54.5526 46.2109 56.1834C45.9749 60.3772 43.3139 64.0949 39.4383 65.6608C39.0582 65.8144 38.6798 65.9458 38.2995 66.0455C38.2253 66.0755 38.1474 66.0962 38.0732 66.1261C37.5725 66.3284 37.1728 66.7272 36.9666 67.2312C36.7365 67.8095 36.7871 68.4686 37.1028 69.0097C39.6394 73.2588 44.0999 75.9433 49.0404 76.212C51.2246 76.3325 53.4294 75.9701 55.4136 75.1684C60.7356 73.018 64.3815 67.9208 64.6865 62.1892C64.8069 60.005 64.4446 57.8002 63.6428 55.816C61.4962 50.5033 56.4028 46.8666 50.6767 46.5487C49.0237 46.4616 47.4087 46.6288 45.8708 47.0668C45.8059 47.0931 45.728 47.1138 45.6631 47.14L45.6463 47.1252Z" fill="#4504AA"/>
<path d="M67.2195 54.2307C68.5825 53.68 70.3092 54.1364 71.5483 54.8006C72.925 55.5385 74.0506 56.6692 75.0779 57.8504C77.4757 60.6348 79.3921 63.8295 80.7485 67.2398C82.6031 71.8831 83.4248 76.9331 83.0894 81.922C82.9002 84.6302 82.3472 87.399 80.8473 89.666C79.8941 91.0973 78.5149 92.3017 76.9294 92.9424C76.0115 93.3133 75.0372 93.4912 74.0379 93.4204C71.2629 93.2259 68.996 91.219 66.9671 89.3208C65.1469 87.6188 63.3137 85.9112 61.4935 84.2092C60.1614 82.9678 57.6751 81.4055 56.8618 79.8467C57.4647 79.657 58.0675 79.4673 58.6609 79.2276C64.7154 76.7812 69.1 71.0297 69.4935 64.0759C69.6365 61.4403 69.1969 58.9108 68.2753 56.63C67.9568 55.8419 67.3969 55.0435 67.1955 54.2513L67.2233 54.24M66.474 52.3857L66.4277 52.4044C65.5135 52.7846 65.0174 53.7723 65.2548 54.7334C65.4318 55.4385 65.7589 56.0613 66.0469 56.6136C66.1908 56.8898 66.331 57.1567 66.4209 57.3792C67.2601 59.4561 67.6262 61.6702 67.5006 63.9751C67.1666 69.9019 63.4043 75.1647 57.9154 77.3825C57.4147 77.5848 56.8898 77.7538 56.2684 77.9509C56.222 77.9696 56.1757 77.9884 56.1293 78.0071C55.6379 78.2057 55.2345 78.5952 55.0282 79.0991C54.8054 79.6421 54.828 80.2586 55.1047 80.7831C55.8544 82.2382 57.4037 83.4566 58.7705 84.5437C59.2937 84.9578 59.7872 85.3516 60.1468 85.6809L62.8855 88.2414L65.6241 90.8018C67.4946 92.5483 70.3172 95.1827 73.9261 95.4393C75.1929 95.5315 76.466 95.319 77.7085 94.817C79.6277 94.0415 81.3386 92.6168 82.5429 90.7928C84.017 88.5686 84.8594 85.7152 85.1085 82.0877C85.471 76.872 84.6128 71.4917 82.6401 66.5294C81.1751 62.8503 79.1541 59.5037 76.6203 56.5692C75.6432 55.4325 74.2901 54.0055 72.5171 53.0609C70.452 51.954 68.2061 51.7074 66.4908 52.4005L66.474 52.3857Z" fill="#4504AA"/>
<path d="M21.1584 25.3859C21.622 25.1986 22.1847 25.23 22.6441 25.4327C23.282 25.7034 23.7721 26.1957 24.2103 26.7197C25.937 28.7507 27.0175 31.3448 27.2905 33.9956C27.4874 36.1379 27.1627 38.3507 26.3434 40.3535C27.2082 40.1982 28.1124 40.1672 29.015 40.2123C34.1561 40.497 38.4181 43.7578 40.2276 48.236C40.9169 49.942 41.2614 51.8089 41.142 53.7554C40.8572 58.8965 37.5965 63.1585 33.1182 64.968C31.4122 65.6573 29.5453 66.0018 27.5988 65.8823L19.6068 65.4553C16.9322 65.2957 14.8667 63.0133 15.0188 60.3202L15.4719 52.3392C15.6411 49.2078 16.9385 46.3862 18.9292 44.266C17.8469 42.7619 16.0552 41.771 14.1966 41.8425C13.5764 41.8558 12.9529 41.9676 12.3364 41.9901C11.7163 42.0035 11.0716 41.9296 10.5578 41.5655C10.0423 41.2238 9.73347 40.5397 9.92826 39.954C10.0642 39.5432 10.3771 39.2765 10.7758 39.1155C11.1745 38.9544 11.6775 38.8913 12.1158 38.9084C15.2246 38.9681 18.2372 40.7384 19.8564 43.3844C20.895 42.4579 22.0808 41.7091 23.3788 41.1846C23.5457 41.1172 23.7126 41.0497 23.874 40.9953C24.1774 39.6108 24.4232 38.2172 24.4331 36.8003C24.4824 34.44 23.8944 31.9704 22.3396 30.2043C21.7485 29.5156 21.0148 28.9276 20.5794 28.1437C20.1254 27.3672 20.0714 26.2458 20.7248 25.6474C20.8506 25.5318 20.997 25.4403 21.1546 25.3766M20.4054 23.5223C20.0252 23.6759 19.6806 23.8906 19.3807 24.1628C17.9147 25.4994 17.9966 27.6773 18.8485 29.145C19.2521 29.8771 19.8075 30.4508 20.3014 30.9524C20.484 31.1374 20.6536 31.3169 20.8177 31.5095C22.2868 33.1701 22.4547 35.5074 22.4312 36.7572C22.4215 37.721 22.2857 38.6927 22.1234 39.5456C21.4578 39.8469 20.8202 40.1908 20.2088 40.5996C18.1342 38.3748 15.1545 36.9795 12.1349 36.9269C11.6019 36.9158 10.7813 36.9669 10.0025 37.2816C9.01968 37.6787 8.30548 38.4203 8.00234 39.3517C7.54111 40.746 8.13735 42.3818 9.42352 43.2426C10.1886 43.7748 11.1644 44.0276 12.3732 44.003C12.7687 43.9942 13.1307 43.9558 13.4611 43.9193C13.7414 43.8923 14.0087 43.8598 14.2333 43.8553C14.9129 43.8288 15.6045 44.0455 16.2112 44.4259C14.5757 46.7046 13.614 49.4228 13.4605 52.2459L13.0167 60.2232C12.8052 63.9973 15.7041 67.2479 19.482 67.4687L27.4833 67.892C29.6582 68.0162 31.8036 67.667 33.862 66.8354C39.1839 64.685 42.8244 59.6009 43.1293 53.8692C43.2535 51.6943 42.9006 49.5396 42.0727 47.4905C39.9223 42.1685 34.8382 38.5281 29.1065 38.2232C29.088 38.2307 29.0619 38.2196 29.0396 38.2178C29.3206 36.7777 29.3989 35.29 29.2656 33.8123C28.9559 30.7234 27.6902 27.7511 25.7229 25.4182C25.2865 24.8719 24.5353 24.0538 23.4157 23.5786C22.4394 23.1642 21.3418 23.1439 20.3961 23.526L20.4054 23.5223Z" fill="#4504AA"/>
<path d="M66.3936 23.0922C66.7366 22.9536 67.0964 22.8298 67.46 22.7153C72.1994 21.2317 77.7212 22.5921 81.2264 26.1155C82.4396 27.3294 83.4514 28.8728 83.5744 30.5919C83.7758 33.4657 81.4112 35.9419 78.7224 37.0284C78.5926 37.0808 78.4628 37.1333 78.3423 37.182C75.499 38.1798 72.4011 38.0402 69.4012 38.3033C66.2156 38.5874 63.0726 39.3504 60.1056 40.5493C58.752 41.0962 57.4358 41.7359 56.1625 42.4553C55.8197 42.6478 54.5882 43.6307 53.8836 43.9154C53.6889 43.9941 53.5386 44.0225 53.453 43.9708C52.9561 43.6754 53.4058 41.6386 53.4655 41.1723C53.7352 39.1974 54.2855 37.2494 55.0516 35.4083C55.9447 33.2678 57.128 31.2581 58.5478 29.4333C60.633 26.7465 63.2672 24.377 66.4011 23.1108M65.6518 21.2564C62.4531 22.5489 59.5346 24.8822 56.9632 28.2077C55.4123 30.2149 54.1496 32.3753 53.2012 34.646C52.3412 36.7083 51.7562 38.8106 51.472 40.91C51.4629 40.9676 51.4521 41.0475 51.4357 41.1404C51.1754 42.6584 50.8169 44.7339 52.4135 45.6958C52.8545 45.9598 53.6074 46.1949 54.6181 45.7865C55.2671 45.5243 55.9692 45.0464 56.7453 44.4848C56.9213 44.3597 57.0639 44.259 57.1584 44.1992C58.3241 43.5341 59.5699 42.9336 60.8401 42.4204C63.6495 41.2852 66.5865 40.573 69.5642 40.3082C70.3234 40.2387 71.0754 40.2045 71.8774 40.1609C74.2112 40.0376 76.6211 39.9159 78.9933 39.0868C79.1509 39.0231 79.3123 38.9687 79.4699 38.905C82.7057 37.5975 85.848 34.4835 85.5628 30.4679C85.4241 28.4963 84.4162 26.5092 82.6384 24.7253C78.6263 20.6948 72.2867 19.1256 66.8573 20.8233C66.4567 20.9528 66.0412 21.0991 65.6425 21.2602L65.6518 21.2564Z" fill="#4504AA"/>
<path d="M44.3815 13.9643C45.2345 13.6196 46.1605 13.4288 47.0814 13.4126C49.6142 13.3815 52.0602 14.5502 53.9288 16.2651C55.788 17.9837 57.1087 20.2112 58.1344 22.5362C53.5624 24.6209 50.0117 28.8059 48.7047 33.659C48.1236 35.8244 47.9662 38.0774 47.9443 40.3189C47.9362 40.6457 48.1196 42.1139 47.6282 42.3125C47.5633 42.3387 47.4871 42.3371 47.3942 42.3207C47.1265 42.2455 46.7205 41.3742 46.573 41.1426C46.293 40.7165 46.0222 40.2866 45.77 39.8492C44.7128 38.0869 43.8057 36.2424 43.034 34.3325C41.5017 30.5403 40.5536 26.5122 40.2422 22.4317C40.1115 20.6401 40.1142 18.7516 40.894 17.1315C41.589 15.675 42.887 14.5897 44.389 13.9828M43.6397 12.1285C41.5907 12.9564 39.9747 14.4291 39.0879 16.265C38.0831 18.3427 38.0985 20.623 38.2428 22.5816C38.566 26.8515 39.5445 31.0616 41.1704 35.0855C41.9796 37.0882 42.9502 39.0364 44.0503 40.8784C44.3231 41.3399 44.6051 41.7975 44.9019 42.2385C44.9094 42.257 44.9318 42.3126 44.9766 42.37C45.3635 43.0873 45.8494 43.9696 46.8717 44.2575C47.381 44.3969 47.9083 44.3672 48.3812 44.1761C50.1057 43.4793 49.9984 41.4519 49.9504 40.479L49.9443 40.3304C49.9606 38.609 50.0621 36.3246 50.6359 34.1945C51.8001 29.8952 54.9106 26.2224 58.9616 24.3699C59.9535 23.9152 60.4062 22.74 59.9608 21.7443C58.658 18.787 57.1255 16.5158 55.283 14.8119C52.9096 12.6216 49.9081 11.3861 47.0559 11.4276C45.8972 11.4428 44.7208 11.6809 43.636 12.1192L43.6397 12.1285Z" fill="#4504AA"/>
</svg>
