<svg width="40" height="40" viewBox="0 0 40 40" fill="none" xmlns="http://www.w3.org/2000/svg">
<path fill-rule="evenodd" clip-rule="evenodd" d="M5 15.6667C5 11.933 5 10.0661 5.72662 8.64006C6.36578 7.38565 7.38565 6.36578 8.64006 5.72662C10.0661 5 11.933 5 15.6667 5H24.3333C28.067 5 29.9339 5 31.3599 5.72662C32.6144 6.36578 33.6342 7.38565 34.2734 8.64006C35 10.0661 35 11.933 35 15.6667V21.5336C35 22.3342 35 22.7345 34.8328 22.9569C34.6872 23.1508 34.4643 23.2715 34.2224 23.2877C33.9448 23.3064 33.6094 23.0878 32.9387 22.6507L28.1968 19.5605L28.037 19.4561C27.3776 19.0243 26.7159 18.591 25.9666 18.4248C25.3139 18.28 24.636 18.2944 23.99 18.4668C23.2484 18.6647 22.6058 19.1257 21.9653 19.5852L21.8101 19.6963L17.6341 22.678C16.8355 23.2482 16.7365 23.2939 16.6687 23.3147C16.5543 23.3499 16.4337 23.36 16.315 23.3443C16.2447 23.3351 16.1395 23.3065 15.2572 22.8771L14.3766 22.4486L14.238 22.3809C13.6569 22.0968 13.0725 21.811 12.4369 21.7144C11.8821 21.63 11.316 21.6586 10.7725 21.7984C10.1499 21.9585 9.59726 22.3017 9.04777 22.6429L8.9167 22.7242L5.69135 24.7185C5.38943 24.9052 5 24.6883 5 24.3333V24.3333V15.6667ZM5.82537 28.5547C5.5673 28.7143 5.43826 28.7941 5.34575 28.9138C5.26953 29.0125 5.20734 29.1524 5.18517 29.2751C5.15826 29.424 5.18227 29.5556 5.23029 29.8187C5.33777 30.4077 5.49541 30.9061 5.72662 31.3599C6.36578 32.6144 7.38565 33.6342 8.64006 34.2734C10.0661 35 11.933 35 15.6667 35H24.3333C28.067 35 29.9339 35 31.3599 34.2734C32.6144 33.6342 33.6342 32.6144 34.2734 31.3599C34.6375 30.6453 34.8191 29.82 34.9098 28.7046C34.931 28.4437 34.9416 28.3133 34.9092 28.1817C34.8816 28.0693 34.8246 27.9533 34.7527 27.8627C34.6685 27.7566 34.5518 27.6806 34.3184 27.5285L26.3769 22.3532C25.4392 21.7422 25.3213 21.696 25.2448 21.679C25.1142 21.65 24.9787 21.6529 24.8495 21.6874C24.7737 21.7076 24.658 21.7588 23.7471 22.4091L19.571 25.3908L19.4356 25.4878C18.8711 25.8926 18.3036 26.2994 17.6479 26.501C17.0759 26.6767 16.4728 26.7273 15.8795 26.6491C15.1994 26.5595 14.5722 26.2527 13.9481 25.9474L13.7985 25.8744L12.9179 25.4458C12.0986 25.0471 12.0019 25.0199 11.9358 25.0098C11.8249 24.9929 11.7116 24.9987 11.6029 25.0266C11.5382 25.0433 11.4448 25.0801 10.6697 25.5593L5.82537 28.5547ZM18.3333 15C18.3333 16.8409 16.8409 18.3333 15 18.3333C13.1591 18.3333 11.6667 16.8409 11.6667 15C11.6667 13.1591 13.1591 11.6667 15 11.6667C16.8409 11.6667 18.3333 13.1591 18.3333 15Z" fill="white"/>
</svg>
