<svg width="40" height="40" viewBox="0 0 40 40" fill="none" xmlns="http://www.w3.org/2000/svg">
<path d="M5.34023 28.8545C5.21893 28.3264 5.14466 27.7712 5.09645 27.1811C5.04704 26.5764 5.02296 25.8989 5.01123 25.1388L8.91647 22.7241L9.04755 22.6428C9.59704 22.3016 10.1497 21.9585 10.7723 21.7983C11.3158 21.6585 11.8819 21.6299 12.4367 21.7143C13.0723 21.8109 13.6567 22.0967 14.2377 22.3808L14.3763 22.4485L15.2569 22.8771C16.1392 23.3064 16.2445 23.335 16.3148 23.3443C16.4334 23.3599 16.5541 23.3498 16.6685 23.3146C16.7362 23.2938 16.8353 23.2481 17.6338 22.678L21.8099 19.6963L21.9651 19.5851C22.6055 19.1256 23.2482 18.6646 23.9898 18.4667C24.6357 18.2943 25.3137 18.2799 25.9663 18.4247C26.7157 18.5909 27.3774 19.0242 28.0368 19.456L28.1965 19.5605L34.9987 23.9932C34.9944 25.2356 34.9767 26.2878 34.9037 27.1811C34.8847 27.414 34.8616 27.6415 34.8332 27.864L26.3766 22.3532C25.4389 21.7421 25.3211 21.6959 25.2446 21.6789C25.114 21.65 24.9784 21.6529 24.8492 21.6873C24.7735 21.7076 24.6577 21.7587 23.7468 22.4091L19.5708 25.3908L19.4354 25.4877C18.8709 25.8925 18.3034 26.2994 17.6477 26.5009C17.0757 26.6767 16.4725 26.7272 15.8793 26.649C15.1991 26.5594 14.5719 26.2526 13.9479 25.9474L13.7983 25.8743L12.9177 25.4458C12.0984 25.047 12.0017 25.0198 11.9356 25.0098C11.8246 24.9929 11.7114 24.9986 11.6027 25.0266C11.538 25.0432 11.4445 25.08 10.6695 25.5592L5.34023 28.8545Z" fill="#12131A"/>
<path d="M18.3334 15C18.3334 16.841 16.841 18.3334 15.0001 18.3334C13.1591 18.3334 11.6668 16.841 11.6668 15C11.6668 13.1591 13.1591 11.6667 15.0001 11.6667C16.841 11.6667 18.3334 13.1591 18.3334 15Z" fill="#12131A"/>
<path fill-rule="evenodd" clip-rule="evenodd" d="M17.262 5H22.738C24.5443 4.99998 26.0012 4.99997 27.181 5.09636C28.3958 5.19561 29.4628 5.4053 30.4499 5.90828C32.0179 6.70722 33.2928 7.98206 34.0917 9.55008C34.5947 10.5372 34.8044 11.6042 34.9036 12.819C35 13.9988 35 15.4557 35 17.2619V22.7381C35 24.5443 35 26.0013 34.9036 27.181C34.8044 28.3958 34.5947 29.4628 34.0917 30.4499C33.2928 32.0179 32.0179 33.2928 30.4499 34.0917C29.4628 34.5947 28.3958 34.8044 27.181 34.9036C26.0013 35 24.5443 35 22.7381 35H17.2619C15.4557 35 13.9987 35 12.819 34.9036C11.6042 34.8044 10.5372 34.5947 9.55008 34.0917C7.98206 33.2928 6.70722 32.0179 5.90828 30.4499C5.4053 29.4628 5.19561 28.3958 5.09636 27.181C4.99997 26.0012 4.99998 24.5443 5 22.738V17.262C4.99998 15.4557 4.99997 13.9988 5.09636 12.819C5.19561 11.6042 5.4053 10.5372 5.90828 9.55008C6.70722 7.98206 7.98206 6.70722 9.55008 5.90828C10.5372 5.4053 11.6042 5.19561 12.819 5.09636C13.9988 4.99997 15.4557 4.99998 17.262 5ZM13.0904 8.41863C12.0818 8.50103 11.5023 8.65466 11.0634 8.8783C10.1226 9.35767 9.35767 10.1226 8.8783 11.0634C8.65466 11.5023 8.50103 12.0818 8.41863 13.0904C8.33463 14.1185 8.33333 15.439 8.33333 17.3333V22.6667C8.33333 24.561 8.33463 25.8815 8.41863 26.9096C8.50103 27.9182 8.65466 28.4977 8.8783 28.9366C9.35767 29.8774 10.1226 30.6423 11.0634 31.1217C11.5023 31.3453 12.0818 31.499 13.0904 31.5814C14.1185 31.6654 15.439 31.6667 17.3333 31.6667H22.6667C24.561 31.6667 25.8815 31.6654 26.9096 31.5814C27.9182 31.499 28.4977 31.3453 28.9366 31.1217C29.8774 30.6423 30.6423 29.8774 31.1217 28.9366C31.3453 28.4977 31.499 27.9182 31.5814 26.9096C31.6654 25.8815 31.6667 24.561 31.6667 22.6667V17.3333C31.6667 15.439 31.6654 14.1185 31.5814 13.0904C31.499 12.0818 31.3453 11.5023 31.1217 11.0634C30.6423 10.1226 29.8774 9.35767 28.9366 8.8783C28.4977 8.65466 27.9182 8.50103 26.9096 8.41863C25.8815 8.33463 24.561 8.33333 22.6667 8.33333H17.3333C15.439 8.33333 14.1185 8.33463 13.0904 8.41863Z" fill="#12131A"/>
</svg>
