<svg width="40" height="40" viewBox="0 0 40 40" fill="none" xmlns="http://www.w3.org/2000/svg">
<path fill-rule="evenodd" clip-rule="evenodd" d="M15 6.66667C15 5.74619 14.2538 5 13.3333 5C12.4129 5 11.6667 5.74619 11.6667 6.66667V8.33338C10.9016 8.33385 10.2346 8.33856 9.67496 8.38429C9.01605 8.43812 8.36069 8.55698 7.73005 8.8783C6.78924 9.35767 6.02434 10.1226 5.54497 11.0634C5.22365 11.694 5.10479 12.3494 5.05095 13.0083C5.02271 13.354 5.01011 13.7407 5.0045 14.1661C4.99843 14.6265 5.37346 15 5.83389 15H34.1661C34.6266 15 35.0016 14.6265 34.9955 14.1661C34.9899 13.7407 34.9773 13.354 34.9491 13.0083C34.8952 12.3494 34.7764 11.694 34.455 11.0634C33.9757 10.1226 33.2108 9.35767 32.27 8.8783C31.6393 8.55698 30.984 8.43812 30.3251 8.38429C29.7654 8.33856 29.0984 8.33385 28.3333 8.33338V6.66667C28.3333 5.74619 27.5871 5 26.6667 5C25.7462 5 25 5.74619 25 6.66667V8.33334H15V6.66667ZM35 19.1667C35 18.7064 34.6269 18.3333 34.1667 18.3333H5.83334C5.3731 18.3333 5 18.7064 5 19.1667V28.0643C4.99997 28.9428 4.99995 29.7008 5.05095 30.3251C5.10479 30.984 5.22365 31.6393 5.54497 32.27C6.02434 33.2108 6.78924 33.9757 7.73005 34.455C8.36069 34.7764 9.01605 34.8952 9.67496 34.9491C10.2992 35.0001 11.0573 35 11.9358 35H28.0645C28.943 35 29.7008 35.0001 30.3251 34.9491C30.984 34.8952 31.6393 34.7764 32.27 34.455C33.2108 33.9757 33.9757 33.2108 34.455 32.27C34.7764 31.6393 34.8952 30.984 34.9491 30.3251C35.0001 29.7008 35 28.9428 35 28.0643L35 19.1667Z" fill="white"/>
</svg>
