<svg width="40" height="40" viewBox="0 0 40 40" fill="none" xmlns="http://www.w3.org/2000/svg">
<path d="M23.7354 6.66669C25.077 6.66667 26.1842 6.66665 27.0862 6.74034C28.023 6.81689 28.8842 6.98116 29.6931 7.39331C30.9475 8.03247 31.9674 9.05234 32.6065 10.3068C33.0187 11.1156 33.183 11.9768 33.2595 12.9136C33.3332 13.8156 33.3332 14.9229 33.3332 16.2646V27.0688C33.3332 28.4105 33.3332 29.5177 33.2595 30.4197C33.183 31.3566 33.0187 32.2177 32.6065 33.0266C31.9674 34.281 30.9475 35.3009 29.6931 35.9401C28.8842 36.3522 28.023 36.5165 27.0862 36.593C26.1842 36.6667 25.077 36.6667 23.7354 36.6667H16.2643C14.9227 36.6667 13.8154 36.6667 12.9135 36.593C11.9766 36.5165 11.1155 36.3522 10.3066 35.9401C9.05215 35.3009 8.03228 34.281 7.39313 33.0266C6.98098 32.2177 6.8167 31.3566 6.74016 30.4197C6.66647 29.5177 6.66648 28.4105 6.6665 27.0689V27.0689V16.2645V16.2645C6.66648 14.9229 6.66647 13.8156 6.74016 12.9136C6.8167 11.9768 6.98098 11.1156 7.39313 10.3068C8.03228 9.05234 9.05215 8.03247 10.3066 7.39331C11.1155 6.98116 11.9766 6.81689 12.9135 6.74034C13.8154 6.66665 14.9227 6.66667 16.2643 6.66669H16.2643H16.6665V10H16.3332C14.9055 10 13.9351 10.0013 13.1849 10.0626C12.4542 10.1223 12.0805 10.2305 11.8199 10.3633C11.1927 10.6829 10.6827 11.1928 10.3632 11.8201C10.2303 12.0807 10.1221 12.4544 10.0624 13.1851C10.0011 13.9352 9.99984 14.9057 9.99984 16.3334V27C9.99984 28.4277 10.0011 29.3981 10.0624 30.1483C10.1221 30.879 10.2303 31.2527 10.3632 31.5133C10.6827 32.1405 11.1927 32.6505 11.8199 32.97C12.0805 33.1029 12.4542 33.2111 13.1849 33.2708C13.9351 33.3321 14.9055 33.3334 16.3332 33.3334H23.6665C25.0941 33.3334 26.0646 33.3321 26.8148 33.2708C27.5455 33.2111 27.9191 33.1029 28.1798 32.97C28.807 32.6505 29.3169 32.1405 29.6365 31.5133C29.7693 31.2527 29.8776 30.879 29.9373 30.1483C29.9985 29.3981 29.9998 28.4277 29.9998 27V16.3334C29.9998 14.9057 29.9985 13.9352 29.9373 13.1851C29.8776 12.4544 29.7693 12.0807 29.6365 11.8201C29.3169 11.1928 28.807 10.6829 28.1798 10.3633C27.9191 10.2305 27.5455 10.1223 26.8148 10.0626C26.0646 10.0013 25.0941 10 23.6665 10H23.3332V6.66669H23.7353H23.7354Z" fill="#12131A"/>
<path fill-rule="evenodd" clip-rule="evenodd" d="M16.6668 20C16.6668 20.9205 15.9206 21.6666 15.0002 21.6666C14.0797 21.6666 13.3335 20.9205 13.3335 20C13.3335 19.0795 14.0797 18.3333 15.0002 18.3333C15.9206 18.3333 16.6668 19.0795 16.6668 20ZM21.6668 18.3333C20.7464 18.3333 20.0002 19.0795 20.0002 20C20.0002 20.9205 20.7464 21.6666 21.6668 21.6666H25.0002C25.9206 21.6666 26.6668 20.9205 26.6668 20C26.6668 19.0795 25.9206 18.3333 25.0002 18.3333H21.6668ZM21.6668 25C20.7464 25 20.0002 25.7462 20.0002 26.6666C20.0002 27.5871 20.7464 28.3333 21.6668 28.3333H25.0002C25.9206 28.3333 26.6668 27.5871 26.6668 26.6666C26.6668 25.7462 25.9206 25 25.0002 25H21.6668ZM15.0002 28.3333C15.9206 28.3333 16.6668 27.5871 16.6668 26.6666C16.6668 25.7462 15.9206 25 15.0002 25C14.0797 25 13.3335 25.7462 13.3335 26.6666C13.3335 27.5871 14.0797 28.3333 15.0002 28.3333Z" fill="#12131A"/>
<path fill-rule="evenodd" clip-rule="evenodd" d="M13.3335 8.33331C13.3335 5.57189 15.5721 3.33331 18.3335 3.33331H21.6668C24.4283 3.33331 26.6668 5.57189 26.6668 8.33331C26.6668 11.0947 24.4283 13.3333 21.6668 13.3333H18.3335C15.5721 13.3333 13.3335 11.0947 13.3335 8.33331ZM18.3335 6.66665C17.413 6.66665 16.6668 7.41284 16.6668 8.33331C16.6668 9.25379 17.413 9.99998 18.3335 9.99998H21.6668C22.5873 9.99998 23.3335 9.25379 23.3335 8.33331C23.3335 7.41284 22.5873 6.66665 21.6668 6.66665H18.3335Z" fill="#12131A"/>
</svg>
