<svg width="40" height="40" viewBox="0 0 40 40" fill="none" xmlns="http://www.w3.org/2000/svg">
<path fill-rule="evenodd" clip-rule="evenodd" d="M13.5117 6.32906C13.3519 5.74798 13.272 5.45745 13.1659 5.32402C13.0558 5.18573 12.9731 5.12544 12.8077 5.06309C12.6482 5.00294 12.4292 5.01237 11.9913 5.03123C10.836 5.08098 10.0539 5.21007 9.39655 5.54499C8.45574 6.02435 7.69084 6.78926 7.21147 7.73007C6.6665 8.79963 6.6665 10.1998 6.6665 13V28.6667C6.6665 31.467 6.6665 32.8671 7.21147 33.9366C7.69084 34.8775 8.45574 35.6424 9.39655 36.1217C10.4661 36.6667 11.8662 36.6667 14.6665 36.6667H25.3332C28.1334 36.6667 29.5336 36.6667 30.6031 36.1217C31.5439 35.6424 32.3088 34.8775 32.7882 33.9366C33.3332 32.8671 33.3332 31.467 33.3332 28.6667V13C33.3332 10.1998 33.3332 8.79963 32.7882 7.73007C32.3088 6.78926 31.5439 6.02435 30.6031 5.54499C29.9458 5.21007 29.1636 5.08098 28.0084 5.03123C27.5704 5.01237 27.3515 5.00294 27.1919 5.06309C27.0266 5.12544 26.9438 5.18573 26.8338 5.32402C26.7277 5.45745 26.6478 5.74798 26.4879 6.32906C25.9059 8.44537 23.9677 10 21.6665 10H18.3332C16.0319 10 14.0938 8.44537 13.5117 6.32906ZM21.6665 15C20.746 15 19.9998 15.7462 19.9998 16.6667C19.9998 17.5872 20.746 18.3334 21.6665 18.3334H24.9998C25.9203 18.3334 26.6665 17.5872 26.6665 16.6667C26.6665 15.7462 25.9203 15 24.9998 15H21.6665ZM19.9998 23.3334C19.9998 22.4129 20.746 21.6667 21.6665 21.6667H24.9998C25.9203 21.6667 26.6665 22.4129 26.6665 23.3334C26.6665 24.2538 25.9203 25 24.9998 25H21.6665C20.746 25 19.9998 24.2538 19.9998 23.3334ZM21.6665 28.3334C20.746 28.3334 19.9998 29.0795 19.9998 30C19.9998 30.9205 20.746 31.6667 21.6665 31.6667H24.9998C25.9203 31.6667 26.6665 30.9205 26.6665 30C26.6665 29.0795 25.9203 28.3334 24.9998 28.3334H21.6665ZM16.6665 16.6667C16.6665 17.5872 15.9203 18.3334 14.9998 18.3334C14.0794 18.3334 13.3332 17.5872 13.3332 16.6667C13.3332 15.7462 14.0794 15 14.9998 15C15.9203 15 16.6665 15.7462 16.6665 16.6667ZM14.9998 25C15.9203 25 16.6665 24.2538 16.6665 23.3334C16.6665 22.4129 15.9203 21.6667 14.9998 21.6667C14.0794 21.6667 13.3332 22.4129 13.3332 23.3334C13.3332 24.2538 14.0794 25 14.9998 25ZM16.6665 30C16.6665 30.9205 15.9203 31.6667 14.9998 31.6667C14.0794 31.6667 13.3332 30.9205 13.3332 30C13.3332 29.0795 14.0794 28.3334 14.9998 28.3334C15.9203 28.3334 16.6665 29.0795 16.6665 30Z" fill="white"/>
<path fill-rule="evenodd" clip-rule="evenodd" d="M21.6665 3.33331H18.3332C17.4127 3.33331 16.6665 4.07951 16.6665 4.99998C16.6665 5.92045 17.4127 6.66665 18.3332 6.66665H21.6665C22.587 6.66665 23.3332 5.92045 23.3332 4.99998C23.3332 4.07951 22.587 3.33331 21.6665 3.33331Z" fill="white"/>
</svg>
