<svg width="40" height="40" viewBox="0 0 40 40" fill="none" xmlns="http://www.w3.org/2000/svg">
<path d="M6.6665 15H33.3332V18.3333H6.6665V15Z" fill="black"/>
<path fill-rule="evenodd" clip-rule="evenodd" d="M14.5978 8.33331H25.4022C26.7438 8.33329 27.8511 8.33327 28.753 8.40697C29.6899 8.48351 30.551 8.64779 31.3599 9.05994C32.6144 9.69909 33.6342 10.719 34.2734 11.9734C34.6855 12.7823 34.8498 13.6434 34.9263 14.5803C35 15.4823 35 16.5895 35 17.9311V25.4022C35 26.7438 35 27.851 34.9263 28.753C34.8498 29.6899 34.6855 30.551 34.2734 31.3599C33.6342 32.6143 32.6144 33.6342 31.3599 34.2734C30.551 34.6855 29.6899 34.8498 28.753 34.9263C27.851 35 26.7438 35 25.4021 35H14.5979C13.2562 35 12.149 35 11.247 34.9263C10.3101 34.8498 9.44896 34.6855 8.64006 34.2734C7.38565 33.6342 6.36578 32.6143 5.72662 31.3599C5.31447 30.551 5.1502 29.6899 5.07366 28.753C4.99996 27.851 4.99998 26.7438 5 25.4021V17.9312C4.99998 16.5895 4.99996 15.4823 5.07366 14.5803C5.1502 13.6434 5.31447 12.7823 5.72662 11.9734C6.36578 10.719 7.38565 9.69909 8.64006 9.05994C9.44896 8.64779 10.3101 8.48351 11.247 8.40697C12.149 8.33327 13.2562 8.33329 14.5978 8.33331ZM11.5184 11.7292C10.7877 11.7889 10.414 11.8971 10.1534 12.03C9.52616 12.3495 9.01622 12.8595 8.69665 13.4867C8.56383 13.7473 8.45562 14.121 8.39592 14.8517C8.33463 15.6019 8.33334 16.5723 8.33334 18V25.3333C8.33334 26.7609 8.33463 27.7314 8.39592 28.4816C8.45562 29.2123 8.56383 29.586 8.69665 29.8466C9.01622 30.4738 9.52616 30.9838 10.1534 31.3033C10.414 31.4362 10.7877 31.5444 11.5184 31.6041C12.2685 31.6654 13.239 31.6666 14.6667 31.6666H25.3333C26.761 31.6666 27.7315 31.6654 28.4816 31.6041C29.2123 31.5444 29.586 31.4362 29.8466 31.3033C30.4738 30.9838 30.9838 30.4738 31.3034 29.8466C31.4362 29.586 31.5444 29.2123 31.6041 28.4816C31.6654 27.7314 31.6667 26.7609 31.6667 25.3333V18C31.6667 16.5723 31.6654 15.6019 31.6041 14.8517C31.5444 14.121 31.4362 13.7473 31.3034 13.4867C30.9838 12.8595 30.4738 12.3495 29.8466 12.03C29.586 11.8971 29.2123 11.7889 28.4816 11.7292C27.7315 11.6679 26.761 11.6666 25.3333 11.6666H14.6667C13.239 11.6666 12.2685 11.6679 11.5184 11.7292Z" fill="black"/>
<path d="M14.9998 6.66667C14.9998 5.74619 14.2536 5 13.3332 5C12.4127 5 11.6665 5.74619 11.6665 6.66667V10C11.6665 10.9205 12.4127 11.6667 13.3332 11.6667C14.2536 11.6667 14.9998 10.9205 14.9998 10V6.66667Z" fill="black"/>
<path d="M28.3332 6.66667C28.3332 5.74619 27.587 5 26.6665 5C25.746 5 24.9998 5.74619 24.9998 6.66667V10C24.9998 10.9205 25.746 11.6667 26.6665 11.6667C27.587 11.6667 28.3332 10.9205 28.3332 10V6.66667Z" fill="black"/>
</svg>
