<svg width="24" height="24" viewBox="0 0 24 24" fill="none" xmlns="http://www.w3.org/2000/svg">
<path d="M15.4694 11.2929C15.0788 10.9024 14.4457 10.9024 14.0552 11.2929C13.6646 11.6834 13.6646 12.3166 14.0552 12.7071C14.4457 13.0976 15.0788 13.0976 15.4694 12.7071C15.8599 12.3166 15.8599 11.6834 15.4694 11.2929Z" fill="white"/>
<path d="M16.1767 9.1718C16.5672 8.78127 17.2004 8.78127 17.5909 9.1718C17.9814 9.56232 17.9814 10.1954 17.5909 10.586C17.2004 10.9765 16.5672 10.9765 16.1767 10.586C15.7862 10.1954 15.7862 9.56232 16.1767 9.1718Z" fill="white"/>
<path d="M19.712 11.2929C19.3215 10.9024 18.6884 10.9024 18.2978 11.2929C17.9073 11.6834 17.9073 12.3166 18.2978 12.7071C18.6884 13.0976 19.3215 13.0976 19.712 12.7071C20.1026 12.3166 20.1026 11.6834 19.712 11.2929Z" fill="white"/>
<path d="M16.1767 13.414C16.5672 13.0235 17.2004 13.0235 17.5909 13.414C17.9814 13.8046 17.9814 14.4377 17.5909 14.8282C17.2004 15.2188 16.5672 15.2188 16.1767 14.8282C15.7862 14.4377 15.7862 13.8046 16.1767 13.414Z" fill="white"/>
<path d="M6 13H4V11H6V9H8V11H10V13H8V15H6V13Z" fill="white"/>
<path fill-rule="evenodd" clip-rule="evenodd" d="M7 5C3.13401 5 0 8.13401 0 12C0 15.866 3.13401 19 7 19H17C20.866 19 24 15.866 24 12C24 8.13401 20.866 5 17 5H7ZM17 7H7C4.23858 7 2 9.23858 2 12C2 14.7614 4.23858 17 7 17H17C19.7614 17 22 14.7614 22 12C22 9.23858 19.7614 7 17 7Z" fill="white"/>
</svg>
