<svg width="25" height="24" viewBox="0 0 25 24" fill="none" xmlns="http://www.w3.org/2000/svg">
<g clip-path="url(#clip0_2756_48)">
<path d="M15.5695 11.2929C15.1789 10.9024 14.5458 10.9024 14.1553 11.2929C13.7647 11.6834 13.7647 12.3166 14.1553 12.7071C14.5458 13.0976 15.1789 13.0976 15.5695 12.7071C15.96 12.3166 15.96 11.6834 15.5695 11.2929Z" fill="black"/>
<path d="M16.2763 9.1718C16.6668 8.78127 17.3 8.78127 17.6905 9.1718C18.081 9.56232 18.081 10.1954 17.6905 10.586C17.3 10.9765 16.6668 10.9765 16.2763 10.586C15.8858 10.1954 15.8858 9.56232 16.2763 9.1718Z" fill="black"/>
<path d="M19.8116 11.2929C19.4211 10.9024 18.788 10.9024 18.3974 11.2929C18.0069 11.6834 18.0069 12.3166 18.3974 12.7071C18.788 13.0976 19.4211 13.0976 19.8116 12.7071C20.2022 12.3166 20.2022 11.6834 19.8116 11.2929Z" fill="black"/>
<path d="M16.2763 13.414C16.6668 13.0235 17.3 13.0235 17.6905 13.414C18.081 13.8046 18.081 14.4377 17.6905 14.8282C17.3 15.2188 16.6668 15.2188 16.2763 14.8282C15.8858 14.4377 15.8858 13.8046 16.2763 13.414Z" fill="black"/>
<path d="M6.09961 13H4.09961V11H6.09961V9H8.09961V11H10.0996V13H8.09961V15H6.09961V13Z" fill="black"/>
<path fill-rule="evenodd" clip-rule="evenodd" d="M7.09961 5C3.23362 5 0.0996094 8.13401 0.0996094 12C0.0996094 15.866 3.23362 19 7.09961 19H17.0996C20.9656 19 24.0996 15.866 24.0996 12C24.0996 8.13401 20.9656 5 17.0996 5H7.09961ZM17.0996 7H7.09961C4.33819 7 2.09961 9.23858 2.09961 12C2.09961 14.7614 4.33819 17 7.09961 17H17.0996C19.861 17 22.0996 14.7614 22.0996 12C22.0996 9.23858 19.861 7 17.0996 7Z" fill="black"/>
</g>
<defs>
<clipPath id="clip0_2756_48">
<rect width="24" height="24" fill="white" transform="translate(0.0996094)"/>
</clipPath>
</defs>
</svg>
