<svg width="25" height="24" viewBox="0 0 25 24" fill="none" xmlns="http://www.w3.org/2000/svg">
<g clip-path="url(#clip0_54_407)">
<path d="M12.8334 0C19.4608 0 24.8334 5.37259 24.8334 12C24.8334 18.1352 20.229 23.1944 14.2872 23.9121V15.667L17.5335 15.667L18.2069 12H14.2872V10.7031C14.2872 9.73417 14.4773 9.06339 14.9133 8.63483C15.3493 8.20627 16.0313 8.01993 17.0151 8.01993C17.2641 8.01993 17.4933 8.02241 17.6967 8.02736C17.9925 8.03456 18.2336 8.047 18.4015 8.06467V4.74048C18.3344 4.72184 18.2552 4.70321 18.1665 4.68486C17.9655 4.6433 17.7156 4.60324 17.4471 4.56806C16.8858 4.49453 16.2427 4.4423 15.7928 4.4423C13.9758 4.4423 12.6026 4.83102 11.6441 5.63619C10.4873 6.60791 9.93452 8.18622 9.93452 10.4199V12H7.46002V15.667H9.93452V23.6466C4.70775 22.3498 0.833435 17.6277 0.833435 12C0.833435 5.37259 6.20602 0 12.8334 0Z" fill="white"/>
</g>
<defs>
<clipPath id="clip0_54_407">
<rect width="24" height="24" fill="white" transform="translate(0.833435)"/>
</clipPath>
</defs>
</svg>
