<svg width="40" height="40" viewBox="0 0 40 40" fill="none" xmlns="http://www.w3.org/2000/svg">
<path fill-rule="evenodd" clip-rule="evenodd" d="M20.0002 6.66665C12.6364 6.66665 6.66683 12.6362 6.66683 20C6.66683 27.3638 12.6364 33.3333 20.0002 33.3333C27.364 33.3333 33.3335 27.3638 33.3335 20C33.3335 12.6362 27.364 6.66665 20.0002 6.66665ZM3.3335 20C3.3335 10.7952 10.7954 3.33331 20.0002 3.33331C29.2049 3.33331 36.6668 10.7952 36.6668 20C36.6668 29.2047 29.2049 36.6666 20.0002 36.6666C10.7954 36.6666 3.3335 29.2047 3.3335 20Z" fill="#12131A"/>
<path fill-rule="evenodd" clip-rule="evenodd" d="M18.5554 15.8346C18.0945 16.6313 17.075 16.9036 16.2782 16.4427C15.4814 15.9818 15.2092 14.9622 15.6701 14.1655C16.5321 12.6753 18.1473 11.6667 20.0001 11.6667C22.7616 11.6667 25.0001 13.9053 25.0001 16.6667C25.0001 18.4962 23.8778 19.99 22.5001 20.8334C21.3935 21.5108 22.0835 23.3334 19.9958 23.3334C19.0753 23.3334 18.3291 22.5872 18.3291 21.6667C18.3291 21.6082 18.3321 21.5504 18.338 21.4934C18.3842 20.612 18.7773 19.8948 19.2052 19.3733C19.6572 18.8225 20.2514 18.3729 20.7057 18.1028C23.2336 16.6 20.1504 13.5257 18.5554 15.8346ZM19.9958 25C19.0753 25 18.3291 25.7462 18.3291 26.6667C18.3291 27.5872 19.0753 28.3334 19.9958 28.3334C20.9162 28.3334 21.6624 27.5872 21.6624 26.6667C21.6624 25.7462 20.9162 25 19.9958 25Z" fill="#12131A"/>
</svg>
