<svg width="40" height="40" viewBox="0 0 40 40" fill="none" xmlns="http://www.w3.org/2000/svg">
<path fill-rule="evenodd" clip-rule="evenodd" d="M3.3335 20C3.3335 10.7952 10.7954 3.33331 20.0002 3.33331C29.2049 3.33331 36.6668 10.7952 36.6668 20C36.6668 29.2047 29.2049 36.6666 20.0002 36.6666C10.7954 36.6666 3.3335 29.2047 3.3335 20ZM16.2783 16.4427C17.0751 16.9036 18.0946 16.6313 18.5555 15.8345C20.1505 13.5256 23.2337 16.6 20.7058 18.1027C20.2515 18.3728 19.6573 18.8224 19.2053 19.3732C18.7774 19.8947 18.3843 20.6119 18.3381 21.4934C18.3322 21.5503 18.3292 21.6081 18.3292 21.6666C18.3292 22.5871 19.0754 23.3333 19.9959 23.3333C21.2663 23.3333 21.5082 22.6584 21.7522 21.9773C21.9092 21.5392 22.0671 21.0985 22.5003 20.8333C23.878 19.9899 25.0002 18.4962 25.0003 16.6666C25.0003 13.9052 22.7617 11.6666 20.0003 11.6666C18.1475 11.6666 16.5322 12.6753 15.6702 14.1654C15.2093 14.9622 15.4816 15.9818 16.2783 16.4427ZM18.3292 26.6666C18.3292 25.7462 19.0754 25 19.9959 25C20.9164 25 21.6626 25.7462 21.6626 26.6666C21.6626 27.5871 20.9164 28.3333 19.9959 28.3333C19.0754 28.3333 18.3292 27.5871 18.3292 26.6666Z" fill="white"/>
</svg>
