<svg width="40" height="40" viewBox="0 0 40 40" fill="none" xmlns="http://www.w3.org/2000/svg">
<path fill-rule="evenodd" clip-rule="evenodd" d="M20.815 8.43337C20.2801 8.29852 19.7202 8.29852 19.1853 8.43337C18.6529 8.56758 18.1149 8.91604 16.3337 10.1807L11.0004 13.9673C9.68534 14.9009 9.31076 15.1864 9.04867 15.519C8.78561 15.8528 8.58883 16.2339 8.46891 16.6417C8.34944 17.0479 8.33349 17.5186 8.33349 19.1314V25.3333C8.33349 26.761 8.33479 27.7314 8.39608 28.4816C8.45578 29.2123 8.56399 29.586 8.6968 29.8466C9.01638 30.4738 9.52632 30.9838 10.1535 31.3034C10.4142 31.4362 10.7879 31.5444 11.5186 31.6041C12.2687 31.6654 13.2392 31.6667 14.6668 31.6667H25.3335C26.7611 31.6667 27.7316 31.6654 28.4818 31.6041C29.2125 31.5444 29.5861 31.4362 29.8468 31.3034C30.474 30.9838 30.9839 30.4738 31.3035 29.8466C31.4363 29.586 31.5445 29.2123 31.6042 28.4816C31.6655 27.7315 31.6668 26.761 31.6668 25.3333V19.1314C31.6668 17.5186 31.6509 17.0479 31.5314 16.6417C31.4115 16.2339 31.2147 15.8528 30.9516 15.519C30.6896 15.1864 30.315 14.9009 29 13.9673L23.6666 10.1807C21.8854 8.91604 21.3474 8.56758 20.815 8.43337ZM18.3705 5.20117C19.4402 4.93148 20.5601 4.93148 21.6299 5.20117C22.8477 5.50819 23.9258 6.27487 25.3581 7.29335C25.4364 7.34906 25.5158 7.40552 25.5963 7.46271L30.9297 11.2493C30.9881 11.2908 31.0457 11.3316 31.1026 11.372C32.1682 12.1276 32.9726 12.698 33.5698 13.4559C34.0959 14.1236 34.4895 14.8857 34.7293 15.7012C35.0016 16.627 35.001 17.613 35.0002 18.9194C35.0002 18.9891 35.0002 19.0598 35.0002 19.1314V25.4022C35.0002 26.7438 35.0002 27.8511 34.9265 28.753C34.85 29.6899 34.6857 30.551 34.2735 31.3599C33.6344 32.6143 32.6145 33.6342 31.3601 34.2734C30.5512 34.6855 29.69 34.8498 28.7532 34.9263C27.8512 35 26.744 35 25.4024 35H14.598C13.2564 35 12.1491 35 11.2471 34.9263C10.3103 34.8498 9.44912 34.6855 8.64022 34.2734C7.38581 33.6342 6.36594 32.6143 5.72678 31.3599C5.31463 30.551 5.15036 29.6899 5.07382 28.753C5.00012 27.851 5.00014 26.7438 5.00016 25.4022L5.00016 19.1314C5.00016 19.0598 5.00012 18.9891 5.00008 18.9194C4.99932 17.613 4.99875 16.627 5.271 15.7012C5.51083 14.8857 5.9044 14.1236 6.43052 13.4559C7.02776 12.698 7.83213 12.1276 8.89773 11.372C8.95463 11.3316 9.01227 11.2908 9.07066 11.2493L14.404 7.4627C14.4845 7.40552 14.5639 7.34906 14.6423 7.29336C16.0745 6.27488 17.1526 5.50819 18.3705 5.20117Z" fill="black"/>
</svg>
