<svg width="40" height="40" viewBox="0 0 40 40" fill="none" xmlns="http://www.w3.org/2000/svg">
<path d="M21.1795 5.13463C20.4043 4.94641 19.5953 4.94641 18.8201 5.13463C17.9342 5.34973 17.152 5.8813 16.2615 6.48641L7.9262 12.1337C7.21553 12.614 6.58974 13.0369 6.12052 13.6139C5.70898 14.12 5.40044 14.7017 5.21229 15.3263C4.99777 16.0384 4.99865 16.7937 4.99965 17.6514L4.99978 28.0648C4.99975 28.9433 4.99973 29.7013 5.05073 30.3256C5.10457 30.9845 5.22343 31.6398 5.54475 32.2705C6.02412 33.2113 6.78902 33.9762 7.72983 34.4556C8.36046 34.7769 9.01583 34.8957 9.67474 34.9496C10.299 35.0006 11.0569 35.0006 11.9355 35.0005H28.0641C28.9426 35.0006 29.7006 35.0006 30.3248 34.9496C30.9837 34.8957 31.6391 34.7769 32.2697 34.4556C33.2105 33.9762 33.9754 33.2113 34.4548 32.2705C34.7761 31.6398 34.895 30.9845 34.9488 30.3256C34.9998 29.7013 34.9998 28.9434 34.9998 28.0648L34.9999 17.6514C35.0009 16.7937 35.0018 16.0384 34.7873 15.3263C34.5991 14.7017 34.2906 14.12 33.879 13.6139C33.4098 13.0369 32.784 12.614 32.0734 12.1337L23.738 6.48641C22.8476 5.8813 22.0654 5.34973 21.1795 5.13463Z" fill="white"/>
</svg>
