<svg width="40" height="40" viewBox="0 0 40 40" fill="none" xmlns="http://www.w3.org/2000/svg">
<g id="House">
<path id="Vector" d="M33.3332 28.3336V19.087C33.3332 18.1965 33.3324 17.751 33.2241 17.3366C33.1282 16.9693 32.9706 16.6218 32.7574 16.3077C32.5169 15.9534 32.1824 15.6595 31.5122 15.073L23.5122 8.07304C22.2679 6.98423 21.6457 6.44011 20.9455 6.23304C20.3285 6.05058 19.6709 6.05058 19.0539 6.23304C18.3542 6.43995 17.7329 6.98356 16.4904 8.07073L8.48779 15.073C7.81757 15.6595 7.48324 15.9534 7.24268 16.3077C7.02949 16.6218 6.87075 16.9693 6.77479 17.3366C6.6665 17.751 6.6665 18.1965 6.6665 19.087V28.3336C6.6665 29.8867 6.6665 30.663 6.92024 31.2756C7.25855 32.0923 7.90704 32.7421 8.7238 33.0804C9.33637 33.3341 10.1129 33.3341 11.6661 33.3341C13.2192 33.3341 13.9966 33.3341 14.6092 33.0804C15.426 32.7421 16.0743 32.0925 16.4126 31.2757C16.6663 30.6632 16.6665 29.8866 16.6665 28.3335V26.6668C16.6665 24.8258 18.1589 23.3335 19.9998 23.3335C21.8408 23.3335 23.3332 24.8258 23.3332 26.6668V28.3335C23.3332 29.8866 23.3332 30.6632 23.5869 31.2757C23.9252 32.0925 24.5737 32.7421 25.3905 33.0804C26.003 33.3341 26.7796 33.3341 28.3327 33.3341C29.8859 33.3341 30.6633 33.3341 31.2759 33.0804C32.0926 32.7421 32.741 32.0923 33.0793 31.2756C33.333 30.663 33.3332 29.8867 33.3332 28.3336Z" stroke="black" stroke-width="3" stroke-linecap="round" stroke-linejoin="round"/>
</g>
</svg>
