<?xml version="1.0" encoding="iso-8859-1"?>
<!-- Uploaded to: SVG Repo, www.svgrepo.com, Generator: SVG Repo Mixer Tools -->
<svg height="800px" width="800px" version="1.1" id="Capa_1" xmlns="http://www.w3.org/2000/svg" xmlns:xlink="http://www.w3.org/1999/xlink" 
	 viewBox="0 0 154.148 154.148" xml:space="preserve">
<g>
	<path style="fill:#010002;" d="M18.145,0v143.205h4.732v10.943h23.867v-10.943h60.659v10.943h23.867v-10.943h4.732V0H18.145z
		 M58.988,8.58H95.16v5.967H58.988V8.58z M124.069,131.271h-93.99v-2.238h93.99V131.271z M34.572,116.354
		c0-4.034,3.276-7.315,7.309-7.315c4.04,0,7.315,3.282,7.315,7.315c0,4.04-3.276,7.315-7.315,7.315
		C37.848,123.669,34.572,120.394,34.572,116.354z M115.369,103.674h-20.83c0-0.09-0.024-0.155-0.024-0.245
		c0-5.758,4.684-10.442,10.442-10.442c5.764,0,10.442,4.684,10.442,10.442C115.399,103.519,115.375,103.585,115.369,103.674z
		 M119.576,116.354c0,4.04-3.276,7.315-7.321,7.315c-4.034,0-7.309-3.276-7.309-7.315c0-4.034,3.276-7.315,7.309-7.315
		C116.3,109.039,119.576,112.32,119.576,116.354z M95.16,113.371v5.967H58.988v-5.967H95.16z M124.069,103.674h-2.733
		c0-0.09,0.024-0.155,0.024-0.245c0-9.052-7.351-16.409-16.409-16.409s-16.409,7.357-16.409,16.409c0,0.09,0.024,0.155,0.024,0.245
		H30.073V20.508h93.99L124.069,103.674L124.069,103.674z"/>
</g>
</svg>