<svg width="40" height="40" viewBox="0 0 40 40" fill="none" xmlns="http://www.w3.org/2000/svg">
<path fill-rule="evenodd" clip-rule="evenodd" d="M3.3335 20C3.3335 10.7952 10.7954 3.33331 20.0002 3.33331C29.2049 3.33331 36.6668 10.7952 36.6668 20C36.6668 29.2047 29.2049 36.6666 20.0002 36.6666C10.7954 36.6666 3.3335 29.2047 3.3335 20ZM26.1787 17.8452C26.8295 17.1943 26.8295 16.139 26.1787 15.4881C25.5278 14.8373 24.4725 14.8373 23.8217 15.4881L18.3335 20.9763L16.1787 18.8215C15.5278 18.1706 14.4725 18.1706 13.8217 18.8215C13.1708 19.4723 13.1708 20.5276 13.8217 21.1785L17.155 24.5118C17.8059 25.1627 18.8611 25.1627 19.512 24.5118L26.1787 17.8452Z" fill="white"/>
</svg>
