<svg width="25" height="24" viewBox="0 0 25 24" fill="none" xmlns="http://www.w3.org/2000/svg">
<path d="M19.2286 7.02212C18.4339 7.02368 17.7877 6.3802 17.7862 5.58548C17.7846 4.79076 18.4281 4.14457 19.2232 4.14302C20.0183 4.14146 20.6645 4.78531 20.666 5.58004C20.6672 6.37476 20.0237 7.02057 19.2286 7.02212Z" fill="white"/>
<path fill-rule="evenodd" clip-rule="evenodd" d="M12.8449 18.161C9.44252 18.1676 6.67854 15.4149 6.67194 12.0117C6.66532 8.60923 9.41879 5.84481 12.8212 5.8382C16.2244 5.83159 18.9887 8.5859 18.9954 11.9879C19.002 15.3912 16.2477 18.1544 12.8449 18.161ZM12.8255 8.00035C10.6171 8.00424 8.82938 9.79858 8.83327 12.0074C8.83754 14.2166 10.6323 16.0039 12.8406 15.9996C15.0498 15.9954 16.8375 14.2014 16.8332 11.9922C16.829 9.78302 15.0343 7.99608 12.8255 8.00035Z" fill="white"/>
<path fill-rule="evenodd" clip-rule="evenodd" d="M4.95264 0.646479C5.7147 0.347876 6.58677 0.143362 7.86359 0.0830982C9.14354 0.0216726 9.55216 0.00767102 12.8103 0.00145262C16.0692 -0.00476578 16.4779 0.00766862 17.7578 0.0644334C19.035 0.119643 19.9075 0.321049 20.6711 0.616544C21.4611 0.920974 22.1314 1.33078 22.7994 1.99603C23.4674 2.66205 23.8787 3.33002 24.187 4.1189C24.4852 4.88174 24.6897 5.75306 24.7504 7.03068C24.811 8.31023 24.8258 8.71847 24.832 11.9771C24.8383 15.2353 24.825 15.6443 24.769 16.925C24.7134 18.2014 24.5124 19.0743 24.217 19.8375C23.9117 20.6276 23.5027 21.2979 22.8375 21.9659C22.1722 22.6342 21.5035 23.0452 20.7146 23.3539C19.9518 23.6517 19.0805 23.8562 17.8037 23.9173C16.5238 23.9779 16.1151 23.9923 12.8558 23.9985C9.59803 24.0048 9.18941 23.9923 7.90948 23.9359C6.63226 23.88 5.75941 23.6789 4.99618 23.3838C4.20615 23.0782 3.53586 22.6696 2.86789 22.004C2.19955 21.3383 1.78782 20.67 1.47989 19.8811C1.18129 19.1186 0.977542 18.2469 0.916508 16.9705C0.855471 15.6901 0.84109 15.2811 0.834874 12.0229C0.828634 8.76435 0.841472 8.35611 0.897452 7.07616C0.953835 5.79855 1.15407 4.92606 1.44956 4.16206C1.75476 3.37239 2.16378 2.70248 2.8298 2.03413C3.49504 1.36616 4.16377 0.954017 4.95264 0.646479ZM5.77497 21.3679C6.19837 21.5308 6.83366 21.7252 8.00358 21.7761C9.2695 21.8309 9.64857 21.843 12.8519 21.8368C16.0564 21.8309 16.4355 21.8173 17.701 21.7579C18.8698 21.7022 19.5051 21.5055 19.9273 21.3407C20.4876 21.1218 20.8865 20.8601 21.3056 20.4406C21.7247 20.0195 21.9841 19.6194 22.201 19.0591C22.3643 18.6354 22.5583 17.9996 22.6092 16.8297C22.6649 15.5646 22.6765 15.1851 22.6703 11.9809C22.6645 8.77757 22.6508 8.3981 22.5906 7.13254C22.5354 5.96339 22.339 5.32808 22.1738 4.90623C21.9549 4.34519 21.694 3.94705 21.2733 3.52753C20.8526 3.10801 20.4526 2.84945 19.8915 2.6325C19.4689 2.46881 18.8328 2.27518 17.6637 2.22426C16.3978 2.16865 16.0183 2.15737 12.8142 2.1636C9.61086 2.16982 9.23179 2.18264 7.96624 2.24253C6.79673 2.29812 6.1622 2.49447 5.73918 2.65972C5.17931 2.87861 4.7804 3.13872 4.36089 3.5598C3.94214 3.98087 3.68281 4.38018 3.46587 4.94161C3.30337 5.36464 3.10778 6.00072 3.05764 7.16987C3.00241 8.43581 2.99076 8.81529 2.99698 12.0187C3.00282 15.2228 3.01642 15.6023 3.07591 16.8671C3.13073 18.037 3.32862 18.6715 3.49309 19.0949C3.71198 19.6544 3.97288 20.0533 4.39317 20.4729C4.81424 20.8908 5.21431 21.1509 5.77497 21.3679Z" fill="white"/>
</svg>
