<svg width="25" height="24" viewBox="0 0 25 24" fill="none" xmlns="http://www.w3.org/2000/svg">
<g clip-path="url(#clip0_54_394)">
<path fill-rule="evenodd" clip-rule="evenodd" d="M24.8334 10.6091C24.8334 5.30214 19.4608 1 12.8333 1C6.20587 1 0.833201 5.30214 0.833374 10.6091C0.833374 15.3395 5.10209 19.2714 10.7233 20.0699L10.7258 20.0703C10.8578 20.089 10.991 20.1054 11.1245 20.1208C12.3193 20.3696 12.1217 21.3967 11.957 22.2525C11.8579 22.7675 11.7707 23.2205 12.0062 23.4045C12.7271 23.9679 18.1892 20.3161 21.5077 17.2488C21.9879 16.8467 22.4248 16.411 22.8127 15.9469L22.8197 15.9392C22.9122 15.8372 22.9857 15.7449 23.0418 15.6614C24.1774 14.1935 24.8334 12.4628 24.8334 10.6091ZM8.29147 13.6736H5.87126C5.527 13.6736 5.24542 13.3919 5.24542 13.0476V8.40585C5.24542 8.06159 5.527 7.78001 5.87126 7.78001H5.92347C6.26773 7.78001 6.5493 8.06159 6.5493 8.40585V12.3696H8.29147C8.63573 12.3696 8.91731 12.6512 8.91731 12.9954V13.0477C8.91731 13.3919 8.63573 13.6736 8.29147 13.6736ZM20.8682 10.7119V10.7641C20.8682 11.1082 20.5865 11.3899 20.2423 11.3897H18.5002V12.3807H20.2423C20.5865 12.3807 20.8682 12.6623 20.8682 13.0065V13.0587C20.8682 13.403 20.5865 13.6847 20.2423 13.6847H17.822C17.4778 13.6847 17.1962 13.403 17.1962 13.0587V8.41702C17.1962 8.07276 17.4778 7.79118 17.822 7.79118H20.2423C20.5865 7.79118 20.8682 8.07276 20.8682 8.41702V8.46923C20.8682 8.81349 20.5865 9.09506 20.2423 9.09506H18.5002V10.086H20.2423C20.5865 10.086 20.8682 10.3676 20.8682 10.7119ZM16.2138 13.487C16.1767 13.5323 16.1239 13.5707 16.0613 13.6005C15.9714 13.6485 15.8709 13.6736 15.7689 13.6736H15.7167C15.6328 13.6736 15.5526 13.6568 15.4793 13.6265C15.3839 13.5907 15.2983 13.5322 15.2357 13.4468C15.2191 13.4269 15.2037 13.4058 15.1897 13.384L12.9113 10.272V13.0477C12.9113 13.392 12.6297 13.6737 12.2855 13.6737H12.2332C11.8889 13.6737 11.6073 13.392 11.6073 13.0477V8.40602C11.6073 8.06176 11.889 7.78019 12.2332 7.78019H12.2855C12.5173 7.78019 12.7208 7.90799 12.8289 8.09666L15.091 11.1308V8.40602C15.091 8.06176 15.3726 7.78019 15.7168 7.78019H15.769C16.1134 7.78019 16.3949 8.06176 16.3949 8.40602V13.0477C16.3948 13.2122 16.3296 13.3702 16.2138 13.487ZM10.1005 13.6736H10.0483C9.70402 13.6736 9.42236 13.3919 9.42236 13.0477V8.40594C9.42236 8.06167 9.70402 7.7801 10.0483 7.7801H10.1005C10.4448 7.7801 10.7263 8.06167 10.7263 8.40594V13.0477C10.7263 13.3919 10.4448 13.6736 10.1005 13.6736Z" fill="white"/>
</g>
<defs>
<clipPath id="clip0_54_394">
<rect width="24" height="24" fill="white" transform="translate(0.833435)"/>
</clipPath>
</defs>
</svg>
