<svg width="24" height="24" viewBox="0 0 24 24" fill="none" xmlns="http://www.w3.org/2000/svg">
<g id="sound">
<path id="Vector" d="M18.82 4.68646C19.8191 5.61815 20.6167 6.74466 21.1636 7.99651C21.7105 9.24836 21.9952 10.599 21.9999 11.9651C22.0047 13.3312 21.7295 14.6838 21.1914 15.9394C20.6532 17.1951 19.8635 18.3271 18.8709 19.2657M16.092 7.61188C16.6915 8.17089 17.17 8.8468 17.4982 9.5979C17.8263 10.349 17.9971 11.1594 18 11.9791C18.0028 12.7987 17.8377 13.6103 17.5148 14.3636C17.1919 15.117 16.7181 15.7963 16.1225 16.3594M7.4803 15.4069L9.15553 17.48C10.0288 18.5607 10.4655 19.101 10.848 19.1598C11.1792 19.2108 11.5138 19.0924 11.7394 18.8447C12 18.5585 12 17.8638 12 16.4743V7.52566C12 6.13621 12 5.44149 11.7394 5.1553C11.5138 4.90755 11.1792 4.78923 10.848 4.84015C10.4655 4.89897 10.0288 5.43933 9.15553 6.52003L7.4803 8.59313C7.30388 8.81145 7.21567 8.92061 7.10652 8.99916C7.00982 9.06875 6.90147 9.1205 6.78656 9.15197C6.65687 9.1875 6.51652 9.1875 6.23583 9.1875H4.8125C4.0563 9.1875 3.6782 9.1875 3.37264 9.28844C2.77131 9.48709 2.2996 9.95881 2.10094 10.5601C2 10.8657 2 11.2438 2 12C2 12.7562 2 13.1343 2.10094 13.4399C2.2996 14.0412 2.77131 14.5129 3.37264 14.7116C3.6782 14.8125 4.0563 14.8125 4.8125 14.8125H6.23583C6.51652 14.8125 6.65687 14.8125 6.78656 14.848C6.90147 14.8795 7.00982 14.9312 7.10652 15.0008C7.21567 15.0794 7.30388 15.1885 7.4803 15.4069Z" stroke="#4504AA" stroke-width="2" stroke-linecap="round" stroke-linejoin="round"/>
</g>
</svg>
