<svg width="40" height="40" viewBox="0 0 40 40" fill="none" xmlns="http://www.w3.org/2000/svg">
<path fill-rule="evenodd" clip-rule="evenodd" d="M20.0002 33.3333C27.364 33.3333 33.3335 27.3638 33.3335 20C33.3335 12.6362 27.364 6.66665 20.0002 6.66665C12.6364 6.66665 6.66683 12.6362 6.66683 20C6.66683 27.3638 12.6364 33.3333 20.0002 33.3333ZM20.0002 36.6666C29.2049 36.6666 36.6668 29.2047 36.6668 20C36.6668 10.7952 29.2049 3.33331 20.0002 3.33331C10.7954 3.33331 3.3335 10.7952 3.3335 20C3.3335 29.2047 10.7954 36.6666 20.0002 36.6666Z" fill="#12131A"/>
<path fill-rule="evenodd" clip-rule="evenodd" d="M16.7974 15.5898L25.6291 13.3587C26.2408 13.2042 26.7957 13.759 26.6412 14.3707L24.4102 23.2025C24.2601 23.7964 23.7964 24.2602 23.2025 24.4102L14.3707 26.6413C13.759 26.7958 13.2042 26.2409 13.3587 25.6292L15.5897 16.7975C15.7397 16.2036 16.2035 15.7398 16.7974 15.5898ZM19.9999 21.6667C20.9204 21.6667 21.6666 20.9205 21.6666 20C21.6666 19.0795 20.9204 18.3333 19.9999 18.3333C19.0794 18.3333 18.3332 19.0795 18.3332 20C18.3332 20.9205 19.0794 21.6667 19.9999 21.6667Z" fill="#12131A"/>
</svg>
