<svg width="40" height="40" viewBox="0 0 40 40" fill="none" xmlns="http://www.w3.org/2000/svg">
<path d="M20.0002 21.6666C20.9206 21.6666 21.6668 20.9205 21.6668 20C21.6668 19.0795 20.9206 18.3333 20.0002 18.3333C19.0797 18.3333 18.3335 19.0795 18.3335 20C18.3335 20.9205 19.0797 21.6666 20.0002 21.6666Z" fill="white"/>
<path fill-rule="evenodd" clip-rule="evenodd" d="M36.6668 20C36.6668 29.2047 29.2049 36.6666 20.0002 36.6666C10.7954 36.6666 3.3335 29.2047 3.3335 20C3.3335 10.7952 10.7954 3.33331 20.0002 3.33331C29.2049 3.33331 36.6668 10.7952 36.6668 20ZM25.6294 13.3587L16.7977 15.5898C16.2038 15.7398 15.74 16.2035 15.59 16.7975L13.3589 25.6292C13.2044 26.2409 13.7593 26.7958 14.371 26.6413L23.2027 24.4102C23.7966 24.2602 24.2604 23.7964 24.4104 23.2025L26.6415 14.3707C26.796 13.759 26.2411 13.2041 25.6294 13.3587Z" fill="white"/>
</svg>
