<svg width="40" height="40" viewBox="0 0 40 40" fill="none" xmlns="http://www.w3.org/2000/svg">
<path fill-rule="evenodd" clip-rule="evenodd" d="M5.72662 8.64006C5 10.0661 5 11.933 5 15.6667V24.3333C5 28.067 5 29.9339 5.72662 31.3599C6.36578 32.6144 7.38565 33.6342 8.64006 34.2734C10.0661 35 11.933 35 15.6667 35H24.3333C28.067 35 29.9339 35 31.3599 34.2734C32.6144 33.6342 33.6342 32.6144 34.2734 31.3599C35 29.9339 35 28.067 35 24.3333V15.6667C35 11.933 35 10.0661 34.2734 8.64006C33.6342 7.38565 32.6144 6.36578 31.3599 5.72662C29.9339 5 28.067 5 24.3333 5H15.6667C11.933 5 10.0661 5 8.64006 5.72662C7.38565 6.36578 6.36578 7.38565 5.72662 8.64006ZM20 25C19.0795 25 18.3333 25.7462 18.3333 26.6667C18.3333 27.5871 19.0795 28.3333 20 28.3333H26.6667C27.5871 28.3333 28.3333 27.5871 28.3333 26.6667C28.3333 25.7462 27.5871 25 26.6667 25H20ZM15 20C15 19.0795 15.7462 18.3333 16.6667 18.3333H23.3333C24.2538 18.3333 25 19.0795 25 20C25 20.9205 24.2538 21.6667 23.3333 21.6667H16.6667C15.7462 21.6667 15 20.9205 15 20ZM13.3333 11.6667C12.4129 11.6667 11.6667 12.4129 11.6667 13.3333C11.6667 14.2538 12.4129 15 13.3333 15H20C20.9205 15 21.6667 14.2538 21.6667 13.3333C21.6667 12.4129 20.9205 11.6667 20 11.6667H13.3333Z" fill="white"/>
</svg>
