<svg width="40" height="40" viewBox="0 0 40 40" fill="none" xmlns="http://www.w3.org/2000/svg">
<path fill-rule="evenodd" clip-rule="evenodd" d="M13.3332 11.6667C12.4127 11.6667 11.6665 12.4129 11.6665 13.3334C11.6665 14.2538 12.4127 15 13.3332 15H19.9998C20.9203 15 21.6665 14.2538 21.6665 13.3334C21.6665 12.4129 20.9203 11.6667 19.9998 11.6667H13.3332ZM14.9998 20C14.9998 19.0795 15.746 18.3334 16.6665 18.3334H23.3332C24.2536 18.3334 24.9998 19.0795 24.9998 20C24.9998 20.9205 24.2536 21.6667 23.3332 21.6667H16.6665C15.746 21.6667 14.9998 20.9205 14.9998 20ZM18.3332 26.6667C18.3332 25.7462 19.0794 25 19.9998 25H26.6665C27.587 25 28.3332 25.7462 28.3332 26.6667C28.3332 27.5872 27.587 28.3334 26.6665 28.3334H19.9998C19.0794 28.3334 18.3332 27.5872 18.3332 26.6667Z" fill="black"/>
<path fill-rule="evenodd" clip-rule="evenodd" d="M17.262 5H22.738C24.5443 4.99998 26.0012 4.99997 27.181 5.09636C28.3958 5.19561 29.4628 5.4053 30.4499 5.90828C32.0179 6.70722 33.2928 7.98206 34.0917 9.55008C34.5947 10.5372 34.8044 11.6042 34.9036 12.819C35 13.9988 35 15.4557 35 17.2619V22.7381C35 24.5443 35 26.0013 34.9036 27.181C34.8044 28.3958 34.5947 29.4628 34.0917 30.4499C33.2928 32.0179 32.0179 33.2928 30.4499 34.0917C29.4628 34.5947 28.3958 34.8044 27.181 34.9036C26.0013 35 24.5443 35 22.7381 35H17.2619C15.4557 35 13.9987 35 12.819 34.9036C11.6042 34.8044 10.5372 34.5947 9.55008 34.0917C7.98206 33.2928 6.70722 32.0179 5.90828 30.4499C5.4053 29.4628 5.19561 28.3958 5.09636 27.181C4.99997 26.0012 4.99998 24.5443 5 22.738V17.262C4.99998 15.4557 4.99997 13.9988 5.09636 12.819C5.19561 11.6042 5.4053 10.5372 5.90828 9.55008C6.70722 7.98206 7.98206 6.70722 9.55008 5.90828C10.5372 5.4053 11.6042 5.19561 12.819 5.09636C13.9988 4.99997 15.4557 4.99998 17.262 5ZM13.0904 8.41863C12.0818 8.50103 11.5023 8.65466 11.0634 8.8783C10.1226 9.35767 9.35767 10.1226 8.8783 11.0634C8.65466 11.5023 8.50103 12.0818 8.41863 13.0904C8.33463 14.1185 8.33333 15.439 8.33333 17.3333V22.6667C8.33333 24.561 8.33463 25.8815 8.41863 26.9096C8.50103 27.9182 8.65466 28.4977 8.8783 28.9366C9.35767 29.8774 10.1226 30.6423 11.0634 31.1217C11.5023 31.3453 12.0818 31.499 13.0904 31.5814C14.1185 31.6654 15.439 31.6667 17.3333 31.6667H22.6667C24.561 31.6667 25.8815 31.6654 26.9096 31.5814C27.9182 31.499 28.4977 31.3453 28.9366 31.1217C29.8774 30.6423 30.6423 29.8774 31.1217 28.9366C31.3453 28.4977 31.499 27.9182 31.5814 26.9096C31.6654 25.8815 31.6667 24.561 31.6667 22.6667V17.3333C31.6667 15.439 31.6654 14.1185 31.5814 13.0904C31.499 12.0818 31.3453 11.5023 31.1217 11.0634C30.6423 10.1226 29.8774 9.35767 28.9366 8.8783C28.4977 8.65466 27.9182 8.50103 26.9096 8.41863C25.8815 8.33463 24.561 8.33333 22.6667 8.33333H17.3333C15.439 8.33333 14.1185 8.33463 13.0904 8.41863Z" fill="black"/>
</svg>
