<svg width="134" height="21" viewBox="0 0 134 21" fill="none" xmlns="http://www.w3.org/2000/svg">
<path d="M2.5 10.5H6.66667M2.5 10.5C2.5 14.6421 5.85786 18 10 18M2.5 10.5C2.5 6.35786 5.85786 3 10 3M6.66667 10.5H13.3333M6.66667 10.5C6.66667 14.6421 8.15905 18 10 18M6.66667 10.5C6.66667 6.35786 8.15905 3 10 3M13.3333 10.5H17.5M13.3333 10.5C13.3333 6.35786 11.8409 3 10 3M13.3333 10.5C13.3333 14.6421 11.8409 18 10 18M17.5 10.5C17.5 6.35786 14.1421 3 10 3M17.5 10.5C17.5 14.6421 14.1421 18 10 18" stroke="black" stroke-width="2" stroke-linecap="round" stroke-linejoin="round"/>
<path d="M31.24 5.78C31.24 6.06 31.1333 6.30667 30.92 6.52C30.72 6.73333 30.4733 6.84 30.18 6.84C29.8733 6.84 29.62 6.73333 29.42 6.52C29.2333 6.29333 29.14 6.04667 29.14 5.78C29.14 5.51333 29.2333 5.27333 29.42 5.06C29.62 4.84667 29.8733 4.74 30.18 4.74C30.4733 4.74 30.72 4.84667 30.92 5.06C31.1333 5.26 31.24 5.5 31.24 5.78ZM31.08 8.52V17.5H29.3V8.52H31.08ZM35.355 8.52V13.88C35.355 14.76 35.5217 15.3667 35.855 15.7C36.1883 16.0333 36.635 16.2 37.195 16.2C37.6217 16.2 38.0217 16.0867 38.395 15.86C38.7683 15.6333 39.0883 15.3267 39.355 14.94V8.52H41.135V17.5H39.355V16.36C38.9683 16.7867 38.5283 17.1133 38.035 17.34C37.555 17.5667 37.0817 17.68 36.615 17.68C35.5883 17.68 34.8217 17.3333 34.315 16.64C33.8217 15.9333 33.575 14.9267 33.575 13.62V8.52H35.355ZM46.1736 8.34C47.0936 8.34 48.0003 8.58667 48.8936 9.08V10.86C48.3869 10.5533 47.9269 10.32 47.5136 10.16C47.1136 9.98667 46.7069 9.9 46.2936 9.9C45.8803 9.9 45.5869 9.97333 45.4136 10.12C45.2403 10.2533 45.1536 10.4067 45.1536 10.58C45.1536 10.8467 45.2469 11.0733 45.4336 11.26C45.6203 11.4333 46.1203 11.7533 46.9336 12.22L47.7736 12.72C48.2403 13.0267 48.6136 13.3867 48.8936 13.8C49.1869 14.2 49.3336 14.64 49.3336 15.12C49.3336 15.8133 49.0603 16.4133 48.5136 16.92C47.9803 17.4267 47.2269 17.68 46.2536 17.68C45.8269 17.68 45.4069 17.6333 44.9936 17.54C44.5803 17.4467 44.0003 17.22 43.2536 16.86V14.94C43.6803 15.2733 44.1536 15.5533 44.6736 15.78C45.2069 16.0067 45.6869 16.12 46.1136 16.12C46.6203 16.12 46.9736 16.0333 47.1736 15.86C47.3869 15.6867 47.4936 15.4933 47.4936 15.28C47.4936 14.8133 47.0803 14.36 46.2536 13.92C45.4269 13.48 44.7269 13.0133 44.1536 12.52C43.5936 12.0133 43.3136 11.4 43.3136 10.68C43.3136 10.0133 43.5736 9.46 44.0936 9.02C44.6269 8.56667 45.3203 8.34 46.1736 8.34ZM54.9089 17.7C53.6822 17.7 52.5222 17.4667 51.4289 17V3.86H53.2089V9.16C53.9422 8.61333 54.7689 8.34 55.6889 8.34C56.8089 8.34 57.7289 8.77333 58.4489 9.64C59.1822 10.5067 59.5489 11.6 59.5489 12.92C59.5489 14.36 59.1156 15.52 58.2489 16.4C57.3956 17.2667 56.2822 17.7 54.9089 17.7ZM53.2089 15.86C53.5022 15.9533 53.7822 16.0267 54.0489 16.08C54.3156 16.12 54.6222 16.14 54.9689 16.14C55.7956 16.14 56.4622 15.8533 56.9689 15.28C57.4889 14.6933 57.7489 13.9267 57.7489 12.98C57.7489 12.02 57.5156 11.2667 57.0489 10.72C56.5822 10.1733 55.9689 9.9 55.2089 9.9C54.5022 9.9 53.8356 10.1933 53.2089 10.78V15.86ZM69.1456 3.86V17.5H65.6056C64.139 17.5 62.999 17.0733 62.1856 16.22C61.3856 15.3533 60.9856 14.3 60.9856 13.06C60.9856 11.66 61.4056 10.5267 62.2456 9.66C63.099 8.78 64.159 8.34 65.4256 8.34C65.8123 8.34 66.159 8.37333 66.4656 8.44C66.7856 8.50667 67.0856 8.59333 67.3656 8.7V3.86H69.1456ZM65.9656 15.94H67.3656V10.32C67.0856 10.1733 66.8056 10.0667 66.5256 10C66.2456 9.93333 65.9323 9.9 65.5856 9.9C64.7856 9.9 64.119 10.1733 63.5856 10.72C63.0523 11.2667 62.7856 12.0533 62.7856 13.08C62.7856 14 63.059 14.7067 63.6056 15.2C64.1523 15.6933 64.939 15.94 65.9656 15.94ZM77.4614 11.24V15.76C77.4614 16.04 77.5747 16.18 77.8014 16.18C78.0014 16.18 78.3147 16.02 78.7414 15.7V16.98C78.0481 17.4467 77.4281 17.68 76.8814 17.68C76.5614 17.68 76.2947 17.6133 76.0814 17.48C75.8814 17.3333 75.7414 17.0933 75.6614 16.76C74.8881 17.3733 74.0814 17.68 73.2414 17.68C72.6414 17.68 72.1214 17.4733 71.6814 17.06C71.2547 16.6333 71.0414 16.1067 71.0414 15.48C71.0414 14.68 71.3547 14.0667 71.9814 13.64C72.6214 13.2133 73.8547 12.6933 75.6814 12.08V11.58C75.6814 11.02 75.5414 10.62 75.2614 10.38C74.9947 10.14 74.5947 10.02 74.0614 10.02C73.5681 10.02 73.0747 10.14 72.5814 10.38C72.1014 10.62 71.6481 10.9933 71.2214 11.5V9.56C71.9147 8.74667 72.9081 8.34 74.2014 8.34C75.2414 8.34 76.0414 8.60667 76.6014 9.14C77.1747 9.67333 77.4614 10.3733 77.4614 11.24ZM74.1214 16.42C74.4014 16.42 74.6681 16.3533 74.9214 16.22C75.1881 16.0867 75.4414 15.9067 75.6814 15.68V13.06C74.6414 13.4067 73.9081 13.74 73.4814 14.06C73.0547 14.38 72.8414 14.7467 72.8414 15.16C72.8414 15.5067 72.9547 15.8067 73.1814 16.06C73.4214 16.3 73.7347 16.42 74.1214 16.42ZM81.9984 3.86V17.5H80.1984V3.86H81.9984ZM88.1784 8.52L84.2984 12.9L88.9584 17.5H86.5784L82.0784 12.92L86.0584 8.52H88.1784ZM95.5669 11.24V15.76C95.5669 16.04 95.6802 16.18 95.9069 16.18C96.1069 16.18 96.4202 16.02 96.8469 15.7V16.98C96.1535 17.4467 95.5335 17.68 94.9869 17.68C94.6669 17.68 94.4002 17.6133 94.1869 17.48C93.9869 17.3333 93.8469 17.0933 93.7669 16.76C92.9935 17.3733 92.1869 17.68 91.3469 17.68C90.7469 17.68 90.2269 17.4733 89.7869 17.06C89.3602 16.6333 89.1469 16.1067 89.1469 15.48C89.1469 14.68 89.4602 14.0667 90.0869 13.64C90.7269 13.2133 91.9602 12.6933 93.7869 12.08V11.58C93.7869 11.02 93.6469 10.62 93.3669 10.38C93.1002 10.14 92.7002 10.02 92.1669 10.02C91.6735 10.02 91.1802 10.14 90.6869 10.38C90.2069 10.62 89.7535 10.9933 89.3269 11.5V9.56C90.0202 8.74667 91.0135 8.34 92.3069 8.34C93.3469 8.34 94.1469 8.60667 94.7069 9.14C95.2802 9.67333 95.5669 10.3733 95.5669 11.24ZM92.2269 16.42C92.5069 16.42 92.7735 16.3533 93.0269 16.22C93.2935 16.0867 93.5469 15.9067 93.7869 15.68V13.06C92.7469 13.4067 92.0135 13.74 91.5869 14.06C91.1602 14.38 90.9469 14.7467 90.9469 15.16C90.9469 15.5067 91.0602 15.8067 91.2869 16.06C91.5269 16.3 91.8402 16.42 92.2269 16.42ZM101.784 17.7C100.557 17.7 99.3972 17.4667 98.3039 17V3.86H100.084V9.16C100.817 8.61333 101.644 8.34 102.564 8.34C103.684 8.34 104.604 8.77333 105.324 9.64C106.057 10.5067 106.424 11.6 106.424 12.92C106.424 14.36 105.991 15.52 105.124 16.4C104.271 17.2667 103.157 17.7 101.784 17.7ZM100.084 15.86C100.377 15.9533 100.657 16.0267 100.924 16.08C101.191 16.12 101.497 16.14 101.844 16.14C102.671 16.14 103.337 15.8533 103.844 15.28C104.364 14.6933 104.624 13.9267 104.624 12.98C104.624 12.02 104.391 11.2667 103.924 10.72C103.457 10.1733 102.844 9.9 102.084 9.9C101.377 9.9 100.711 10.1933 100.084 10.78V15.86ZM116.021 3.86V17.5H112.481C111.014 17.5 109.874 17.0733 109.061 16.22C108.261 15.3533 107.861 14.3 107.861 13.06C107.861 11.66 108.281 10.5267 109.121 9.66C109.974 8.78 111.034 8.34 112.301 8.34C112.687 8.34 113.034 8.37333 113.341 8.44C113.661 8.50667 113.961 8.59333 114.241 8.7V3.86H116.021ZM112.841 15.94H114.241V10.32C113.961 10.1733 113.681 10.0667 113.401 10C113.121 9.93333 112.807 9.9 112.461 9.9C111.661 9.9 110.994 10.1733 110.461 10.72C109.927 11.2667 109.661 12.0533 109.661 13.08C109.661 14 109.934 14.7067 110.481 15.2C111.027 15.6933 111.814 15.94 112.841 15.94ZM124.336 11.24V15.76C124.336 16.04 124.45 16.18 124.676 16.18C124.876 16.18 125.19 16.02 125.616 15.7V16.98C124.923 17.4467 124.303 17.68 123.756 17.68C123.436 17.68 123.17 17.6133 122.956 17.48C122.756 17.3333 122.616 17.0933 122.536 16.76C121.763 17.3733 120.956 17.68 120.116 17.68C119.516 17.68 118.996 17.4733 118.556 17.06C118.13 16.6333 117.916 16.1067 117.916 15.48C117.916 14.68 118.23 14.0667 118.856 13.64C119.496 13.2133 120.73 12.6933 122.556 12.08V11.58C122.556 11.02 122.416 10.62 122.136 10.38C121.87 10.14 121.47 10.02 120.936 10.02C120.443 10.02 119.95 10.14 119.456 10.38C118.976 10.62 118.523 10.9933 118.096 11.5V9.56C118.79 8.74667 119.783 8.34 121.076 8.34C122.116 8.34 122.916 8.60667 123.476 9.14C124.05 9.67333 124.336 10.3733 124.336 11.24ZM120.996 16.42C121.276 16.42 121.543 16.3533 121.796 16.22C122.063 16.0867 122.316 15.9067 122.556 15.68V13.06C121.516 13.4067 120.783 13.74 120.356 14.06C119.93 14.38 119.716 14.7467 119.716 15.16C119.716 15.5067 119.83 15.8067 120.056 16.06C120.296 16.3 120.61 16.42 120.996 16.42ZM129.513 8.34C130.433 8.34 131.34 8.58667 132.233 9.08V10.86C131.727 10.5533 131.267 10.32 130.853 10.16C130.453 9.98667 130.047 9.9 129.633 9.9C129.22 9.9 128.927 9.97333 128.753 10.12C128.58 10.2533 128.493 10.4067 128.493 10.58C128.493 10.8467 128.587 11.0733 128.773 11.26C128.96 11.4333 129.46 11.7533 130.273 12.22L131.113 12.72C131.58 13.0267 131.953 13.3867 132.233 13.8C132.527 14.2 132.673 14.64 132.673 15.12C132.673 15.8133 132.4 16.4133 131.853 16.92C131.32 17.4267 130.567 17.68 129.593 17.68C129.167 17.68 128.747 17.6333 128.333 17.54C127.92 17.4467 127.34 17.22 126.593 16.86V14.94C127.02 15.2733 127.493 15.5533 128.013 15.78C128.547 16.0067 129.027 16.12 129.453 16.12C129.96 16.12 130.313 16.0333 130.513 15.86C130.727 15.6867 130.833 15.4933 130.833 15.28C130.833 14.8133 130.42 14.36 129.593 13.92C128.767 13.48 128.067 13.0133 127.493 12.52C126.933 12.0133 126.653 11.4 126.653 10.68C126.653 10.0133 126.913 9.46 127.433 9.02C127.967 8.56667 128.66 8.34 129.513 8.34Z" fill="black"/>
</svg>
