<svg width="25" height="24" viewBox="0 0 25 24" fill="none" xmlns="http://www.w3.org/2000/svg">
<g clip-path="url(#clip0_54_430)">
<path fill-rule="evenodd" clip-rule="evenodd" d="M23.08 4.83407C23.4523 5.20883 23.7197 5.67482 23.8554 6.18541C24.3572 8.06995 24.3572 12 24.3572 12C24.3572 12 24.3572 15.93 23.8554 17.8145C23.7197 18.3251 23.4523 18.7911 23.08 19.1658C22.7076 19.5406 22.2433 19.811 21.7336 19.95C19.8572 20.4545 12.3572 20.4545 12.3572 20.4545C12.3572 20.4545 4.85724 20.4545 2.98088 19.95C2.47117 19.811 2.0069 19.5406 1.63453 19.1658C1.26215 18.7911 0.994744 18.3251 0.859057 17.8145C0.357239 15.93 0.357239 12 0.357239 12C0.357239 12 0.357239 8.06995 0.859057 6.18541C0.994744 5.67482 1.26215 5.20883 1.63453 4.83407C2.0069 4.4593 2.47117 4.18891 2.98088 4.04996C4.85724 3.54541 12.3572 3.54541 12.3572 3.54541C12.3572 3.54541 19.8572 3.54541 21.7336 4.04996C22.2433 4.18891 22.7076 4.4593 23.08 4.83407ZM16.1754 12L9.90271 8.43135V15.5686L16.1754 12Z" fill="white"/>
</g>
<defs>
<clipPath id="clip0_54_430">
<rect width="24" height="24" fill="white" transform="translate(0.333435)"/>
</clipPath>
</defs>
</svg>
