<svg width="28" height="29" viewBox="0 0 28 29" fill="none" xmlns="http://www.w3.org/2000/svg">
<g id="Calendar / Calendar">
<path id="Vector" d="M4.66669 9.83325H23.3334M4.66669 9.83325V20.1001C4.66669 21.4069 4.66669 22.06 4.92101 22.5591C5.14471 22.9982 5.50141 23.3555 5.94045 23.5792C6.43909 23.8333 7.09218 23.8333 8.39642 23.8333H19.6036C20.9079 23.8333 21.56 23.8333 22.0586 23.5792C22.4977 23.3555 22.8556 22.9982 23.0793 22.5591C23.3334 22.0605 23.3334 21.4083 23.3334 20.1041V9.83325M4.66669 9.83325V8.90015C4.66669 7.59336 4.66669 6.93948 4.92101 6.44035C5.14471 6.0013 5.50141 5.64461 5.94045 5.4209C6.43958 5.16659 7.09346 5.16659 8.40025 5.16659H9.33335M23.3334 9.83325V8.89631C23.3334 7.59208 23.3334 6.93899 23.0793 6.44035C22.8556 6.0013 22.4977 5.64461 22.0586 5.4209C21.5595 5.16659 20.907 5.16659 19.6002 5.16659H18.6667M18.6667 2.83325V5.16659M18.6667 5.16659H9.33335M9.33335 2.83325V5.16659" stroke="white" stroke-width="2" stroke-linecap="round" stroke-linejoin="round"/>
</g>
</svg>
