<svg width="25" height="24" viewBox="0 0 25 24" fill="none" xmlns="http://www.w3.org/2000/svg">
<g id="Navigation / Globe">
<path id="Vector" d="M3.33344 12H8.33344M3.33344 12C3.33344 16.9706 7.36287 21 12.3334 21M3.33344 12C3.33344 7.02944 7.36287 3 12.3334 3M8.33344 12H16.3334M8.33344 12C8.33344 16.9706 10.1243 21 12.3334 21M8.33344 12C8.33344 7.02944 10.1243 3 12.3334 3M16.3334 12H21.3334M16.3334 12C16.3334 7.02944 14.5426 3 12.3334 3M16.3334 12C16.3334 16.9706 14.5426 21 12.3334 21M21.3334 12C21.3334 7.02944 17.304 3 12.3334 3M21.3334 12C21.3334 16.9706 17.304 21 12.3334 21" stroke="white" stroke-width="2" stroke-linecap="round" stroke-linejoin="round"/>
</g>
</svg>
