<svg width="25" height="24" viewBox="0 0 25 24" fill="none" xmlns="http://www.w3.org/2000/svg">
<g id="Communication / Mail">
<path id="Vector" d="M4.83344 6L10.9411 10.6123L10.9431 10.614C11.6213 11.1113 11.9606 11.3601 12.3322 11.4562C12.6607 11.5412 13.0059 11.5412 13.3344 11.4562C13.7064 11.36 14.0466 11.1105 14.726 10.6123C14.726 10.6123 18.6435 7.60594 20.8334 6M3.83344 15.8002V8.2002C3.83344 7.08009 3.83344 6.51962 4.05142 6.0918C4.24317 5.71547 4.54891 5.40973 4.92523 5.21799C5.35306 5 5.91353 5 7.03363 5H18.6336C19.7537 5 20.313 5 20.7408 5.21799C21.1172 5.40973 21.4239 5.71547 21.6157 6.0918C21.8334 6.5192 21.8334 7.07899 21.8334 8.19691V15.8036C21.8334 16.9215 21.8334 17.4805 21.6157 17.9079C21.4239 18.2842 21.1172 18.5905 20.7408 18.7822C20.3134 19 19.7544 19 18.6365 19H7.03035C5.91243 19 5.35264 19 4.92523 18.7822C4.54891 18.5905 4.24317 18.2842 4.05142 17.9079C3.83344 17.4801 3.83344 16.9203 3.83344 15.8002Z" stroke="white" stroke-width="2" stroke-linecap="round" stroke-linejoin="round"/>
</g>
</svg>
