<svg width="404" height="539" viewBox="0 0 404 539" fill="none" xmlns="http://www.w3.org/2000/svg">
<g style="mix-blend-mode:soft-light" opacity="0.3" clip-path="url(#clip0_1086_2140)">
<path d="M247.587 294.568C247.587 294.568 247.941 294.825 248.07 294.921L248.811 293.988L247.587 294.6V294.568Z" fill="white"/>
<path d="M302.828 236.098V236.162H302.892C302.892 236.162 302.892 236.098 302.828 236.098Z" fill="white"/>
<path d="M241.689 236.967C241.689 236.967 241.56 237.096 241.495 237.16L242.108 237.514L241.689 236.967Z" fill="white"/>
<path d="M302.828 236.098V236.162H302.892C302.892 236.162 302.892 236.098 302.828 236.098ZM248.038 294.921L248.779 293.988L247.554 294.599C247.554 294.599 247.909 294.857 248.038 294.953V294.921ZM241.463 237.192L242.075 237.546L241.656 236.999C241.656 236.999 241.527 237.127 241.463 237.192Z" fill="white"/>
<path d="M181.484 307.697C177.423 309.241 173.556 310.754 169.753 312.363C133.269 328.935 130.239 347.566 127.79 362.594C125.953 373.76 124.116 385.119 108.807 388.241C106.164 388.788 103.521 389.045 100.878 389.045C87.8575 389.045 76.3516 382.352 70.9048 370.961L70.4214 369.867C67.424 363.109 66.9084 355.386 68.8099 347.92C71.1304 339.136 76.6739 330.994 85.2792 323.883C102.425 309.724 127.5 302.548 145.677 298.976L146.418 298.719L147.16 298.847C156.248 296.949 164.306 296.08 169.527 295.533H170.139L172.363 295.34H172.911C176.907 294.921 178.68 294.857 179.002 294.857L222.802 292.637L181.452 307.664L181.484 307.697Z" fill="white"/>
<path d="M201.015 493.306C200.274 493.563 198.63 495.076 197.631 496.009C196.471 497.039 195.407 497.972 194.505 498.583C187.737 503.056 180.614 506.242 173.233 508.044C168.496 509.267 163.597 509.814 158.666 509.814C144.291 509.814 129.724 504.955 119.604 496.266C115.543 492.759 112.094 488.672 109.419 484.231C99.3957 467.498 100.33 447.064 111.514 427.178C100.814 433.131 89.9525 436.188 79.639 436.188C70.6792 436.188 62.074 433.968 54.3389 429.269C49.859 426.631 45.7981 423.188 42.2851 419.101C30.618 405.553 25.8803 384.026 30.4891 365.555C32.3262 358.186 35.5169 351.074 39.9646 344.317C40.5769 343.448 41.5116 342.354 42.5429 341.195C43.4131 340.165 44.9924 338.557 45.2502 337.816L51.6961 339.844C43.8966 364.203 45.1858 382.674 55.5636 394.612C73.9344 415.786 115.768 411.346 123.503 410.316C124.245 410.187 124.664 410.123 124.728 410.123L129.401 409.318L128.596 413.984C128.596 413.984 128.531 414.467 128.402 415.207C127.371 422.866 122.923 464.699 144.13 483.041C156.055 493.402 174.49 494.689 198.92 486.902L201.015 493.338V493.306Z" fill="white"/>
<path d="M52.953 307.182C25.6869 306.925 2.57841 292.701 0.290116 274.617C-2.41716 253.282 14.5355 236.774 43.4131 232.655C60.1724 230.21 74.6757 233.942 85.3759 237.386C117.573 247.94 152.22 255.985 188.349 261.423C191.733 261.97 194.73 263.032 197.631 264.062C198.92 264.545 200.145 264.931 201.434 265.349L204.206 266.218L203.174 273.201L201.144 273.877C200.048 274.231 198.985 274.617 197.889 274.971C195.311 275.904 192.732 276.805 189.831 277.416C185.223 278.285 180.485 279.122 175.651 279.862C172.46 280.345 169.269 280.892 166.078 281.407C135.557 286.813 106.776 295.018 80.1225 303.063C71.3238 305.702 61.8806 307.182 53.4687 307.182H52.9208H52.953Z" fill="white"/>
<path d="M173.008 340.873C173.266 335.338 176.456 330.383 181.355 327.937L244.944 295.919L247.587 294.567C247.587 294.567 247.941 294.825 248.07 294.921L246.298 297.367L240.593 305.219C216.593 338.342 204.571 354.925 204.528 354.968C201.692 358.893 197.083 361.21 192.184 361.21C191.443 361.21 190.702 361.146 189.96 361.082C181.001 359.794 172.524 349.787 173.008 340.905V340.873Z" fill="white"/>
<path d="M373.668 468.206L372.572 468.689C368.447 470.459 363.967 471.392 359.358 471.392C356.458 471.392 353.525 470.973 350.689 470.298C341.793 467.981 333.736 462.446 326.613 453.854C312.432 436.735 305.181 411.7 301.668 393.551L301.313 392.81L301.442 392.006C299.541 382.867 298.67 374.951 298.187 369.674L298.122 369.191V369.127L297.929 366.906V366.359C297.51 362.305 297.446 360.599 297.446 360.213L295.222 316.546L310.273 357.832C311.82 361.886 313.399 365.748 315.011 369.481C331.544 405.907 350.27 408.932 365.256 411.378C376.44 413.212 387.817 415.111 390.943 430.396C394.198 446.517 387.269 461.674 373.668 468.238V468.206Z" fill="white"/>
<path d="M304.601 453.79C308.114 464.473 311.852 478.954 309.403 495.687C305.535 522.492 290.968 539 271.727 539C270.308 539 268.826 538.872 267.311 538.743C249.263 536.426 234.985 513.354 234.759 486.162C234.695 477.635 236.177 468.013 238.885 459.035C246.942 432.423 255.161 403.591 260.511 373.149C261.123 370.028 261.606 366.842 262.122 363.688C262.863 358.894 263.605 354.131 264.572 349.465C265.119 346.634 266.054 343.995 266.957 341.421C267.376 340.326 267.762 339.265 268.117 338.17L268.794 336.143L275.787 335.21L276.593 337.913C277.012 339.2 277.463 340.487 277.947 341.71C278.978 344.606 280.042 347.663 280.525 351.042C286.004 387.115 294.094 421.707 304.601 453.854V453.79Z" fill="white"/>
<path d="M301.603 145.546C305.181 127.397 312.368 102.297 326.613 85.1776C333.736 76.5858 341.793 71.0188 350.689 68.7341C358.069 66.8355 365.869 67.4469 372.572 70.3431L373.604 70.7614C387.301 77.3259 394.198 92.5466 390.943 108.668C387.817 123.953 376.504 125.788 365.45 127.622C350.27 130.067 331.544 133.092 314.946 169.583C313.399 173.316 311.82 177.178 310.273 181.297L295.222 222.518L297.446 178.722C297.446 178.465 297.51 176.695 297.929 172.222L298.122 169.841V169.776L298.187 169.358C298.67 164.081 299.541 156.1 301.442 147.026L301.378 146.543L301.571 145.513L301.603 145.546Z" fill="white"/>
<path d="M241.689 236.967C241.689 236.967 241.56 237.096 241.495 237.16L238.24 235.551L174.651 203.533C169.785 201.023 166.594 196.099 166.304 190.532C165.821 181.651 174.297 171.708 183.257 170.42C188.961 169.616 194.569 171.965 197.889 176.567C197.889 176.567 198.372 177.242 203.175 183.807C207.912 190.372 216.936 202.761 233.889 226.187L239.594 234.039L241.689 236.935V236.967Z" fill="white"/>
<path d="M239.916 85.2424C236.403 74.5589 232.664 60.0783 235.114 43.3452C239.304 14.5127 255.709 -2.41349 277.206 0.289553C295.254 2.60645 309.532 25.6789 309.757 52.8702C309.822 61.3977 308.339 71.0192 305.632 79.9972C297.575 106.609 289.356 135.442 284.006 165.819C283.394 169.005 282.91 172.19 282.395 175.376C281.653 180.106 280.912 184.837 279.945 189.535C279.397 192.431 278.463 195.07 277.496 197.58C277.141 198.674 276.754 199.736 276.4 200.83L275.723 202.857L268.729 203.887L267.923 201.119C267.505 199.897 267.053 198.609 266.57 197.322C265.539 194.426 264.475 191.433 263.992 188.055C258.513 152.046 250.423 117.389 239.916 85.2424Z" fill="white"/>
<path d="M374.571 343.447C374.99 352.329 366.578 362.272 357.554 363.559C356.812 363.688 356.071 363.752 355.33 363.752C350.463 363.752 345.854 361.371 342.921 357.381C342.921 357.381 342.374 356.705 337.636 350.141C332.898 343.576 323.938 331.187 306.921 307.761L298.703 296.466L366.223 330.447C371.09 332.957 374.281 337.88 374.571 343.447Z" fill="white"/>
<path d="M474.547 369.931L474.063 370.864C468.584 382.288 457.11 389.078 444.025 389.078C441.447 389.078 438.804 388.82 436.161 388.273C420.852 385.152 419.015 373.793 417.178 362.819C414.664 347.599 411.699 328.967 375.086 312.395C371.412 310.786 367.577 309.273 363.419 307.664L322.133 292.701L365.998 294.922C366.256 294.922 368.028 294.986 372.508 295.404L374.829 295.597H375.376C380.662 296.144 388.655 297.013 397.744 298.912L398.163 298.847L399.194 299.04C417.371 302.548 442.51 309.788 459.721 323.947C468.326 331.059 473.902 339.168 476.19 347.985C478.092 355.418 477.479 363.141 474.579 369.931H474.547Z" fill="white"/>
<path d="M501.748 419.133C498.235 423.188 494.142 426.631 489.694 429.302C481.959 433.968 473.418 436.22 464.394 436.22C454.081 436.22 443.252 433.163 432.584 427.21C443.703 447.097 444.638 467.627 434.679 484.264C431.971 488.736 428.523 492.791 424.43 496.298C414.342 504.955 399.806 509.846 385.368 509.846C380.404 509.846 375.538 509.299 370.864 508.076C363.484 506.242 356.297 503.056 349.593 498.615C348.658 498.004 347.562 497.071 346.467 496.041C345.435 495.108 343.759 493.595 343.018 493.338L345.113 486.902C355.555 490.217 364.966 491.922 373.185 491.922C384.175 491.922 393.103 488.929 399.903 483.041C421.174 464.699 416.662 422.866 415.631 415.207C415.502 414.467 415.438 414.049 415.438 413.984L414.696 409.318L419.37 410.123C419.37 410.123 419.853 410.187 420.53 410.252C427.975 411.281 470.099 415.883 488.534 394.613C498.847 382.706 500.137 364.3 492.337 339.908V339.844L498.847 337.816C499.041 338.557 500.62 340.262 501.49 341.195C502.522 342.354 503.521 343.416 504.133 344.317C508.549 351.074 511.804 358.186 513.609 365.555C518.217 384.026 513.48 405.553 501.748 419.101V419.133Z" fill="white"/>
<path d="M193.828 68.7022C202.723 71.0191 210.781 76.5539 217.903 85.1457C232.149 102.265 239.336 127.3 242.849 145.449L243.107 146.189L243.042 146.93C244.879 155.94 245.814 163.984 246.297 169.326L246.362 169.809V169.873L246.555 172.094V172.705C246.974 176.567 247.039 178.336 247.039 178.723L249.198 222.454L234.211 181.168C232.664 177.114 231.085 173.252 229.474 169.519C212.94 133.028 194.215 130.003 179.228 127.558C167.98 125.724 156.667 123.889 153.541 108.604C150.286 92.4825 157.215 77.2618 170.816 70.7616L171.912 70.2789C178.68 67.2863 186.415 66.7714 193.796 68.67L193.828 68.7022Z" fill="white"/>
<path d="M302.892 236.163C302.892 236.163 302.892 236.098 302.828 236.098L311.046 224.868C335.133 191.659 347.24 174.99 347.369 174.862C350.431 170.678 356.039 168.297 361.679 169.102C370.703 170.389 379.115 180.332 378.696 189.214C378.438 194.748 375.247 199.768 370.349 202.214L302.892 236.195V236.163Z" fill="white"/>
<path d="M345.145 53.482L343.05 47.0462C343.792 46.7888 345.5 45.2764 346.499 44.3432C347.595 43.3134 348.658 42.3802 349.625 41.7688C356.329 37.2959 363.516 34.1102 370.897 32.3082C389.332 27.7066 410.893 32.4369 424.462 44.0857C428.523 47.5933 431.971 51.68 434.711 56.1207C444.67 72.7573 443.735 93.2876 432.616 113.174C452.534 102.008 473.096 101.043 489.694 111.083C494.174 113.721 498.235 117.164 501.748 121.251C513.48 134.799 518.217 156.326 513.609 174.797C511.771 182.166 508.516 189.342 504.133 196.035C503.521 196.969 502.522 197.998 501.49 199.157C500.62 200.187 499.041 201.796 498.847 202.536L492.337 200.508C495.657 190.082 497.365 180.686 497.365 172.416C497.365 161.507 494.368 152.529 488.47 145.74C470.034 124.405 428.007 129.103 420.53 130.1C419.853 130.165 419.434 130.229 419.37 130.229L414.696 131.034L415.438 126.368C415.438 126.368 415.502 125.885 415.631 125.145C416.662 117.486 421.174 75.6534 399.903 57.3113C387.978 46.9497 369.543 45.6625 345.113 53.4499L345.145 53.482Z" fill="white"/>
<path d="M544.71 274.617C542.389 292.701 519.281 306.892 492.047 307.182H491.435C483.087 307.182 473.676 305.702 464.845 303.063C438.192 295.018 409.314 286.813 378.825 281.407C375.634 280.86 372.443 280.313 369.253 279.862C364.515 279.122 359.777 278.317 355.072 277.416C352.236 276.805 349.593 275.936 347.079 274.971C345.983 274.617 344.92 274.231 343.759 273.877L341.793 273.201L340.762 266.218L343.469 265.349C344.758 264.931 346.048 264.545 347.337 264.062C350.237 263.032 353.235 261.97 356.619 261.423C392.684 256.017 427.33 247.94 459.592 237.386C470.292 233.942 484.795 230.21 501.555 232.655C530.432 236.774 547.32 253.314 544.678 274.617H544.71Z" fill="white"/>
<path d="M248.811 293.956L247.587 294.568C246.297 293.538 245.073 292.476 243.912 291.317C243.429 290.835 243.042 290.384 242.559 289.902C236.113 282.79 232.116 273.265 232.116 262.903C232.116 253.153 235.565 244.143 241.463 237.192L242.075 237.546L241.656 236.999C241.914 236.581 242.204 236.259 242.527 235.905C242.946 235.358 243.397 234.875 243.88 234.425C251.196 227.056 261.381 222.519 272.564 222.519C284.554 222.519 295.415 227.796 302.796 236.13V236.195H302.86C309.177 243.306 313.045 252.703 313.045 262.936C313.045 285.203 294.867 303.288 272.564 303.288C263.347 303.288 254.806 300.231 248.038 294.954L248.779 294.021L248.811 293.956Z" fill="white"/>
<path d="M365.869 244.496L322.133 246.717L363.484 231.753C367.545 230.209 371.412 228.632 375.151 227.023C411.699 210.515 414.664 191.819 417.114 176.792C419.015 165.625 420.852 154.331 436.161 151.209C452.308 147.895 467.488 154.878 474.063 168.393L474.547 169.551C477.447 176.244 478.06 184.032 476.158 191.401C473.837 200.282 468.294 208.327 459.689 215.439C442.543 229.597 417.371 236.838 399.226 240.345L398.485 240.603L397.744 240.474C388.655 242.373 380.662 243.241 375.376 243.788L374.893 243.853L374.829 243.788L372.508 244.046L371.96 243.981C368.028 244.4 366.256 244.464 365.869 244.464V244.496Z" fill="white"/>
<path d="M242.849 393.486C239.336 411.635 232.149 436.67 217.903 453.854C210.781 462.446 202.723 468.013 193.828 470.233C190.992 470.973 188.059 471.392 185.158 471.392C180.549 471.392 176.07 470.458 171.944 468.689L170.913 468.206C157.215 461.641 150.318 446.485 153.573 430.363C156.7 415.078 168.077 413.18 179.067 411.41C194.247 408.9 212.972 405.875 229.57 369.384C231.117 365.716 232.697 361.886 234.244 357.735L249.23 316.514L247.071 360.309C247.071 360.663 247.007 362.337 246.523 366.81L246.394 369.127V369.191L246.33 369.674C245.846 374.951 244.912 382.996 243.075 392.07V392.424L242.881 393.518L242.849 393.486Z" fill="white"/>
<path d="M181.549 231.754L222.835 246.717L178.97 244.497C178.712 244.497 176.94 244.432 172.46 244.014L170.139 243.821L170.01 243.885L169.527 243.821C164.306 243.274 156.248 242.405 147.16 240.506L146.805 240.571L145.709 240.378C127.532 236.87 102.393 229.63 85.247 215.471C76.6417 208.359 71.066 200.315 68.7777 191.433C66.8762 184.064 67.4241 176.277 70.3892 169.584L70.8082 168.554C77.383 154.878 92.6275 147.895 108.774 151.241C124.083 154.363 125.921 165.658 127.758 176.631C130.207 191.851 133.237 210.548 169.785 227.055C173.523 228.664 177.391 230.241 181.516 231.786L181.549 231.754Z" fill="white"/>
<path d="M30.5214 174.765C25.9125 156.294 30.6503 134.766 42.3173 121.219C45.8303 117.164 49.9235 113.721 54.3711 111.05C71.1305 101.043 91.5962 101.976 111.514 113.142C100.33 93.2554 99.3635 72.7251 109.419 56.0885C112.062 51.6156 115.51 47.561 119.604 44.0535C133.172 32.4047 154.734 27.6743 173.233 32.276C180.614 34.1102 187.737 37.2959 194.505 41.7366C195.375 42.348 196.471 43.2812 197.631 44.3109C198.662 45.2441 200.274 46.7566 201.015 47.014L198.92 53.4498C174.523 45.6625 156.087 46.9496 144.13 57.3113C122.923 75.6534 127.371 117.486 128.402 125.145C128.531 125.885 128.596 126.303 128.596 126.368L129.401 131.034L124.728 130.229C124.728 130.229 124.245 130.165 123.503 130.036C115.768 129.006 73.9344 124.566 55.5636 145.739C45.1858 157.71 43.8966 176.117 51.6961 200.508L45.2502 202.536C44.9924 201.86 43.4776 200.154 42.5429 199.157C41.5116 198.063 40.5769 197.001 39.9646 196.035C35.4847 189.342 32.294 182.166 30.4891 174.797L30.5214 174.765Z" fill="white"/>
</g>
<defs>
<clipPath id="clip0_1086_2140">
<rect width="545" height="539" fill="white"/>
</clipPath>
</defs>
</svg>
