<svg width="40" height="40" viewBox="0 0 40 40" fill="none" xmlns="http://www.w3.org/2000/svg">
<path fill-rule="evenodd" clip-rule="evenodd" d="M16.6668 3.33334H23.7335C27.2697 3.33334 30.6611 4.7381 33.1616 7.23859C35.6621 9.73907 37.0668 13.1305 37.0668 16.6667V23.7333C37.0668 31.0971 31.0973 37.0667 23.7335 37.0667H16.6668C9.30303 37.0667 3.3335 31.0971 3.3335 23.7333V16.6667C3.3335 9.30288 9.30303 3.33334 16.6668 3.33334ZM20.2002 30.2C21.1206 30.2 21.8668 29.4538 21.8668 28.5333V20.2C21.8694 19.757 21.6955 19.3312 21.3835 19.0167L14.7168 12.35C14.2941 11.9272 13.6779 11.7621 13.1004 11.9169C12.5229 12.0716 12.0718 12.5227 11.917 13.1002C11.7623 13.6777 11.9274 14.2939 12.3502 14.7167L18.5335 20.8833V28.5333C18.5335 29.4538 19.2797 30.2 20.2002 30.2Z" fill="black"/>
</svg>
