<svg width="40" height="40" viewBox="0 0 40 40" fill="none" xmlns="http://www.w3.org/2000/svg">
<path fill-rule="evenodd" clip-rule="evenodd" d="M24.0895 6.33866L32.4263 12.4966C34.033 13.6593 34.989 15.5185 35 17.5018V28.6492C34.8967 32.2236 31.9277 35.0446 28.3526 34.965H11.6632C8.08199 35.0534 5.10325 32.23 5 28.6492V17.5018C5.01099 15.5185 5.96698 13.6593 7.57368 12.4966L15.9105 6.33866C18.3447 4.55378 21.6553 4.55378 24.0895 6.33866ZM12.8947 28.286H27.1053C27.7593 28.286 28.2895 27.7558 28.2895 27.1018C28.2895 26.4478 27.7593 25.9176 27.1053 25.9176H12.8947C12.2407 25.9176 11.7105 26.4478 11.7105 27.1018C11.7105 27.7558 12.2407 28.286 12.8947 28.286Z" fill="white"/>
</svg>
